<svg width="16" height="16" viewBox="0 0 16 16" fill="none" xmlns="http://www.w3.org/2000/svg">
<path d="M12.6667 7.33333H8.66675V3.33333C8.66675 3.15652 8.59651 2.98695 8.47149 2.86193C8.34646 2.7369 8.17689 2.66666 8.00008 2.66666C7.82327 2.66666 7.6537 2.7369 7.52868 2.86193C7.40365 2.98695 7.33341 3.15652 7.33341 3.33333V7.33333H3.33341C3.1566 7.33333 2.98703 7.40357 2.86201 7.52859C2.73699 7.65362 2.66675 7.82319 2.66675 8C2.66675 8.17681 2.73699 8.34638 2.86201 8.4714C2.98703 8.59643 3.1566 8.66666 3.33341 8.66666H7.33341V12.6667C7.33341 12.8435 7.40365 13.013 7.52868 13.1381C7.6537 13.2631 7.82327 13.3333 8.00008 13.3333C8.17689 13.3333 8.34646 13.2631 8.47149 13.1381C8.59651 13.013 8.66675 12.8435 8.66675 12.6667V8.66666H12.6667C12.8436 8.66666 13.0131 8.59643 13.1382 8.4714C13.2632 8.34638 13.3334 8.17681 13.3334 8C13.3334 7.82319 13.2632 7.65362 13.1382 7.52859C13.0131 7.40357 12.8436 7.33333 12.6667 7.33333Z" fill="white"/>
</svg>
