<svg width="48" height="48" viewBox="0 0 48 48" fill="none" xmlns="http://www.w3.org/2000/svg">
<path d="M10 32H14" stroke="white" stroke-width="2.5" stroke-linecap="round" stroke-linejoin="round"/>
<path d="M26 38H8C5.79 38 4 36.21 4 34V15.138C4 14.598 4.11 14.062 4.322 13.566L6.518 8.428C7.148 6.956 8.594 6 10.196 6H29.804C31.406 6 32.852 6.956 33.482 8.428L35.678 13.566C35.89 14.064 36 14.598 36 15.138V22.2" stroke="white" stroke-width="2.5" stroke-linecap="round" stroke-linejoin="round"/>
<path d="M20 6V14.88" stroke="white" stroke-width="2.5" stroke-linecap="round" stroke-linejoin="round"/>
<path d="M35.98 14.88H4" stroke="white" stroke-width="2.5" stroke-linecap="round" stroke-linejoin="round"/>
<path d="M41.0711 24.9291C44.9763 28.8343 44.9763 35.166 41.0711 39.0712C37.1658 42.9764 30.8342 42.9764 26.9289 39.0712C23.0237 35.166 23.0237 28.8343 26.9289 24.9291C30.8342 21.0238 37.1658 21.0238 41.0711 24.9291" stroke="white" stroke-width="2.5" stroke-linecap="round" stroke-linejoin="round"/>
<path d="M37.0241 31.922H32.9761V27.876" stroke="white" stroke-width="2.5" stroke-linecap="round" stroke-linejoin="round"/>
</svg>
