<svg width="131" height="50" viewBox="0 0 131 50" fill="none" xmlns="http://www.w3.org/2000/svg">
<path d="M6.98706 42.0696H110.925V32.61H7.28996L6.98706 42.0696Z" fill="black"/>
<path d="M24.6357 42.4055C24.6357 46.5781 21.2526 49.9612 17.0799 49.9612C12.9073 49.9612 9.52417 46.5781 9.52417 42.4055C9.52417 38.2308 12.9073 34.8477 17.0799 34.8477C21.2526 34.8477 24.6357 38.2308 24.6357 42.4055Z" fill="#0C0C0C"/>
<path d="M23.6886 42.4051C23.6886 46.0538 20.7287 49.0137 17.078 49.0137C13.4293 49.0137 10.4714 46.0538 10.4714 42.4051C10.4714 38.7544 13.4293 35.7945 17.078 35.7945C20.7287 35.7945 23.6886 38.7544 23.6886 42.4051Z" fill="#1E1E1E"/>
<path d="M22.1175 42.4046C22.1175 45.1874 19.8615 47.4435 17.0787 47.4435C14.2978 47.4435 12.0398 45.1874 12.0398 42.4046C12.0398 39.6217 14.2978 37.3657 17.0787 37.3657C19.8615 37.3657 22.1175 39.6217 22.1175 42.4046Z" fill="#AFAFAF"/>
<path d="M20.9388 40.4011C20.8235 40.4011 20.7122 40.3444 20.6477 40.237C20.5325 40.0495 20.4016 39.8697 20.259 39.7017C20.1378 39.5591 20.1554 39.3442 20.298 39.2212C20.4406 39.1 20.6575 39.1176 20.7786 39.2602C20.9447 39.4556 21.0951 39.6646 21.2279 39.8834C21.3276 40.0436 21.2768 40.2546 21.1146 40.3523C21.0599 40.3855 20.9974 40.4011 20.9388 40.4011Z" fill="#DBDBDB"/>
<path d="M14.6797 46.5681C14.6176 46.5681 14.5536 46.5506 14.4992 46.5157C13.0748 45.6211 12.2249 44.0822 12.2249 42.4035C12.2249 39.7274 14.4022 37.5501 17.0783 37.5501C17.7343 37.5501 18.3689 37.6781 18.9685 37.9324C19.1412 38.0061 19.2227 38.206 19.149 38.3787C19.0752 38.5514 18.8754 38.6329 18.7026 38.5592C18.1884 38.3418 17.6411 38.2332 17.0783 38.2332C14.7787 38.2332 12.906 40.1039 12.906 42.4035C12.906 43.8474 13.6376 45.1689 14.8602 45.9374C15.0213 46.0383 15.0679 46.2479 14.9689 46.409C14.9029 46.5118 14.7923 46.5681 14.6797 46.5681Z" fill="#DBDBDB"/>
<path d="M21.0554 42.4056C21.0554 44.6014 19.2753 46.3815 17.0775 46.3815C14.8817 46.3815 13.1016 44.6014 13.1016 42.4056C13.1016 40.2078 14.8817 38.4277 17.0775 38.4277C19.2753 38.4277 21.0554 40.2078 21.0554 42.4056Z" fill="#848484"/>
<path d="M18.0156 39.5008C17.8362 39.4423 17.7348 39.2492 17.7933 39.0717C17.8498 38.8923 18.041 38.7928 18.2204 38.8513C18.3998 38.9098 18.4973 39.099 18.4427 39.2804C18.3959 39.4247 18.2614 39.5164 18.119 39.5164C18.0819 39.5164 18.0488 39.5105 18.0156 39.5008ZM15.6986 39.2882C15.642 39.1088 15.7376 38.9176 15.917 38.8591C16.0965 38.8006 16.2895 38.8981 16.348 39.0775C16.4066 39.255 16.3071 39.4481 16.1316 39.5066C16.0945 39.5183 16.0574 39.5222 16.0243 39.5222C15.8819 39.5222 15.7473 39.4325 15.6986 39.2882ZM19.5427 40.6047C19.4296 40.4526 19.4628 40.238 19.6149 40.1268C19.767 40.0157 19.9796 40.0469 20.0908 40.199C20.202 40.3511 20.1688 40.5657 20.0167 40.6768C19.9582 40.7198 19.888 40.7431 19.8177 40.7431C19.7124 40.7431 19.6071 40.6944 19.5427 40.6047ZM14.1324 40.6944C13.9803 40.5832 13.9472 40.3706 14.0544 40.2185C14.1675 40.0664 14.3821 40.0313 14.5342 40.1424C14.6863 40.2517 14.7195 40.4662 14.6083 40.6183C14.542 40.712 14.4367 40.7587 14.3333 40.7587C14.2631 40.7587 14.1948 40.7392 14.1324 40.6944ZM20.1298 42.4088V42.3912C20.1278 42.204 20.28 42.0499 20.4692 42.0499C20.6564 42.0499 20.8105 42.2001 20.8124 42.3873V42.397V42.4049C20.8124 42.5921 20.6583 42.7442 20.4711 42.7442C20.2819 42.7442 20.1317 42.594 20.1298 42.4088ZM13.3484 42.4107C13.3484 42.2235 13.5005 42.0694 13.6897 42.0694C13.8789 42.0694 14.031 42.2215 14.031 42.4107C14.031 42.5999 13.8789 42.752 13.6917 42.752C13.5025 42.752 13.3503 42.5999 13.3484 42.4107ZM19.6227 44.6712C19.4706 44.56 19.4374 44.3474 19.5486 44.1953C19.6598 44.0432 19.8704 44.0081 20.0225 44.1192C20.1766 44.2304 20.2098 44.4449 20.1005 44.5971C20.0323 44.6887 19.927 44.7355 19.8236 44.7355C19.7534 44.7355 19.6851 44.716 19.6227 44.6712ZM14.0642 44.601C13.953 44.4488 13.9881 44.2362 14.1402 44.127C14.2924 44.0159 14.5069 44.0471 14.6161 44.1992C14.7253 44.3513 14.6941 44.5659 14.542 44.677C14.4816 44.7199 14.4094 44.7433 14.3411 44.7433C14.2358 44.7433 14.1324 44.6926 14.0642 44.601ZM17.8089 45.7341C17.7484 45.5527 17.8459 45.3635 18.0254 45.3031C18.2048 45.2446 18.3959 45.3421 18.4544 45.5215C18.5129 45.701 18.4154 45.8941 18.2379 45.9506C18.2009 45.9623 18.1677 45.9701 18.1307 45.9701C17.9883 45.9701 17.8537 45.8765 17.8089 45.7341ZM15.9307 45.9545C15.7532 45.896 15.6518 45.7029 15.7122 45.5235C15.7688 45.346 15.9619 45.2465 16.1413 45.307C16.3207 45.3636 16.4183 45.5566 16.3598 45.7361C16.3149 45.8784 16.1803 45.9721 16.036 45.9721C16.0009 45.9721 15.9658 45.9643 15.9307 45.9545Z" fill="#AFAFAF"/>
<path d="M19.8058 42.4033C19.8058 43.9101 18.5848 45.1291 17.08 45.1291C15.5752 45.1291 14.3542 43.9101 14.3542 42.4033C14.3542 40.8985 15.5752 39.6776 17.08 39.6776C18.5848 39.6776 19.8058 40.8985 19.8058 42.4033Z" fill="#AFAFAF"/>
<path d="M18.5187 42.4051C18.5187 43.201 17.8739 43.8458 17.078 43.8458C16.2822 43.8458 15.6375 43.201 15.6375 42.4051C15.6375 41.6093 16.2822 40.9626 17.078 40.9626C17.8739 40.9626 18.5187 41.6093 18.5187 42.4051Z" fill="#D8D8D8"/>
<path d="M108.511 43.0386C108.511 46.8612 105.413 49.9601 101.591 49.9601C97.7663 49.9601 94.6682 46.8612 94.6682 43.0386C94.6682 39.2159 97.7663 36.1168 101.591 36.1168C105.413 36.1168 108.511 39.2159 108.511 43.0386Z" fill="#0C0C0C"/>
<path d="M107.645 43.0383C107.645 46.382 104.934 49.0925 101.592 49.0925C98.2469 49.0925 95.5378 46.382 95.5378 43.0383C95.5378 39.6946 98.2469 36.984 101.592 36.984C104.934 36.984 107.645 39.6946 107.645 43.0383Z" fill="#1E1E1E"/>
<path d="M106.205 43.0391C106.205 45.588 104.139 47.6545 101.59 47.6545C99.0418 47.6545 96.9734 45.588 96.9734 43.0391C96.9734 40.4898 99.0418 38.4234 101.59 38.4234C104.139 38.4234 106.205 40.4898 106.205 43.0391Z" fill="#AFAFAF"/>
<path d="M105.123 41.205C105.017 41.205 104.916 41.1514 104.856 41.0549C104.75 40.8827 104.632 40.7175 104.501 40.5636C104.39 40.4324 104.404 40.2354 104.538 40.1237C104.669 40.0119 104.866 40.0277 104.977 40.159C105.128 40.3379 105.266 40.53 105.39 40.7303C105.479 40.8775 105.432 41.0697 105.286 41.1593C105.234 41.1902 105.177 41.205 105.123 41.205Z" fill="#DBDBDB"/>
<path d="M99.3924 46.8524C99.3358 46.8524 99.2768 46.8369 99.2252 46.8045C97.9225 45.9845 97.1433 44.5768 97.1433 43.0386C97.1433 40.587 99.1392 38.5926 101.59 38.5926C102.19 38.5926 102.772 38.7101 103.32 38.9421C103.48 39.0092 103.554 39.1923 103.485 39.3511C103.419 39.5101 103.237 39.5844 103.077 39.5173C102.605 39.3179 102.106 39.2171 101.59 39.2171C99.4833 39.2171 97.7676 40.9313 97.7676 43.0386C97.7676 44.3607 98.4387 45.571 99.5595 46.2757C99.7045 46.3677 99.7488 46.5604 99.6554 46.7064C99.5964 46.8008 99.4956 46.8524 99.3924 46.8524Z" fill="#DBDBDB"/>
<path d="M105.231 43.0388C105.231 45.0507 103.6 46.6817 101.588 46.6817C99.5766 46.6817 97.9451 45.0507 97.9451 43.0388C97.9451 41.0269 99.5766 39.3958 101.588 39.3958C103.6 39.3958 105.231 41.0269 105.231 43.0388Z" fill="#848484"/>
<path d="M102.445 40.3782C102.279 40.3264 102.188 40.1493 102.243 39.987C102.294 39.8224 102.469 39.7309 102.635 39.7849C102.8 39.837 102.889 40.0119 102.837 40.1764C102.795 40.3097 102.672 40.3928 102.541 40.3928C102.509 40.3928 102.474 40.3886 102.445 40.3782ZM100.323 40.1848C100.271 40.0203 100.358 39.8454 100.523 39.7911C100.688 39.7371 100.866 39.8266 100.918 39.9912C100.972 40.1535 100.881 40.3304 100.718 40.3847C100.686 40.395 100.651 40.3992 100.622 40.3992C100.491 40.3992 100.368 40.3158 100.323 40.1848ZM103.844 41.3899C103.742 41.2505 103.772 41.0547 103.91 40.9528C104.051 40.8509 104.246 40.88 104.347 41.0194C104.45 41.1588 104.418 41.3546 104.278 41.4565C104.223 41.4962 104.159 41.5172 104.095 41.5172C104.001 41.5172 103.905 41.4733 103.844 41.3899ZM98.89 41.4733C98.7494 41.3712 98.7173 41.1755 98.8184 41.0361C98.9196 40.8968 99.1169 40.8654 99.2551 40.9673C99.3957 41.0672 99.4253 41.2629 99.3241 41.4025C99.2649 41.4879 99.1687 41.5315 99.0725 41.5315C99.0084 41.5315 98.9443 41.513 98.89 41.4733ZM104.381 43.043V43.0262C104.381 42.8555 104.519 42.7139 104.692 42.7139C104.865 42.7139 105.005 42.8513 105.008 43.024V43.0324V43.0388C105.008 43.2115 104.867 43.3508 104.695 43.3508C104.522 43.3508 104.384 43.2135 104.381 43.043ZM98.1721 43.045C98.1721 42.8743 98.3103 42.7327 98.4829 42.7327C98.6556 42.7327 98.7962 42.8723 98.7962 43.045C98.7962 43.2176 98.6556 43.3573 98.4854 43.3573C98.3127 43.3573 98.1746 43.2176 98.1721 43.045ZM103.918 45.1162C103.779 45.0143 103.747 44.8184 103.848 44.679C103.952 44.5396 104.144 44.5083 104.285 44.6102C104.426 44.7126 104.455 44.9082 104.357 45.0476C104.292 45.1307 104.199 45.1744 104.103 45.1744C104.038 45.1744 103.974 45.1559 103.918 45.1162ZM98.8258 45.0518C98.7247 44.9124 98.7568 44.7165 98.8949 44.6166C99.0355 44.5145 99.2304 44.5439 99.334 44.6832C99.4327 44.8229 99.4031 45.0185 99.265 45.1204C99.2082 45.1598 99.1441 45.1805 99.0799 45.1805C98.9837 45.1805 98.89 45.1349 98.8258 45.0518ZM102.255 46.0884C102.201 45.9238 102.292 45.7492 102.455 45.6949C102.62 45.6409 102.795 45.7304 102.849 45.8947C102.901 46.0593 102.81 46.2361 102.65 46.2882C102.615 46.2986 102.583 46.305 102.551 46.305C102.42 46.305 102.297 46.2194 102.255 46.0884ZM100.535 46.2902C100.375 46.2381 100.281 46.0612 100.336 45.8967C100.387 45.7346 100.565 45.6429 100.73 45.6969C100.893 45.7492 100.982 45.9261 100.93 46.0906C100.888 46.2216 100.765 46.3067 100.634 46.3067C100.6 46.3067 100.57 46.3008 100.535 46.2902Z" fill="#AFAFAF"/>
<path d="M104.086 43.0382C104.086 44.4175 102.969 45.5354 101.591 45.5354C100.21 45.5354 99.0925 44.4175 99.0925 43.0382C99.0925 41.6592 100.21 40.5413 101.591 40.5413C102.969 40.5413 104.086 41.6592 104.086 43.0382Z" fill="#AFAFAF"/>
<path d="M102.911 43.0386C102.911 43.7677 102.319 44.3586 101.591 44.3586C100.862 44.3586 100.27 43.7677 100.27 43.0386C100.27 42.3092 100.862 41.7183 101.591 41.7183C102.319 41.7183 102.911 42.3092 102.911 43.0386Z" fill="#D8D8D8"/>
<path d="M27.0138 42.6702L24.6317 42.5191C24.6337 42.4813 24.6337 42.4415 24.6337 42.4037C24.6337 42.2924 24.6317 42.181 24.6257 42.0697H26.8905C26.9363 42.2685 26.976 42.4673 27.0138 42.6702Z" fill="#A8A8A8"/>
<path d="M26.8899 42.0706H24.6259C24.451 38.0515 21.1396 34.8474 17.0768 34.8474C13.1889 34.8474 9.98483 37.7871 9.56742 41.5637L8.53979 41.4981C8.60539 41.2914 8.64316 41.0688 8.64316 40.8342V40.4109C8.64316 36.4713 11.8373 33.2752 15.7789 33.2752C17.2259 33.2752 18.6153 33.5474 19.8993 34.0444C19.8953 34.0483 19.8953 34.0543 19.8933 34.0603C19.8854 34.102 19.9072 34.1418 19.947 34.1577C22.1135 35.0163 23.9402 36.4991 25.2282 38.4431C25.2441 38.4669 25.2719 38.4828 25.3017 38.4828H25.3594C26.059 39.5621 26.5838 40.7706 26.8899 42.0706Z" fill="black"/>
<path d="M24.6313 42.518L23.6858 42.4588C23.6858 42.441 23.6858 42.4233 23.6858 42.4055C23.6858 38.7539 20.7271 35.7952 17.0775 35.7952C13.6904 35.7952 10.8995 38.3414 10.5146 41.6239L9.56714 41.5647C9.98559 37.7868 13.1891 34.8478 17.0775 34.8478C21.1396 34.8478 24.4517 38.0532 24.6254 42.0699C24.6313 42.1805 24.6333 42.293 24.6333 42.4055C24.6333 42.443 24.6333 42.4805 24.6313 42.518Z" fill="#080808"/>
<path d="M23.6902 42.4582L22.1198 42.3598C22.0962 39.5967 19.8487 37.365 17.0797 37.365C14.5291 37.365 12.4194 39.2622 12.0868 41.7241L10.5164 41.6238C10.9041 38.3411 13.6947 35.7945 17.0797 35.7945C20.7303 35.7945 23.6902 38.7544 23.6902 42.4051C23.6902 42.4228 23.6902 42.4405 23.6902 42.4582Z" fill="#141414"/>
<path d="M22.1155 42.3595L21.0521 42.2929C20.9933 40.1485 19.2367 38.4271 17.0766 38.4271C15.0889 38.4271 13.4419 39.8861 13.1481 41.7916L12.9523 41.7798C13.2558 39.7745 14.989 38.2332 17.0766 38.2332C17.6406 38.2332 18.187 38.3429 18.7001 38.5603C18.7451 38.5799 18.7902 38.5877 18.8333 38.5877C18.9664 38.5877 19.0937 38.5093 19.1485 38.3801C19.221 38.2058 19.1388 38.006 18.9664 37.9336C18.3672 37.679 17.7327 37.5517 17.0766 37.5517C14.6286 37.5517 12.5959 39.375 12.2688 41.7367L12.0847 41.725C12.4176 39.2633 14.5248 37.3657 17.0766 37.3657C19.8457 37.3657 22.092 39.5982 22.1155 42.3595ZM20.5155 39.1419C20.4371 39.1419 20.3588 39.1674 20.2942 39.2222C20.1512 39.3456 20.1336 39.559 20.257 39.704C20.3999 39.8704 20.5292 40.0506 20.6447 40.2386C20.7074 40.3443 20.821 40.4031 20.9365 40.4031C20.9953 40.4031 21.056 40.3874 21.1108 40.3541C21.2734 40.2543 21.3243 40.0447 21.2264 39.8841C21.0932 39.6668 20.9424 39.4572 20.7759 39.2614C20.7074 39.183 20.6114 39.1419 20.5155 39.1419Z" fill="#737373"/>
<path d="M20.9388 40.4011C20.8235 40.4011 20.7122 40.3444 20.6477 40.237C20.5325 40.0495 20.4016 39.8697 20.259 39.7017C20.1378 39.5591 20.1554 39.3442 20.298 39.2212C20.3625 39.1665 20.4406 39.1391 20.5188 39.1391C20.6145 39.1391 20.7122 39.1801 20.7786 39.2602C20.9447 39.4556 21.0951 39.6646 21.2279 39.8834C21.3276 40.0436 21.2768 40.2546 21.1146 40.3523C21.0599 40.3855 20.9974 40.4011 20.9388 40.4011Z" fill="#909090"/>
<path d="M12.9534 41.7787L12.2722 41.736C12.5982 39.3742 14.6301 37.5501 17.0791 37.5501C17.7351 37.5501 18.3697 37.6781 18.9693 37.9324C19.142 38.0061 19.2235 38.206 19.1498 38.3787C19.0954 38.5087 18.9693 38.5863 18.8354 38.5863C18.7927 38.5863 18.7461 38.5786 18.7034 38.5592C18.1892 38.3418 17.6419 38.2332 17.0791 38.2332C14.991 38.2332 13.2581 39.774 12.9534 41.7787Z" fill="#909090"/>
<path d="M21.0542 42.2918L20.7907 42.2742C20.7419 42.1434 20.6169 42.0498 20.4686 42.0498C20.3359 42.0498 20.2207 42.1259 20.1661 42.2352L19.7991 42.2118C19.7015 40.7967 18.5207 39.6783 17.0782 39.6783C15.7568 39.6783 14.6541 40.621 14.4062 41.8702L13.1492 41.7901C13.4439 39.8851 15.0913 38.4271 17.0782 38.4271C19.237 38.4271 20.9956 40.1467 21.0542 42.2918ZM14.332 40.0784C14.2266 40.0784 14.1231 40.1272 14.0548 40.2189C13.9455 40.3712 13.9787 40.5839 14.1309 40.6952C14.1934 40.7381 14.2617 40.7596 14.332 40.7596C14.4354 40.7596 14.5408 40.7108 14.6072 40.6171C14.7185 40.4649 14.6853 40.2521 14.533 40.1428C14.4725 40.0999 14.4022 40.0784 14.332 40.0784ZM19.8167 40.0608C19.7464 40.0608 19.6742 40.0823 19.6137 40.1272C19.4614 40.2384 19.4302 40.4512 19.5415 40.6054C19.6059 40.6952 19.7113 40.744 19.8167 40.744C19.8869 40.744 19.9572 40.7205 20.0158 40.6776C20.168 40.5663 20.2012 40.3516 20.0899 40.1994C20.0236 40.1096 19.9201 40.0608 19.8167 40.0608ZM16.0223 38.8409C15.9872 38.8409 15.952 38.8468 15.9149 38.8585C15.7354 38.919 15.6417 39.1083 15.6983 39.2879C15.7451 39.4323 15.8798 39.5221 16.0223 39.5221C16.0574 39.5221 16.0926 39.5182 16.1296 39.5065C16.3073 39.4479 16.4049 39.2547 16.3483 39.0771C16.2995 38.9326 16.1667 38.8409 16.0223 38.8409ZM18.1147 38.8351C17.9702 38.8351 17.8395 38.9288 17.7926 39.0732C17.7341 39.2508 17.8336 39.4421 18.0132 39.5006C18.0464 39.5123 18.0815 39.5162 18.1166 39.5162C18.2611 39.5162 18.3957 39.4245 18.4406 39.2801C18.4972 39.1005 18.3996 38.9092 18.2201 38.8526C18.1849 38.8409 18.1498 38.8351 18.1147 38.8351Z" fill="#575757"/>
<path d="M20.789 42.2753L20.165 42.2343C20.2196 42.1251 20.3346 42.049 20.4673 42.049C20.6155 42.049 20.7422 42.1427 20.789 42.2753ZM14.3299 40.758C14.2597 40.758 14.1934 40.7385 14.1309 40.6956C13.9788 40.5844 13.9457 40.3699 14.0529 40.2178C14.1212 40.1261 14.2246 40.0774 14.3299 40.0774C14.4001 40.0774 14.4703 40.0988 14.5307 40.1437C14.6829 40.2509 14.718 40.4655 14.6068 40.6176C14.5405 40.7112 14.4352 40.758 14.3299 40.758ZM19.8139 40.7424C19.7106 40.7424 19.6053 40.6956 19.5409 40.6039C19.4278 40.4518 19.4609 40.2392 19.6131 40.1261C19.6735 40.0813 19.7457 40.0598 19.8139 40.0598C19.9192 40.0598 20.0226 40.1086 20.0889 40.2002C20.2001 40.3524 20.1669 40.5649 20.0148 40.6761C19.9543 40.7209 19.8841 40.7424 19.8139 40.7424ZM16.0227 39.5216C15.8784 39.5216 15.7438 39.4318 15.697 39.2875C15.6404 39.1081 15.736 38.917 15.9154 38.8585C15.9505 38.8468 15.9856 38.8409 16.0227 38.8409C16.165 38.8409 16.2996 38.9326 16.3464 39.0769C16.403 39.2544 16.3055 39.4474 16.128 39.5059C16.0929 39.5176 16.0558 39.5216 16.0227 39.5216ZM18.1172 39.5157C18.0802 39.5157 18.047 39.5118 18.0119 39.5001C17.8325 39.4435 17.733 39.2505 17.7915 39.073C17.8383 38.9287 17.971 38.8351 18.1133 38.8351C18.1484 38.8351 18.1835 38.8409 18.2186 38.8526C18.3981 38.9092 18.4956 39.1003 18.439 39.2797C18.3942 39.424 18.2596 39.5157 18.1172 39.5157Z" fill="#737373"/>
<path d="M19.8001 42.2111L18.4955 42.1294C18.3672 41.4645 17.782 40.9629 17.0802 40.9629C16.4425 40.9629 15.9001 41.377 15.7115 41.9525L14.405 41.8708C14.6539 40.6207 15.7582 39.6778 17.0802 39.6778C18.5208 39.6778 19.7009 40.7957 19.8001 42.2111Z" fill="#737373"/>
<path d="M18.4939 42.1284L15.7097 41.9522C15.8995 41.3772 16.4416 40.9629 17.0786 40.9629C17.7814 40.9629 18.3661 41.4643 18.4939 42.1284Z" fill="#8E8E8E"/>
<path d="M109.831 42.589L108.491 42.5041C108.478 42.3583 108.463 42.2138 108.443 42.0705H109.801C109.806 42.1286 109.811 42.1865 109.814 42.2452C109.821 42.3593 109.829 42.4737 109.831 42.589Z" fill="#A8A8A8"/>
<path d="M109.804 42.0703H108.446C107.974 38.706 105.083 36.117 101.591 36.117C98.2481 36.117 95.4597 38.4863 94.8107 41.6369L93.4402 41.5501C93.6099 40.4389 94.0043 39.4007 94.571 38.4826H94.6284C94.6584 38.4826 94.6858 38.4673 94.7008 38.4421C96.2086 36.0694 98.7848 34.6525 101.591 34.6525C104.394 34.6525 106.973 36.0694 108.481 38.4421C108.495 38.4673 108.523 38.4826 108.553 38.4826H108.61C109.264 39.5427 109.686 40.7627 109.804 42.0703Z" fill="black"/>
<path d="M108.489 42.5039L107.613 42.4484C107.317 39.3819 104.732 36.9849 101.589 36.9849C98.7077 36.9849 96.2966 38.997 95.6845 41.6925L94.8086 41.637C95.4555 38.4866 98.2449 36.1173 101.589 36.1173C105.08 36.1173 107.972 38.7063 108.442 42.0705C108.462 42.2135 108.479 42.3583 108.489 42.5039Z" fill="#080808"/>
<path d="M107.616 42.448L106.156 42.3553C105.825 40.1302 103.906 38.4229 101.59 38.4229C99.4742 38.4229 97.694 39.8449 97.1452 41.7845L95.6853 41.6919C96.2986 38.9965 98.7095 36.9843 101.59 36.9843C104.733 36.9843 107.318 39.3813 107.616 42.448Z" fill="#141414"/>
<path d="M106.155 42.3562L105.155 42.2929C104.811 40.6388 103.344 39.3961 101.59 39.3961C99.9947 39.3961 98.639 40.4213 98.1442 41.8486L97.9611 41.8369C98.4658 40.3169 99.9032 39.2178 101.59 39.2178C102.105 39.2178 102.605 39.3187 103.077 39.5179C103.117 39.5347 103.156 39.5429 103.198 39.5426C103.32 39.5426 103.436 39.4711 103.485 39.3518C103.555 39.193 103.478 39.01 103.32 38.9429C102.773 38.7109 102.189 38.5934 101.59 38.5934C99.5692 38.5934 97.8597 39.9478 97.3204 41.7964L97.1472 41.7852C97.694 39.8457 99.4752 38.4236 101.59 38.4236C103.906 38.4236 105.823 40.1309 106.155 42.3562ZM104.74 40.0498C104.668 40.0498 104.596 40.074 104.537 40.1242C104.406 40.236 104.391 40.433 104.502 40.5643C104.633 40.718 104.752 40.8832 104.856 41.0554C104.915 41.1521 105.017 41.2056 105.123 41.2056C105.178 41.2056 105.235 41.1907 105.286 41.1598C105.432 41.0702 105.479 40.878 105.39 40.7308C105.267 40.5304 105.131 40.3385 104.977 40.1596C104.915 40.0869 104.826 40.0498 104.74 40.0498Z" fill="#737373"/>
<path d="M105.123 41.205C105.017 41.205 104.916 41.1514 104.856 41.0549C104.75 40.8827 104.632 40.7175 104.501 40.5636C104.39 40.4324 104.404 40.2354 104.538 40.1237C104.595 40.0736 104.669 40.0491 104.738 40.0491C104.827 40.0491 104.916 40.0864 104.977 40.159C105.128 40.3379 105.266 40.53 105.39 40.7303C105.479 40.8775 105.432 41.0697 105.286 41.1593C105.234 41.1902 105.177 41.205 105.123 41.205Z" fill="#909090"/>
<path d="M97.9626 41.8361L97.321 41.7955C97.8618 39.9469 99.5701 38.5925 101.591 38.5925C102.19 38.5925 102.773 38.71 103.321 38.9421C103.481 39.0092 103.554 39.1923 103.486 39.3511C103.437 39.4703 103.321 39.5418 103.201 39.5418C103.159 39.5421 103.117 39.5339 103.078 39.5172C102.606 39.3179 102.107 39.2171 101.591 39.2171C99.9019 39.2171 98.4665 40.3161 97.9626 41.8361Z" fill="#909090"/>
<path d="M105.154 42.2923L103.948 42.2158C103.607 41.2411 102.679 40.5417 101.588 40.5417C100.609 40.5417 99.7622 41.1048 99.3525 41.9249L98.1433 41.8481C98.6369 40.421 99.9942 39.3959 101.588 39.3959C103.343 39.3959 104.811 40.6384 105.154 42.2923ZM99.0712 40.9074C98.975 40.9074 98.8787 40.9521 98.817 41.0362C98.7183 41.1756 98.7504 41.3713 98.8886 41.4735C98.9453 41.513 99.007 41.5315 99.0712 41.5315C99.1674 41.5315 99.2637 41.4878 99.3229 41.4024C99.4241 41.263 99.3945 41.0673 99.2538 40.9674C99.1995 40.9269 99.1354 40.9074 99.0712 40.9074ZM104.096 40.8921C104.031 40.8921 103.965 40.9118 103.908 40.9528C103.77 41.0547 103.74 41.2507 103.841 41.3901C103.903 41.4735 103.999 41.5172 104.096 41.5172C104.16 41.5172 104.224 41.4962 104.278 41.4567C104.416 41.3546 104.449 41.1589 104.347 41.0194C104.286 40.936 104.192 40.8921 104.096 40.8921ZM100.621 39.7754C100.589 39.7754 100.554 39.7806 100.522 39.7912C100.357 39.8455 100.271 40.0205 100.322 40.1848C100.367 40.3159 100.49 40.3993 100.621 40.3993C100.651 40.3993 100.685 40.3951 100.717 40.3847C100.88 40.3304 100.969 40.1535 100.917 39.9911C100.875 39.8593 100.752 39.7754 100.621 39.7754ZM102.536 39.7695C102.405 39.7695 102.284 39.8546 102.242 39.9869C102.188 40.1493 102.279 40.3265 102.445 40.3783C102.474 40.3887 102.506 40.3929 102.541 40.3929C102.672 40.3929 102.793 40.3097 102.835 40.1764C102.886 40.0118 102.798 39.8369 102.632 39.785C102.6 39.7744 102.568 39.7695 102.536 39.7695Z" fill="#575757"/>
<path d="M99.0702 41.5318C99.0062 41.5318 98.9421 41.5133 98.8879 41.4737C98.7475 41.3714 98.7155 41.1758 98.8165 41.0364C98.8781 40.9524 98.9742 40.9076 99.0702 40.9076C99.1343 40.9076 99.1983 40.9273 99.255 40.9677C99.393 41.0675 99.425 41.2633 99.324 41.4027C99.2624 41.4882 99.1663 41.5318 99.0702 41.5318ZM104.093 41.5173C103.997 41.5173 103.901 41.4737 103.842 41.3902C103.739 41.2507 103.768 41.0551 103.909 40.9532C103.963 40.912 104.029 40.8923 104.093 40.8923C104.189 40.8923 104.283 40.9364 104.345 41.0197C104.448 41.1591 104.416 41.355 104.276 41.4569C104.221 41.4964 104.157 41.5173 104.093 41.5173ZM100.62 40.3996C100.489 40.3996 100.364 40.3164 100.322 40.185C100.27 40.0207 100.356 39.8458 100.521 39.7916C100.553 39.7808 100.588 39.7759 100.62 39.7759C100.75 39.7759 100.873 39.8594 100.915 39.9914C100.97 40.1538 100.881 40.3306 100.716 40.3848C100.684 40.3954 100.649 40.3996 100.62 40.3996ZM102.539 40.3932C102.507 40.3932 102.472 40.389 102.443 40.3784C102.278 40.3267 102.187 40.1496 102.241 39.9872C102.283 39.8549 102.406 39.7697 102.536 39.7697C102.568 39.7697 102.6 39.7749 102.632 39.7852C102.797 39.8372 102.886 40.0121 102.834 40.1767C102.793 40.3099 102.669 40.3932 102.539 40.3932Z" fill="#737373"/>
<path d="M103.947 42.2162L102.542 42.1272C102.301 41.8757 101.964 41.7188 101.588 41.7188C101.273 41.7188 100.982 41.8295 100.756 42.014L99.3535 41.9252C99.7619 41.1051 100.611 40.5422 101.588 40.5422C102.68 40.5422 103.608 41.2414 103.947 42.2162Z" fill="#737373"/>
<path d="M102.544 42.1267L100.757 42.0135C100.985 41.8288 101.274 41.7183 101.59 41.7183C101.965 41.7183 102.304 41.8752 102.544 42.1267Z" fill="#8E8E8E"/>
<path d="M129.688 34.1785V22.9784L127.295 6.23236C126.784 2.65574 123.721 -2.67029e-05 120.107 -2.67029e-05H49.7112C40.6413 -2.67029e-05 32.0035 3.87431 25.9735 10.6487L16.4585 21.3369L5.78889 25.1733C3.42193 26.024 1.84308 28.2681 1.84308 30.7828V34.0771C0.654359 34.0771 -0.188735 35.2342 0.172593 36.3663L0.787898 38.2924C1.48437 40.4664 3.22816 42.1445 5.42493 42.7564L5.93029 42.8967C7.29443 43.2761 8.64285 42.2505 8.64285 40.8348V40.4109C8.64285 36.4703 11.8372 33.2759 15.7778 33.2759C21.5459 33.2759 26.4055 37.5765 27.1099 43.3002H93.3429V42.8116C93.3429 38.2575 97.0347 34.5655 101.588 34.5655C106.144 34.5655 109.836 38.2575 109.836 42.8116V43.0656H115.148L122.652 42.1379C126.669 41.6412 129.688 38.2272 129.688 34.1785Z" fill="#EAEAEA"/>
<path d="M42.5652 1.94843C42.4202 1.94843 42.2903 1.85103 42.2557 1.70386C42.2146 1.53287 42.3206 1.35972 42.4938 1.32076C44.8919 0.758026 47.3592 0.472326 49.8266 0.472326H55.3739C55.5492 0.472326 55.692 0.613014 55.692 0.790491C55.692 0.965805 55.5492 1.10866 55.3739 1.10866H49.8266C47.409 1.10866 44.9893 1.38787 42.6388 1.93978C42.615 1.94627 42.589 1.94843 42.5652 1.94843Z" fill="white"/>
<path d="M59.1417 1.10934H57.5777C57.4027 1.10934 57.2605 0.96498 57.2605 0.789982C57.2605 0.614984 57.4027 0.470619 57.5777 0.470619H59.1417C59.3189 0.470619 59.4611 0.614984 59.4611 0.789982C59.4611 0.96498 59.3189 1.10934 59.1417 1.10934Z" fill="white"/>
<path d="M4.33711 26.9142C4.24777 26.9142 4.15654 26.8762 4.09382 26.8001C3.97977 26.6671 3.99688 26.4656 4.13183 26.3516C4.70205 25.8707 5.34829 25.4981 6.05346 25.2453L12.2517 23.0177C12.419 22.9569 12.5996 23.0443 12.6604 23.2097C12.7193 23.375 12.6338 23.5575 12.4684 23.6183L6.26824 25.846C5.6372 26.0741 5.05558 26.4067 4.54238 26.84C4.48346 26.8895 4.40934 26.9142 4.33711 26.9142Z" fill="white"/>
<path d="M14.4793 22.8761C14.3487 22.8761 14.2277 22.7955 14.1797 22.6649C14.1202 22.4998 14.2066 22.3154 14.3717 22.2559L15.4433 21.8718C15.6084 21.8123 15.7908 21.8987 15.8504 22.0639C15.9099 22.229 15.8235 22.4114 15.6583 22.471L14.5868 22.8569C14.5522 22.8704 14.5138 22.8761 14.4793 22.8761Z" fill="white"/>
<path d="M17.2904 24.8141L7.73071 27.8378L38.0806 23.4612C39.7099 23.2035 41.0087 21.9607 41.335 20.3418L41.6468 18.7977L17.2904 24.8141Z" fill="white"/>
<path d="M34.0705 9.49991L41.2953 8.87856C42.1064 8.80976 42.7694 9.51243 42.6547 10.3173L41.4642 18.6742C41.2431 20.2276 40.0338 21.4557 38.4846 21.6997L17.2898 24.8127L28.2865 12.4065C29.7711 10.7322 31.8415 9.69174 34.0705 9.49991Z" fill="#338A91"/>
<path d="M41.6044 8.87716L36.0105 9.35879C34.2821 9.50682 32.6788 10.3137 31.53 11.6105L25.2585 18.6889C25.2836 19.4165 25.3127 20.1462 25.3482 20.8759L39.4277 18.8077C40.6266 18.618 41.5648 17.6672 41.7358 16.4642L42.6573 9.9926C42.747 9.3692 42.232 8.82503 41.6044 8.87716Z" fill="#47CFE2"/>
<path d="M38.1658 16.5666L35.95 22.0718L38.482 21.6994C40.0321 21.4559 41.2409 20.2284 41.4614 18.6742L42.0378 14.642L39.901 15.1039C39.1145 15.2724 38.4654 15.8217 38.1658 16.5666Z" fill="#155656"/>
<path d="M18.4031 24.6515L25.2361 23.6476L25.5252 21.1409C25.646 20.1014 24.7451 19.2302 23.7095 19.3866L21.8523 19.6658L19.6782 22.119L18.4031 24.6515Z" fill="#155656"/>
<path d="M21.0808 20.5357L22.0084 19.4893L21.0808 20.5357ZM22.2439 19.2246L28.2845 12.4065L22.2439 19.2246ZM42.6543 10.318C42.6543 10.3034 42.6564 10.2909 42.6585 10.2763C42.6564 10.2909 42.6543 10.3034 42.6543 10.318ZM41.3182 8.87764C41.3474 8.87556 41.3745 8.87557 41.4037 8.87557C41.3745 8.87557 41.3474 8.87556 41.3182 8.87764ZM41.4079 8.87557H41.4058H41.4079Z" fill="#F2F2F2"/>
<path d="M21.0808 20.5357L22.0084 19.4873V19.6415L21.8521 19.6644L21.0808 20.5357ZM22.2439 19.6061V19.2225L28.2847 12.4063C29.7689 10.7325 31.8409 9.69024 34.0691 9.50055L41.2939 8.87938C41.3022 8.8773 41.3106 8.87731 41.3189 8.87731C41.3481 8.87522 41.3752 8.87313 41.4044 8.87313C41.4065 8.87313 41.4086 8.87313 41.4086 8.87313C41.4565 8.87522 41.5044 8.87729 41.5503 8.88146L36.0098 9.35881C34.2818 9.50681 32.6788 10.3135 31.5282 11.61L25.256 18.6868C25.256 18.6993 25.256 18.7118 25.2581 18.7243L23.7469 19.3809C23.7343 19.383 23.7218 19.383 23.7093 19.3851L22.2439 19.6061ZM42.4758 11.2598L42.6572 9.9925C42.6572 9.99041 42.6572 9.98623 42.6572 9.98415C42.6697 10.08 42.6697 10.1759 42.6592 10.276C42.6572 10.2885 42.6551 10.3031 42.6551 10.3177L42.5217 11.239L42.4758 11.2598Z" fill="#85B9BD"/>
<path d="M25.2585 18.7243C25.2585 18.7118 25.2585 18.6993 25.2585 18.6868L31.5305 11.6103C32.679 10.3138 34.284 9.50711 36.0099 9.35912L41.5523 8.88181C42.1317 8.94851 42.5903 9.41123 42.6591 9.98444C42.6591 9.98652 42.657 9.98863 42.657 9.99071L42.4777 11.2601L25.2585 18.7243Z" fill="#91E2EE"/>
<path d="M21.0808 20.5359L21.8524 19.6659L22.0099 19.6423V20.1344L21.0808 20.5359ZM22.2441 20.032V19.6069L23.7106 19.3864C23.7224 19.3844 23.7342 19.3825 23.746 19.3805L22.2441 20.032Z" fill="#739A9A"/>
<path d="M18.2136 23.7722L19.5881 22.2207L19.6381 22.1978L19.0217 23.4223L18.2136 23.7722ZM25.3132 20.1443C25.2466 20.0339 25.1695 19.9319 25.0779 19.8403L25.2966 19.7445C25.3028 19.8777 25.307 20.011 25.3132 20.1443ZM42.174 13.3842L42.3197 12.3658L42.3656 12.345L42.2198 13.3634L42.174 13.3842Z" fill="#85B9BD"/>
<path d="M25.4997 20.6128C25.4622 20.4462 25.3998 20.2879 25.3123 20.1442C25.3081 20.011 25.3019 19.8777 25.2957 19.7444L42.3186 12.3668L42.1728 13.385L25.4997 20.6128Z" fill="#91E2EE"/>
<path d="M19.0222 23.4227L19.6397 22.1996L22.0107 21.1704V22.1264L19.0222 23.4227ZM22.2462 22.0254V21.0695L25.0804 19.8405C25.1694 19.9315 25.2486 20.0344 25.3159 20.1452C25.401 20.2877 25.4643 20.4461 25.5019 20.6123L22.2462 22.0254Z" fill="#739A9A"/>
<path d="M46.4533 4.33421H124.206L124.415 5.99234L46.4533 5.62669C39.4557 5.62669 32.7916 7.32438 28.1394 12.5509C32.7916 7.32438 39.4557 4.33421 46.4533 4.33421Z" fill="white"/>
<path d="M46.4525 4.33421H124.207L124.259 4.7447H46.4525C42.0838 4.7447 37.847 5.91002 34.1478 8.05688C32.0617 9.05366 30.1462 10.4025 28.4763 12.1828C33.1087 7.1847 39.6229 4.33421 46.4525 4.33421Z" fill="#C4C4C4"/>
<path d="M28.477 12.1815C28.3631 12.3033 28.2513 12.4272 28.1394 12.551C28.2513 12.4252 28.3631 12.3033 28.477 12.1815Z" fill="#C4C4C4"/>
<path d="M49.4151 9.41781H121.026C122.231 9.41781 123.254 10.2988 123.43 11.4899L124.93 21.5151C125.151 22.9855 124.013 24.3072 122.526 24.3072H50.915C49.7104 24.3072 48.6871 23.4259 48.5084 22.2348L47.0085 12.2098C46.7883 10.7395 47.9281 9.41781 49.4151 9.41781Z" fill="#EAEAEA"/>
<path d="M47.5708 10.2663C47.4338 10.6039 47.3822 10.982 47.4416 11.372L49.0336 22.015C49.1887 23.0547 50.0829 23.8241 51.1322 23.8241H123.368C123.652 23.8241 123.923 23.7686 124.169 23.6685C123.74 24.0629 123.166 24.3069 122.528 24.3069H50.9177C49.7108 24.3069 48.6899 23.4256 48.5116 22.2344L47.01 12.2093C46.9014 11.4764 47.1289 10.7804 47.5708 10.2663Z" fill="white"/>
<path d="M124.562 22.4241L122.941 11.5803C122.793 10.5897 121.941 9.85682 120.942 9.85682H48.5013C48.2915 9.85682 48.0869 9.89101 47.8953 9.95058C48.3096 9.61857 48.8379 9.4171 49.4155 9.4171H121.027C122.231 9.4171 123.254 10.2984 123.433 11.4894L124.933 21.5146C125.031 22.1703 124.857 22.7962 124.505 23.2888C124.583 23.0177 124.609 22.7248 124.562 22.4241Z" fill="#A5A5A5"/>
<path d="M27.8738 31.1647C27.8738 31.1647 58.7077 27.8381 73.363 27.8381C88.0209 27.8381 126.604 27.8381 126.604 27.8381V30.5201H73.0537L27.8738 31.1647Z" fill="#C4C4C4"/>
<path d="M27.8738 31.1647C27.8738 31.1647 57.8291 28.4684 73.0719 28.4684C85.5619 28.4684 126.604 28.4684 126.604 28.4684V30.5201L27.8738 31.1647Z" fill="white"/>
<path d="M2.52026 33.5287V31.2116C2.52026 31.1984 2.52026 31.1853 2.52026 31.1703C2.53529 29.1273 4.22147 27.4919 6.2644 27.4919H8.96829L5.35748 32.141C4.67775 33.016 3.62998 33.5287 2.52026 33.5287Z" fill="white"/>
<path d="M2.52026 33.5287V31.2116C2.52026 31.1984 2.52026 31.1853 2.52026 31.1703C2.53529 29.1273 4.22147 27.4919 6.2644 27.4919H8.96829L5.35748 32.141C4.67775 33.016 3.62998 33.5287 2.52026 33.5287Z" fill="#C7D7DD"/>
<path d="M3.49399 28.7085C2.89605 29.3583 2.52767 30.221 2.52026 31.1706C2.52026 31.1854 2.52026 31.1984 2.52026 31.2132V33.0996C2.67206 33.2792 2.87384 33.4143 3.10524 33.4809C3.5921 33.4013 4.0549 33.2218 4.46587 32.957C4.58064 32.7719 4.64914 32.5553 4.64914 32.3221V29.9137C4.64914 29.2658 4.1345 28.7363 3.49399 28.7085Z" fill="white"/>
<path d="M6.44922 30.734L7.61948 29.2254H5.092C4.67699 29.2254 4.33862 29.5637 4.33862 29.9806C4.33862 30.3956 4.67699 30.734 5.092 30.734H6.44922Z" fill="#FF8A33"/>
<path d="M6.30452 29.8648H4.93174C4.81439 29.8648 4.71753 29.768 4.71753 29.6487C4.71753 29.5314 4.81439 29.4345 4.93174 29.4345H6.30452C6.42187 29.4345 6.51873 29.5314 6.51873 29.6487C6.51873 29.768 6.42187 29.8648 6.30452 29.8648Z" fill="#FFD469"/>
<path d="M2.51913 33.7055C2.42143 33.7055 2.34253 33.6266 2.34253 33.5289C2.34253 33.4331 2.42143 33.3542 2.51913 33.3542C3.58256 33.3542 4.56521 32.8713 5.21905 32.0334L8.6085 27.6669H6.26368C6.1641 27.6669 6.06264 27.6707 5.96306 27.6801C5.86724 27.6876 5.7827 27.6162 5.77331 27.5185C5.76579 27.4227 5.83718 27.3381 5.93488 27.3287C6.04385 27.3193 6.15471 27.3156 6.26368 27.3156H8.96736C9.035 27.3156 9.09513 27.3531 9.12519 27.4133C9.15525 27.4753 9.14773 27.5467 9.1064 27.5993L5.49524 32.2476C4.77752 33.1738 3.69153 33.7055 2.51913 33.7055Z" fill="#3F3F3F"/>
<path d="M12.5789 34.0574C12.5694 34.0175 12.5352 33.9909 12.4953 33.9909H1.84252C1.24785 33.9909 0.706365 34.2664 0.356781 34.7471C0.00529586 35.2258 -0.091611 35.8262 0.0888811 36.3924L0.704462 38.3189C1.41123 40.5285 3.16866 42.2194 5.40106 42.8407L5.90643 42.9813C6.10592 43.0364 6.30922 43.063 6.50871 43.063C6.98749 43.063 7.45676 42.9072 7.85004 42.6089C8.41052 42.1833 8.72972 41.5374 8.72972 40.8344V40.4107C8.72972 37.7717 10.1889 35.374 12.5353 34.1543C12.5714 34.1353 12.5884 34.0954 12.5789 34.0574Z" fill="#3F3F3F"/>
<path d="M8.72891 39.6644C8.66511 40.2837 8.31422 40.8466 7.74564 41.2294C7.29904 41.5278 6.76799 41.6836 6.22569 41.6836C5.99863 41.6836 5.7697 41.6573 5.54264 41.601L4.97407 41.4602C3.41659 41.0774 2.06551 40.2912 1.06909 39.2254C1.92102 40.9855 3.48601 42.3065 5.40377 42.8413L5.90669 42.9802C6.10747 43.0365 6.31012 43.0646 6.5109 43.0646C6.98753 43.0646 7.45666 42.9089 7.85072 42.6087C8.41179 42.1846 8.7308 41.5372 8.7308 40.8354V40.4113C8.7308 40.1617 8.74393 39.914 8.7702 39.6701C8.75518 39.6682 8.74205 39.6663 8.72891 39.6644Z" fill="#262626"/>
<path d="M129.688 33.9901H19.9791C19.9372 33.9901 19.9005 34.0197 19.8953 34.0606C19.8848 34.1015 19.9084 34.1423 19.9477 34.1578C22.1161 35.0165 23.9414 36.4982 25.2299 38.4432C25.243 38.4679 25.2718 38.4823 25.3006 38.4823H94.627C94.6558 38.4823 94.6846 38.4671 94.7003 38.4419C96.2087 36.0693 98.7831 34.6522 101.588 34.6522C104.393 34.6522 106.97 36.0693 108.478 38.4419C108.494 38.4671 108.52 38.4823 108.551 38.4823H128.489C128.518 38.4823 128.546 38.4665 128.562 38.4411C129.356 37.1603 129.775 35.6864 129.775 34.1784V34.0768C129.775 34.0292 129.735 33.9901 129.688 33.9901Z" fill="#3F3F3F"/>
<path d="M129.689 34.1785C129.689 34.6291 129.649 35.0719 129.579 35.5036H105.409C104.268 34.9048 102.969 34.5655 101.589 34.5655C100.209 34.5655 98.9104 34.9048 97.7688 35.5036H22.5498C21.7616 34.9234 20.9002 34.4416 19.9812 34.0772H129.689V34.1785Z" fill="#4C4C4C"/>
<path d="M34.1022 9.85084C31.9526 10.0345 29.9805 11.0258 28.5488 12.641L18.1935 24.3258L38.4325 21.3519C39.835 21.1307 40.9139 20.035 41.1143 18.6243L42.3059 10.2682C42.3455 9.99066 42.2579 9.71518 42.0659 9.51275C41.8739 9.30823 41.6026 9.20596 41.325 9.22891L34.1022 9.85084ZM17.2898 25.1668C17.1604 25.1668 17.0415 25.0959 16.981 24.9811C16.91 24.8517 16.9288 24.691 17.0269 24.5804L28.0229 12.1736C29.5735 10.4247 31.7105 9.34996 34.0396 9.14961L41.2645 8.52979C41.757 8.48597 42.2349 8.66962 42.5772 9.02858C42.9174 9.38962 43.0718 9.87587 43.0029 10.3684L41.8113 18.7244C41.565 20.442 40.2503 21.7776 38.5369 22.0468L17.342 25.1626C17.3232 25.1647 17.3065 25.1647 17.2898 25.1668Z" fill="#3F3F3F"/>
<path d="M22.1271 24.1028L17.2898 24.8137L22.1271 19.3555V24.1028Z" fill="#3F3F3F"/>
<path d="M37.2092 26.4019C37.2092 27.1942 37.8526 27.8375 38.6448 27.8375C39.4392 27.8375 40.0825 27.1942 40.0825 26.4019C40.0825 25.6097 39.4392 24.9663 38.6448 24.9663C37.8526 24.9663 37.2092 25.6097 37.2092 26.4019Z" fill="#C4C4C4"/>
<path d="M37.085 26.8195H41.7747C42.0058 26.8195 42.1931 26.6322 42.1931 26.4032C42.1931 26.1721 42.0058 25.9848 41.7747 25.9848H37.085C36.856 25.9848 36.6687 26.1721 36.6687 26.4032C36.6687 26.6322 36.856 26.8195 37.085 26.8195Z" fill="#3F3F3F"/>
<path d="M28.3021 42.1269H41.2475L42.1412 32.5827C42.2416 31.4881 42.6602 30.4604 43.353 29.6065L43.3551 29.6044L43.8198 9.41088C43.8281 9.03832 43.6858 8.69089 43.4158 8.43135C43.1479 8.17391 42.7942 8.04205 42.4216 8.06507L33.4761 8.60926C31.1591 8.74949 29.0284 9.77926 27.4775 11.5081L23.0089 16.4937C22.5149 17.0441 22.2449 17.7537 22.2449 18.4904V31.7371C22.5589 31.8941 23.8921 32.6141 25.2421 34.0897C26.6256 35.6009 28.2686 38.2171 28.3021 42.1269ZM41.3542 42.3613H28.1849C28.12 42.3613 28.0677 42.309 28.0677 42.2441C28.0677 38.3511 26.4414 35.7516 25.0768 34.255C23.5949 32.6329 22.0942 31.9234 22.0775 31.9172C22.0356 31.8962 22.0105 31.8564 22.0105 31.8104V18.4904C22.0105 17.6951 22.3035 16.9311 22.8352 16.3367L27.3038 11.3511C28.8945 9.57623 31.0817 8.51926 33.4614 8.37484L42.407 7.83065C42.8402 7.80553 43.2672 7.96252 43.5791 8.26391C43.8909 8.56321 44.0647 8.98392 44.0542 9.41718L43.5895 29.6504C43.5875 29.6755 43.5791 29.7006 43.5623 29.7216L43.5351 29.755C42.8737 30.5713 42.4719 31.5571 42.3735 32.6037L41.4714 42.2546C41.4651 42.3153 41.4149 42.3613 41.3542 42.3613Z" fill="#1C1C1C"/>
<path d="M124.634 7.97195H43.9727C43.908 7.97195 43.8562 7.91967 43.8562 7.85471C43.8562 7.79001 43.908 7.73749 43.9727 7.73749H124.634C124.698 7.73749 124.75 7.79001 124.75 7.85471C124.75 7.91967 124.698 7.97195 124.634 7.97195Z" fill="#1C1C1C"/>
<path d="M123.925 1.08449L126.718 23.9022C126.726 23.9667 126.682 24.0249 126.617 24.0327L126.601 24.0338C126.544 24.0338 126.492 23.9901 126.487 23.9308L123.671 0.933687C123.756 0.983091 123.842 1.03249 123.925 1.08449Z" fill="#1C1C1C"/>
<path d="M126.602 34.1785H129.689V23.9162H126.602V34.1785Z" fill="#EA6157"/>
<path d="M126.6 29.5024H129.635C129.836 29.5024 130.001 29.3392 130.001 29.1374V27.45C130.001 27.2485 129.836 27.085 129.635 27.085H126.6V29.5024Z" fill="#EAEAEA"/>
<path d="M1.84448 34.0767H12.496C11.7876 34.4452 11.1475 34.9295 10.6024 35.5031H0.119873C0.271821 34.713 0.963179 34.0767 1.84448 34.0767Z" fill="#4C4C4C"/>
<path d="M127.736 34.1786H126.602V29.502H127.736V34.1786ZM127.736 27.0847H126.602V23.9162H127.736V27.0847Z" fill="#B6524A"/>
<path d="M127.736 29.5021H126.602V27.0847H127.736V29.5021Z" fill="#B6B6B6"/>
<path d="M129.686 34.3547H126.598C126.501 34.3547 126.423 34.2759 126.423 34.1787V23.9164C126.423 23.8193 126.501 23.7407 126.598 23.7407H129.686C129.783 23.7407 129.862 23.8193 129.862 23.9164C129.862 24.0136 129.783 24.0922 129.686 24.0922H126.776V34.0029H129.686C129.783 34.0029 129.862 34.0815 129.862 34.1787C129.862 34.2759 129.783 34.3547 129.686 34.3547Z" fill="#282828"/>
<path d="M93.3453 43.3H27.1106C27.1034 43.2365 27.0939 43.1733 27.0867 43.1103C27.0939 43.1735 27.1034 43.2363 27.1106 43.3H93.3453V42.8115V43.3ZM93.3453 42.7893C93.3453 42.7857 93.3453 42.7818 93.3453 42.7782C93.3453 42.7818 93.3453 42.7857 93.3453 42.7893ZM93.3453 42.7725C93.3453 42.5952 93.3525 42.4189 93.3645 42.2445C93.3525 42.4192 93.3453 42.595 93.3453 42.7725Z" fill="#A8A8A8"/>
<path d="M93.3448 43.3H27.1101C27.1029 43.2363 27.0933 43.1735 27.0861 43.1103C27.0454 42.8178 26.9927 42.5291 26.9304 42.2445H28.0683C28.0683 42.3094 28.121 42.3619 28.1856 42.3619H41.3559C41.4158 42.3619 41.4661 42.3157 41.4709 42.2558L41.4733 42.2445H93.3639C93.352 42.4189 93.3448 42.5952 93.3448 42.7725C93.3448 42.7744 93.3448 42.7763 93.3448 42.7782C93.3448 42.7818 93.3448 42.7857 93.3448 42.7893C93.3448 42.7965 93.3448 42.8041 93.3448 42.8115V43.3Z" fill="#9A9A9A"/>
<path d="M41.3545 42.3615H28.1855C28.1211 42.3615 28.0671 42.3095 28.0671 42.2451H41.4729L41.4708 42.2555C41.4666 42.3158 41.4168 42.3615 41.3545 42.3615Z" fill="#121212"/>
<path d="M115.153 43.0652H109.837H115.153L122.654 42.1375C122.662 42.1365 122.67 42.1357 122.677 42.1347C122.67 42.1357 122.662 42.1365 122.654 42.1375L115.153 43.0652ZM109.837 42.7889C109.837 42.7856 109.837 42.782 109.837 42.7784C109.837 42.7817 109.837 42.7856 109.837 42.7889ZM109.837 42.7717C109.837 42.7103 109.837 42.6493 109.835 42.5882C109.837 42.649 109.837 42.7103 109.837 42.7717ZM122.688 42.1334C122.693 42.1329 122.696 42.1324 122.701 42.1318C122.696 42.1324 122.693 42.1329 122.688 42.1334ZM122.714 42.13C122.716 42.1298 122.721 42.1293 122.721 42.1288C122.721 42.1293 122.716 42.1298 122.714 42.13ZM122.737 42.127C122.739 42.1267 122.742 42.1262 122.747 42.1257C122.742 42.1262 122.739 42.1267 122.737 42.127ZM122.76 42.1239C122.763 42.1236 122.765 42.1231 122.768 42.1226C122.765 42.1231 122.763 42.1236 122.76 42.1239ZM122.783 42.1208C122.786 42.1205 122.788 42.12 122.791 42.1195C122.788 42.12 122.786 42.1205 122.783 42.1208ZM122.806 42.1177C122.809 42.1172 122.811 42.1167 122.814 42.1164C122.811 42.1167 122.809 42.1172 122.806 42.1177ZM122.83 42.1143C122.83 42.1138 122.832 42.1136 122.835 42.113C122.832 42.1136 122.83 42.1138 122.83 42.1143ZM122.85 42.1107C122.853 42.1105 122.855 42.1102 122.858 42.11C122.855 42.1102 122.853 42.1105 122.85 42.1107ZM122.876 42.1074C122.876 42.1071 122.878 42.1069 122.878 42.1066C122.878 42.1069 122.876 42.1071 122.876 42.1074ZM122.897 42.1038C122.899 42.1035 122.899 42.1035 122.902 42.1035C122.899 42.1035 122.899 42.1035 122.897 42.1038ZM122.92 42.1002C122.922 42.1002 122.922 42.1001 122.922 42.0999C122.922 42.1001 122.922 42.1002 122.92 42.1002Z" fill="#A8A8A8"/>
<path d="M109.831 42.589C109.828 42.4737 109.821 42.3593 109.813 42.2452C109.823 42.3591 109.828 42.4739 109.831 42.589Z" fill="#6F6F6F"/>
<path d="M115.152 43.0651H109.835V42.8112C109.835 42.8036 109.835 42.7963 109.835 42.7888C109.835 42.7856 109.835 42.7817 109.835 42.7784C109.835 42.776 109.835 42.7737 109.835 42.7716C109.835 42.7104 109.833 42.6489 109.833 42.5882C109.83 42.4731 109.825 42.3582 109.817 42.2444H114.823C115.561 42.2444 116.298 42.2006 117.03 42.1131L121.226 41.6122C123.403 41.3523 125.518 40.7089 127.472 39.7123C126.292 40.9517 124.714 41.8175 122.919 42.0998C122.919 42.0998 122.919 42.1001 122.916 42.1001C122.911 42.1011 122.903 42.1022 122.898 42.1032C122.898 42.1035 122.895 42.1035 122.895 42.1037C122.89 42.1045 122.882 42.1055 122.877 42.1066C122.877 42.1066 122.875 42.1069 122.872 42.1074C122.867 42.1082 122.862 42.1089 122.856 42.1097C122.854 42.11 122.851 42.1105 122.849 42.1108C122.843 42.1115 122.838 42.1123 122.833 42.1131C122.83 42.1134 122.828 42.1136 122.825 42.1141C122.823 42.1147 122.817 42.1155 122.809 42.1162C122.807 42.1165 122.807 42.117 122.804 42.1175C122.799 42.118 122.794 42.1188 122.789 42.1194C122.786 42.1199 122.783 42.1204 122.781 42.1207C122.776 42.1214 122.77 42.122 122.768 42.1225C122.763 42.123 122.76 42.1235 122.757 42.1238C122.752 42.1246 122.747 42.1251 122.744 42.1256C122.739 42.1261 122.737 42.1267 122.734 42.1269C122.729 42.1274 122.726 42.1282 122.721 42.1287C122.718 42.1292 122.713 42.1295 122.711 42.13C122.708 42.1306 122.703 42.1311 122.697 42.1316C122.695 42.1321 122.69 42.1329 122.684 42.1331C122.682 42.1337 122.679 42.1342 122.674 42.1345C122.669 42.1355 122.661 42.1365 122.653 42.1373L115.152 43.0651Z" fill="#9A9A9A"/>
<path d="M22.522 24.5102H22.089C21.4514 24.5102 20.9338 23.9946 20.9338 23.357V19.1732C20.9338 18.5356 21.4514 18.0199 22.089 18.0199H22.522C23.1576 18.0199 23.6752 18.5356 23.6752 19.1732V23.357C23.6752 23.9946 23.1576 24.5102 22.522 24.5102Z" fill="#3F3F3F"/>
<path d="M21.8429 18.0467C22.3629 18.1585 22.7534 18.6196 22.7534 19.175V23.3566C22.7534 23.9119 22.3629 24.373 21.8429 24.4849C21.3229 24.373 20.9324 23.9119 20.9324 23.3566V19.175C20.9324 18.6196 21.3229 18.1585 21.8429 18.0467Z" fill="#565656"/>
<path d="M21.762 23.1868H22.938C23.2172 23.1868 23.4453 22.9586 23.4453 22.6794C23.4453 22.3982 23.2172 22.172 22.938 22.172H21.762C21.4808 22.172 21.2546 22.3982 21.2546 22.6794C21.2546 22.9586 21.4808 23.1868 21.762 23.1868Z" fill="#FF8A33"/>
<path d="M69.1853 34.9895H43.6061C43.3947 34.9895 43.2214 34.8163 43.2214 34.6048C43.2214 34.3911 43.3947 34.2179 43.6061 34.2179H69.1853C69.399 34.2179 69.5722 34.3911 69.5722 34.6048C69.5722 34.8163 69.399 34.9895 69.1853 34.9895Z" fill="#676767"/>
</svg>
