<svg width="24" height="25" viewBox="0 0 24 25" fill="none" xmlns="http://www.w3.org/2000/svg">
<path d="M18.0623 11.584C18.5792 11.584 18.9982 11.1649 18.9982 10.6479C18.9982 10.131 18.5792 9.71185 18.0623 9.71185C17.5455 9.71185 17.1265 10.131 17.1265 10.6479C17.1265 11.1649 17.5455 11.584 18.0623 11.584Z" fill="white"/>
<path d="M20.2148 2.69115H18.9982V1.75506C18.9982 1.23806 18.5792 0.81897 18.0623 0.81897C17.5455 0.81897 17.1265 1.23806 17.1265 1.75506V2.69115H12.8682V1.75506C12.8682 1.23806 12.4493 0.81897 11.9324 0.81897C11.4155 0.81897 10.9965 1.23806 10.9965 1.75506V2.69115H6.78508V1.75506C6.78508 1.23806 6.36609 0.81897 5.8492 0.81897C5.33232 0.81897 4.91333 1.23806 4.91333 1.75506V2.69115H3.74349C1.67933 2.69115 0 4.37087 0 6.43552L0 21.0385C0 23.1032 1.67933 24.7829 3.74349 24.7829H10.9029C11.4198 24.7829 11.8388 24.3638 11.8388 23.8468C11.8388 23.3298 11.4198 22.9107 10.9029 22.9107H3.74349C2.71141 22.9107 1.87174 22.0709 1.87174 21.0385V6.43552C1.87174 5.4032 2.71141 4.56334 3.74349 4.56334H4.91333V5.49943C4.91333 6.01643 5.33232 6.43552 5.8492 6.43552C6.36609 6.43552 6.78508 6.01643 6.78508 5.49943V4.56334H10.9965V5.49943C10.9965 6.01643 11.4155 6.43552 11.9324 6.43552C12.4493 6.43552 12.8682 6.01643 12.8682 5.49943V4.56334H17.1265V5.49943C17.1265 6.01643 17.5455 6.43552 18.0623 6.43552C18.5792 6.43552 18.9982 6.01643 18.9982 5.49943V4.56334H20.2148C21.2469 4.56334 22.0866 5.4032 22.0866 6.43552V11.7712C22.0866 12.2882 22.5056 12.7073 23.0225 12.7073C23.5393 12.7073 23.9583 12.2882 23.9583 11.7712V6.43552C23.9583 4.37087 22.279 2.69115 20.2148 2.69115Z" fill="white"/>
<path d="M18.2963 13.4562C15.1742 13.4562 12.6343 15.9967 12.6343 19.1195C12.6343 22.2423 15.1742 24.7829 18.2963 24.7829C21.4184 24.7829 23.9583 22.2423 23.9583 19.1195C23.9583 15.9967 21.4184 13.4562 18.2963 13.4562ZM18.2963 22.9107C16.2064 22.9107 14.506 21.21 14.506 19.1195C14.506 17.0291 16.2064 15.3284 18.2963 15.3284C20.3862 15.3284 22.0866 17.0291 22.0866 19.1195C22.0866 21.21 20.3862 22.9107 18.2963 22.9107Z" fill="white"/>
<path d="M19.6532 18.1835H19.2321V17.2006C19.2321 16.6836 18.8131 16.2645 18.2962 16.2645C17.7793 16.2645 17.3604 16.6836 17.3604 17.2006V19.1195C17.3604 19.6365 17.7793 20.0556 18.2962 20.0556H19.6532C20.1701 20.0556 20.5891 19.6365 20.5891 19.1195C20.5891 18.6025 20.1701 18.1835 19.6532 18.1835Z" fill="white"/>
<path d="M13.9913 11.584C14.5082 11.584 14.9272 11.1649 14.9272 10.6479C14.9272 10.131 14.5082 9.71185 13.9913 9.71185C13.4744 9.71185 13.0554 10.131 13.0554 10.6479C13.0554 11.1649 13.4744 11.584 13.9913 11.584Z" fill="white"/>
<path d="M9.92025 15.656C10.4371 15.656 10.8561 15.2369 10.8561 14.7199C10.8561 14.2029 10.4371 13.7838 9.92025 13.7838C9.40338 13.7838 8.98438 14.2029 8.98438 14.7199C8.98438 15.2369 9.40338 15.656 9.92025 15.656Z" fill="white"/>
<path d="M5.8492 11.584C6.36607 11.584 6.78508 11.1649 6.78508 10.6479C6.78508 10.131 6.36607 9.71185 5.8492 9.71185C5.33233 9.71185 4.91333 10.131 4.91333 10.6479C4.91333 11.1649 5.33233 11.584 5.8492 11.584Z" fill="white"/>
<path d="M5.8492 15.656C6.36607 15.656 6.78508 15.2369 6.78508 14.7199C6.78508 14.2029 6.36607 13.7838 5.8492 13.7838C5.33233 13.7838 4.91333 14.2029 4.91333 14.7199C4.91333 15.2369 5.33233 15.656 5.8492 15.656Z" fill="white"/>
<path d="M5.8492 19.728C6.36607 19.728 6.78508 19.3089 6.78508 18.7919C6.78508 18.2749 6.36607 17.8558 5.8492 17.8558C5.33233 17.8558 4.91333 18.2749 4.91333 18.7919C4.91333 19.3089 5.33233 19.728 5.8492 19.728Z" fill="white"/>
<path d="M9.92025 19.728C10.4371 19.728 10.8561 19.3089 10.8561 18.7919C10.8561 18.2749 10.4371 17.8558 9.92025 17.8558C9.40338 17.8558 8.98438 18.2749 8.98438 18.7919C8.98438 19.3089 9.40338 19.728 9.92025 19.728Z" fill="white"/>
<path d="M9.92025 11.584C10.4371 11.584 10.8561 11.1649 10.8561 10.6479C10.8561 10.131 10.4371 9.71185 9.92025 9.71185C9.40338 9.71185 8.98438 10.131 8.98438 10.6479C8.98438 11.1649 9.40338 11.584 9.92025 11.584Z" fill="white"/>
</svg>
