<svg width="20" height="20" viewBox="0 0 20 20" fill="none" xmlns="http://www.w3.org/2000/svg">
<path d="M15 7.5H12.5V4.725C12.4978 4.13557 12.2627 3.57091 11.8459 3.15411C11.4291 2.73732 10.8644 2.5022 10.275 2.5H4.725C4.13557 2.5022 3.57091 2.73732 3.15411 3.15411C2.73732 3.57091 2.5022 4.13557 2.5 4.725V10.275C2.5022 10.8644 2.73732 11.4291 3.15411 11.8459C3.57091 12.2627 4.13557 12.4978 4.725 12.5H7.5V15C7.5 15.663 7.76339 16.2989 8.23223 16.7678C8.70107 17.2366 9.33696 17.5 10 17.5H15C15.663 17.5 16.2989 17.2366 16.7678 16.7678C17.2366 16.2989 17.5 15.663 17.5 15V10C17.5 9.33696 17.2366 8.70107 16.7678 8.23223C16.2989 7.76339 15.663 7.5 15 7.5ZM7.5 10V10.8333H4.725C4.57692 10.8333 4.43491 10.7745 4.3302 10.6698C4.22549 10.5651 4.16667 10.4231 4.16667 10.275V4.725C4.16667 4.57692 4.22549 4.43491 4.3302 4.3302C4.43491 4.22549 4.57692 4.16667 4.725 4.16667H10.275C10.4231 4.16667 10.5651 4.22549 10.6698 4.3302C10.7745 4.43491 10.8333 4.57692 10.8333 4.725V7.5H10C9.33696 7.5 8.70107 7.76339 8.23223 8.23223C7.76339 8.70107 7.5 9.33696 7.5 10Z" fill="#575482"/>
</svg>
