<svg width="130" height="59" viewBox="0 0 130 59" fill="none" xmlns="http://www.w3.org/2000/svg">
<path d="M106.882 48.5718H121.78C122.407 48.5718 122.915 48.0635 122.915 47.4356V44.3151C122.915 43.6885 122.407 43.1802 121.78 43.1802H106.882C106.255 43.1802 105.747 43.6885 105.747 44.3151V47.4356C105.747 48.0635 106.255 48.5718 106.882 48.5718Z" fill="#1E1E1E"/>
<path d="M105.808 47.789C105.957 48.2429 106.379 48.5718 106.881 48.5718H121.779C122.282 48.5718 122.703 48.2429 122.852 47.789H105.808Z" fill="#0C0C0C"/>
<path d="M122.852 43.9603C122.703 43.5077 122.282 43.1788 121.779 43.1788H106.881C106.379 43.1788 105.957 43.5077 105.808 43.9603H122.852Z" fill="#0C0C0C"/>
<path d="M96.7276 51.638L61.5757 45.4051L61.8351 43.9413L96.9872 50.1742L96.7276 51.638Z" fill="#0C0C0C"/>
<path d="M42.8002 26.0906H43.9351V38.8758H125.374V41.4296H97.8499L84.8915 43.9834H73.872V47.3894H41.8777L39.8679 50.2272H37.0538L20.2882 46.5848L17.687 45.8753L20.861 33.3048L38.5435 29.5115L42.8002 26.0906Z" fill="#1E1E1E"/>
<path d="M38.543 48.8083C38.543 54.0192 34.3189 58.2433 29.108 58.2433C23.8971 58.2433 19.6729 54.0192 19.6729 48.8083C19.6729 43.5974 23.8971 39.3733 29.108 39.3733C34.3189 39.3733 38.543 43.5974 38.543 48.8083Z" fill="#0C0C0C"/>
<path d="M37.3601 48.8083C37.3601 53.3655 33.6652 57.0609 29.1074 57.0609C24.5495 57.0609 20.8545 53.3655 20.8545 48.8083C20.8545 44.2498 24.5495 40.5544 29.1074 40.5544C33.6652 40.5544 37.3601 44.2498 37.3601 48.8083Z" fill="#1E1E1E"/>
<path d="M35.4008 48.8083C35.4008 52.2822 32.5839 55.0997 29.1093 55.0997C25.6345 55.0997 22.8176 52.2822 22.8176 48.8083C22.8176 45.333 25.6345 42.5156 29.1093 42.5156C32.5839 42.5156 35.4008 45.333 35.4008 48.8083Z" fill="#AFAFAF"/>
<path d="M33.9256 46.3076C33.7818 46.3076 33.6416 46.2355 33.5615 46.1037C33.4186 45.8686 33.2558 45.6443 33.0775 45.4336C32.9253 45.2556 32.9469 44.9865 33.1259 44.8343C33.305 44.682 33.5734 44.7038 33.7258 44.8818C33.9332 45.1265 34.1225 45.3874 34.2887 45.6606C34.4109 45.8618 34.3473 46.1241 34.1464 46.2464C34.0772 46.2885 34.0009 46.3076 33.9256 46.3076Z" fill="#DBDBDB"/>
<path d="M26.1107 54.007C26.0332 54.007 25.9548 53.9852 25.8844 53.9418C24.1073 52.8232 23.0464 50.9041 23.0464 48.8083C23.0464 45.4663 25.765 42.748 29.1068 42.748C29.9249 42.748 30.7185 42.907 31.466 43.2237C31.6824 43.3161 31.7838 43.5649 31.6922 43.781C31.6006 43.9984 31.3506 44.099 31.1342 44.0079C30.4925 43.7361 29.8102 43.5988 29.1068 43.5988C26.2345 43.5988 23.8977 45.9352 23.8977 48.8083C23.8977 50.6105 24.8098 52.2605 26.3378 53.2214C26.5367 53.3465 26.5965 53.6088 26.4712 53.8072C26.3905 53.9363 26.2521 54.007 26.1107 54.007Z" fill="#DBDBDB"/>
<path d="M34.0732 48.8083C34.0732 51.5497 31.85 53.7732 29.1074 53.7732C26.3649 53.7732 24.1416 51.5497 24.1416 48.8083C24.1416 46.0656 26.3649 43.8421 29.1074 43.8421C31.85 43.8421 34.0732 46.0656 34.0732 48.8083Z" fill="#848484"/>
<path d="M30.2738 45.1808C30.0496 45.1102 29.9248 44.8696 29.9985 44.6481C30.0694 44.4238 30.308 44.2988 30.5321 44.3722C30.7562 44.4428 30.8781 44.682 30.8072 44.9063C30.7505 45.0871 30.5832 45.2012 30.4043 45.2012C30.3589 45.2012 30.3164 45.1958 30.2738 45.1808ZM27.3823 44.9172C27.3114 44.6929 27.4304 44.4551 27.6547 44.3817C27.8789 44.3069 28.1202 44.4292 28.1938 44.6535C28.2648 44.875 28.1427 45.1156 27.9215 45.1903C27.8761 45.2039 27.8306 45.2094 27.788 45.2094C27.6093 45.2094 27.4418 45.0966 27.3823 44.9172ZM32.1807 46.5603C32.0417 46.3701 32.0813 46.1037 32.2715 45.965C32.4616 45.8251 32.7284 45.8658 32.8676 46.0548C33.0064 46.245 32.9638 46.5114 32.7738 46.6514C32.7 46.7058 32.6121 46.733 32.524 46.733C32.3935 46.733 32.2631 46.6731 32.1807 46.5603ZM25.4271 46.6732C25.2371 46.5345 25.1944 46.2681 25.3307 46.0779C25.4696 45.8876 25.7366 45.8455 25.9266 45.9841C26.1168 46.12 26.1594 46.3877 26.0203 46.578C25.938 46.6935 25.8075 46.7533 25.6769 46.7533C25.589 46.7533 25.5039 46.7275 25.4271 46.6732ZM32.9157 48.8138V48.7907C32.9129 48.5583 33.103 48.3653 33.3384 48.3653C33.5739 48.3653 33.7641 48.5528 33.7669 48.7879V48.7988V48.8083C33.7669 49.0435 33.5768 49.2337 33.3414 49.2337C33.1057 49.2337 32.9184 49.0462 32.9157 48.8138ZM24.4482 48.8165C24.4482 48.5841 24.6382 48.3911 24.8739 48.3911C25.1093 48.3911 25.2996 48.5814 25.2996 48.8165C25.2996 49.0516 25.1093 49.2419 24.8766 49.2419C24.6411 49.2419 24.451 49.0516 24.4482 48.8165ZM32.2829 51.6394C32.0928 51.5007 32.0502 51.2344 32.1893 51.0441C32.3283 50.8538 32.5921 50.8117 32.7822 50.9503C32.9725 51.0889 33.0151 51.3567 32.8787 51.5456C32.7935 51.6598 32.663 51.7196 32.5326 51.7196C32.4446 51.7196 32.3596 51.6937 32.2829 51.6394ZM25.342 51.551C25.203 51.3621 25.2455 51.0944 25.4356 50.9585C25.6258 50.8198 25.8926 50.8593 26.0316 51.0495C26.1677 51.2398 26.128 51.5062 25.938 51.6448C25.8613 51.6992 25.7735 51.7277 25.688 51.7277C25.5548 51.7277 25.4271 51.6652 25.342 51.551ZM30.0156 52.9645C29.9418 52.7403 30.064 52.5024 30.288 52.429C30.5122 52.3543 30.7505 52.4766 30.8244 52.7009C30.8954 52.9251 30.7733 53.1657 30.5518 53.2377C30.5064 53.2513 30.4639 53.2595 30.4186 53.2595C30.2397 53.2595 30.0724 53.1439 30.0156 52.9645ZM27.6717 53.2404C27.4504 53.1684 27.3255 52.9278 27.3993 52.7036C27.4702 52.482 27.7115 52.357 27.9357 52.4317C28.1597 52.5024 28.2818 52.743 28.2081 52.9672C28.1513 53.1466 27.9839 53.2622 27.8051 53.2622C27.7596 53.2622 27.7171 53.254 27.6717 53.2404Z" fill="#AFAFAF"/>
<path d="M32.5118 48.8084C32.5118 50.688 30.9878 52.2116 29.1079 52.2116C27.228 52.2116 25.7041 50.688 25.7041 48.8084C25.7041 46.9273 27.228 45.4038 29.1079 45.4038C30.9878 45.4038 32.5118 46.9273 32.5118 48.8084Z" fill="#AFAFAF"/>
<path d="M30.9093 48.8083C30.9093 49.8019 30.1036 50.6078 29.1097 50.6078C28.1157 50.6078 27.3101 49.8019 27.3101 48.8083C27.3101 47.8135 28.1157 47.0089 29.1097 47.0089C30.1036 47.0089 30.9093 47.8135 30.9093 48.8083Z" fill="#D8D8D8"/>
<path d="M40.9209 49.2419L40.6011 49.1929L40.9209 48.7403V49.2419Z" fill="#CCCCCC"/>
<path d="M40.6005 49.193L38.5435 48.8763C38.5436 48.8532 38.5438 48.8301 38.5438 48.8083C38.5438 43.5975 34.3196 39.3733 29.1087 39.3733C24.8619 39.3733 21.2704 42.1785 20.0869 46.0371L18.5386 45.7992V45.7218C18.5386 39.7471 23.3822 34.9032 29.357 34.9032H35.0317L38.5438 37.0669L40.4593 40.0461L40.9203 43.1326V48.7404L40.6005 49.193Z" fill="#181818"/>
<path d="M38.544 48.8763L37.3612 48.6942C37.3005 44.1887 33.6293 40.5544 29.1093 40.5544C25.4555 40.5544 22.3563 42.9288 21.2705 46.2192L20.0874 46.0371C21.2709 42.1785 24.8624 39.3733 29.1093 39.3733C34.3201 39.3733 38.5443 43.5975 38.5443 48.8083C38.5443 48.8301 38.5441 48.8532 38.544 48.8763Z" fill="#0A0A0A"/>
<path d="M37.3597 48.6942L35.3857 48.3911C35.171 45.1102 32.4422 42.5156 29.1078 42.5156C26.4389 42.5156 24.1583 44.1778 23.2438 46.5236L21.269 46.2192C22.3548 42.9288 25.4541 40.5544 29.1078 40.5544C33.6278 40.5544 37.2991 44.1887 37.3597 48.6942Z" fill="#181818"/>
<path d="M35.386 48.3911L34.0349 48.1831C33.7275 45.7353 31.6389 43.8421 29.1081 43.8421C27.1069 43.8421 25.3822 45.0259 24.5961 46.7316L24.3478 46.6922C25.1602 44.8709 26.9883 43.5988 29.1081 43.5988C29.8114 43.5988 30.4937 43.7361 31.1355 44.0079C31.1896 44.031 31.2458 44.0419 31.301 44.0419C31.467 44.0419 31.6248 43.944 31.6934 43.7809C31.785 43.5648 31.6836 43.3161 31.4672 43.2237C30.7197 42.907 29.9261 42.748 29.1081 42.748C26.5604 42.748 24.3748 44.3273 23.4799 46.559L23.2441 46.5236C24.1586 44.1778 26.4392 42.5156 29.1081 42.5156C32.4425 42.5156 35.1712 45.1101 35.386 48.3911ZM33.4011 44.7323C33.3037 44.7323 33.2057 44.7663 33.1256 44.8342C32.9466 44.9865 32.925 45.2556 33.0772 45.4336C33.2556 45.6443 33.4184 45.8685 33.5612 46.1037C33.6414 46.2355 33.7815 46.3075 33.9253 46.3075C34.0006 46.3075 34.077 46.2885 34.1462 46.2464C34.3471 46.124 34.4107 45.8617 34.2885 45.6606C34.1223 45.3874 33.933 45.1264 33.7256 44.8818C33.6413 44.7839 33.5217 44.7323 33.4011 44.7323Z" fill="#8C8C8C"/>
<path d="M33.9256 46.3076C33.7818 46.3076 33.6416 46.2355 33.5615 46.1037C33.4186 45.8686 33.2558 45.6443 33.0775 45.4336C32.9253 45.2556 32.9469 44.9865 33.1259 44.8343C33.2059 44.7663 33.3039 44.7323 33.4014 44.7323C33.5219 44.7323 33.6415 44.784 33.7258 44.8818C33.9332 45.1265 34.1225 45.3874 34.2887 45.6606C34.4109 45.8618 34.3473 46.1241 34.1464 46.2464C34.0772 46.2885 34.0009 46.3076 33.9256 46.3076Z" fill="#AFAFAF"/>
<path d="M24.3478 46.6922L23.48 46.559C24.3748 44.3273 26.5604 42.748 29.1081 42.748C29.9262 42.748 30.7197 42.907 31.4673 43.2237C31.6836 43.3161 31.785 43.5648 31.6934 43.7809C31.6248 43.944 31.467 44.0419 31.301 44.0419C31.2459 44.0419 31.1896 44.031 31.1355 44.0079C30.4937 43.7361 29.8115 43.5988 29.1081 43.5988C26.9883 43.5988 25.1603 44.8709 24.3478 46.6922Z" fill="#AFAFAF"/>
<path d="M34.034 48.1831L32.3971 47.9317C32.0103 46.476 30.6841 45.4037 29.1072 45.4037C27.8988 45.4037 26.8374 46.0343 26.2334 46.983L24.5952 46.7316C25.3813 45.0259 27.1061 43.8421 29.1072 43.8421C31.638 43.8421 33.7266 45.7353 34.034 48.1831ZM25.676 45.9025C25.5442 45.9025 25.4141 45.9637 25.3304 46.0778C25.194 46.2681 25.2367 46.5345 25.4267 46.6731C25.5035 46.7275 25.5886 46.7533 25.6765 46.7533C25.8071 46.7533 25.9376 46.6935 26.02 46.578C26.159 46.3877 26.1165 46.12 25.9262 45.984C25.8506 45.9283 25.763 45.9025 25.676 45.9025ZM32.5242 45.8821C32.4363 45.8821 32.3475 45.9093 32.2711 45.965C32.081 46.1036 32.0413 46.37 32.1803 46.5603C32.2627 46.6731 32.3932 46.7329 32.5236 46.7329C32.6117 46.7329 32.6997 46.7057 32.7735 46.6514C32.9635 46.5114 33.006 46.245 32.8672 46.0547C32.7839 45.9419 32.6551 45.8821 32.5242 45.8821ZM27.7881 44.3599C27.7438 44.3599 27.6986 44.3667 27.6543 44.3816C27.4301 44.455 27.311 44.6929 27.382 44.9171C27.4415 45.0965 27.6089 45.2094 27.7877 45.2094C27.8302 45.2094 27.8757 45.2039 27.9211 45.1903C28.1424 45.1156 28.2644 44.875 28.1935 44.6535C28.1344 44.4741 27.9675 44.3599 27.7881 44.3599ZM30.4003 44.3517C30.2209 44.3517 30.0552 44.4673 29.9981 44.648C29.9245 44.8696 30.0492 45.1101 30.2735 45.1808C30.316 45.1958 30.3586 45.2012 30.404 45.2012C30.5828 45.2012 30.7501 45.087 30.8068 44.9063C30.8778 44.682 30.7558 44.4428 30.5317 44.3721C30.488 44.3585 30.4438 44.3517 30.4003 44.3517Z" fill="#6A6A6A"/>
<path d="M25.6776 46.7533C25.5896 46.7533 25.5046 46.7275 25.4278 46.6731C25.2378 46.5345 25.1951 46.2681 25.3314 46.0778C25.4151 45.9637 25.5452 45.9025 25.677 45.9025C25.764 45.9025 25.8517 45.9283 25.9273 45.9841C26.1175 46.12 26.1601 46.3877 26.021 46.578C25.9387 46.6935 25.8082 46.7533 25.6776 46.7533ZM32.5247 46.7329C32.3942 46.7329 32.2638 46.6731 32.1814 46.5603C32.0423 46.3701 32.082 46.1037 32.2722 45.965C32.3486 45.9093 32.4373 45.8821 32.5252 45.8821C32.6561 45.8821 32.785 45.9419 32.8683 46.0547C33.0071 46.245 32.9645 46.5114 32.7745 46.6514C32.7007 46.7058 32.6128 46.7329 32.5247 46.7329ZM27.7887 45.2094C27.61 45.2094 27.4425 45.0966 27.383 44.9172C27.3121 44.6929 27.4311 44.4551 27.6554 44.3817C27.6997 44.3667 27.7448 44.3599 27.7891 44.3599C27.9685 44.3599 28.1354 44.4741 28.1945 44.6535C28.2655 44.875 28.1434 45.1156 27.9222 45.1903C27.8768 45.2039 27.8312 45.2094 27.7887 45.2094ZM30.405 45.2012C30.3596 45.2012 30.3171 45.1958 30.2745 45.1808C30.0503 45.1101 29.9255 44.8696 29.9992 44.6481C30.0563 44.4673 30.2219 44.3518 30.4013 44.3518C30.4448 44.3518 30.489 44.3586 30.5328 44.3721C30.7569 44.4428 30.8788 44.682 30.8079 44.9063C30.7512 45.0871 30.5839 45.2012 30.405 45.2012Z" fill="#8C8C8C"/>
<path d="M32.3976 47.9317L30.4727 47.6354C30.1427 47.2508 29.6536 47.0089 29.1078 47.0089C28.7591 47.0089 28.4338 47.1067 28.1581 47.2793L26.2339 46.983C26.8379 46.0344 27.8994 45.4037 29.1078 45.4037C30.6846 45.4037 32.0108 46.4761 32.3976 47.9317Z" fill="#8C8C8C"/>
<path d="M30.4745 47.6354L28.1599 47.2793C28.4355 47.1067 28.7609 47.0088 29.1095 47.0088C29.6554 47.0088 30.1445 47.2508 30.4745 47.6354Z" fill="#ADADAD"/>
<path d="M40.7481 52.024C40.5889 52.024 40.4599 51.8949 40.4599 51.7359V42.979C40.4599 38.4926 36.8232 34.8556 32.3372 34.8556H29.1094V34.0048H32.3372C37.2854 34.0048 41.3112 38.0305 41.3112 42.979L41.0361 51.744C41.0313 51.9003 40.9037 52.024 40.7481 52.024Z" fill="#0C0C0C"/>
<path d="M18.7446 50.8647C18.6285 50.8647 18.5327 50.7749 18.526 50.6581L18.1123 43.4873H18.9635V50.6458C18.9635 50.7668 18.8655 50.8647 18.7446 50.8647Z" fill="#0C0C0C"/>
<path d="M4.63386 40.9329V27.0699C4.63386 23.6027 5.54231 20.1966 7.26853 17.1897L13.8489 5.72909C14.775 4.11543 16.4926 3.12146 18.3524 3.12146H39.9978C41.5453 3.12146 42.8001 4.37606 42.8001 5.92317V34.9025H29.3567C23.3818 34.9025 18.5382 39.7462 18.5382 45.7212V47.3889H6.80274C5.31523 47.3889 3.97149 46.5003 3.38827 45.1334L2.81891 43.7956C2.28449 42.5424 3.08314 41.0632 4.43992 40.9412C4.50383 40.9357 4.56843 40.9329 4.63386 40.9329Z" fill="#EAEAEA"/>
<path d="M42.8002 29.8662V33.7275C42.4213 32.8876 42.0611 32.1509 41.7895 31.6127L30.988 32.0653C27.9304 32.193 24.8952 33.0371 22.2109 34.5063L10.3951 40.9757C9.76502 41.3209 9.10163 41.5968 8.41772 41.8102V40.0148C8.81568 39.8639 9.20357 39.6872 9.5776 39.482L21.3933 33.014C24.322 31.4102 27.5809 30.5037 30.9168 30.3637L42.8002 29.8662Z" fill="#B7B7B7"/>
<path d="M28.3965 29.7657C28.2243 29.7657 28.0726 29.6406 28.0446 29.4653C28.0135 29.271 28.146 29.0888 28.3406 29.0576C28.8666 28.9733 29.4028 28.9067 29.9344 28.8619C30.131 28.8456 30.3035 28.9896 30.3203 29.1867C30.3372 29.3824 30.1918 29.5564 29.9954 29.5727C29.4811 29.6162 28.9622 29.6801 28.4532 29.7616C28.4342 29.7643 28.4151 29.7657 28.3965 29.7657ZM17.2864 34.4112C17.1602 34.4112 17.0379 34.3446 16.9731 34.2263C16.8785 34.0523 16.9418 33.8363 17.1147 33.7411L21.2212 31.4931C22.7248 30.6695 24.3253 30.0226 25.9782 29.5686C26.1684 29.517 26.3645 29.6284 26.4167 29.8187C26.4689 30.0076 26.3571 30.2047 26.167 30.2563C24.5676 30.6953 23.0189 31.3219 21.5639 32.1197L17.4575 34.3677C17.403 34.3976 17.3443 34.4112 17.2864 34.4112Z" fill="white"/>
<path d="M21.3933 33.7234L9.5776 40.1915C9.20357 40.3967 8.81568 40.5734 8.41772 40.7229V41.8102C9.10163 41.5968 9.76502 41.3209 10.3951 40.9757L22.2109 34.5063C24.91 33.0289 27.9136 32.193 30.9881 32.0653L39.5401 31.7065C40.9285 31.6494 42.2168 32.4363 42.7888 33.703L42.8002 33.7275V30.5757L30.9169 31.0731C27.5809 31.2131 24.322 32.1196 21.3933 33.7234Z" fill="white"/>
<path d="M7.12349 40.3967L7.13627 40.394C7.88963 40.2255 8.41602 39.5405 8.41602 38.7685V35.1233C8.41602 34.4683 7.83336 33.9695 7.1852 34.0646C5.10506 34.369 4.6325 35.4006 4.6325 35.4006C4.29543 37.1158 4.27586 38.8786 4.57473 40.6006L4.6325 40.9336L7.12349 40.3967Z" fill="white"/>
<path d="M7.17687 34.0659C6.808 34.1203 6.49214 34.1991 6.21842 34.2888C6.20415 34.3541 6.19531 34.4206 6.19531 34.49V36.9486C6.19531 37.4624 6.61569 37.8823 7.12944 37.8823C7.64318 37.8823 8.06356 37.4624 8.06356 36.9486V34.49C8.06356 34.4302 8.05663 34.3717 8.04576 34.316C7.81661 34.1189 7.50483 34.0183 7.17687 34.0659Z" fill="#FF8A33"/>
<path d="M2.93896 44.0786L3.38829 45.1333C3.97149 46.5005 5.31512 47.3894 6.80254 47.3894H18.538V45.7218C18.538 45.1632 18.5804 44.6141 18.6622 44.0786H2.93896Z" fill="#D3D3D3"/>
<path d="M35.7083 34.9023H36.0717L40.0084 29.9861V6.65521C40.0084 5.29197 38.8994 4.18261 37.536 4.18261H20.7275C18.1282 4.18261 15.743 5.60105 14.5025 7.88599L11.8506 12.7691C9.51099 17.0768 8.27441 21.9461 8.27441 26.8471V41.9075C8.27441 42.6388 8.37045 43.3674 8.56003 44.0725L9.45166 47.3881H9.74555L8.83406 43.9979C8.65082 43.3163 8.55824 42.614 8.55824 41.9075V26.8471C8.55824 21.993 9.78267 17.1706 12.0999 12.9043L14.752 8.0212C15.9425 5.82871 18.2322 4.46685 20.7275 4.46685H37.536C38.7429 4.46685 39.7246 5.44789 39.7246 6.65521V29.8868L35.7083 34.9023Z" fill="#727272"/>
<path d="M38.6387 27.9716V26.8775C38.6387 26.3135 38.182 25.8568 37.6188 25.8568H36.2842C35.2663 25.8568 34.2777 26.198 33.4758 26.8245C33.0603 27.1493 32.7524 27.5829 32.5793 28.0681C32.4188 28.518 32.7553 28.9923 33.2332 28.9923H37.6188C38.182 28.9923 38.6387 28.5357 38.6387 27.9716Z" fill="#B7B7B7"/>
<path d="M10.6865 24.5039V22.8903C10.6865 20.0617 11.3577 17.2743 12.6449 14.7553L15.2555 9.64741C16.4571 7.2969 18.8746 5.81756 21.5146 5.81756H35.6577C36.7808 5.81756 37.6916 6.72845 37.6916 7.85166V13.8759C37.6916 16.3716 36.0765 18.581 33.6977 19.3399L12.7551 26.0147C11.7318 26.3407 10.6865 25.5778 10.6865 24.5039Z" fill="#30A2A5"/>
<path d="M15.9316 20.8753V19.5754C15.9316 17.2962 16.4726 15.0497 17.5097 13.0198L19.6137 8.90361C20.5818 7.00923 22.5298 5.81754 24.6574 5.81754H36.0548C36.96 5.81754 37.6939 6.55173 37.6939 7.45715V12.3116C37.6939 14.3224 36.3922 16.1031 34.4754 16.714L17.5985 22.0931C16.7738 22.3561 15.9316 21.741 15.9316 20.8753Z" fill="#47CFE2"/>
<path d="M12.9102 14.254L13.5505 14.5598C13.7257 14.6427 13.9108 14.6821 14.0934 14.6821C14.5433 14.6821 14.9771 14.4416 15.2056 14.0216L16.054 12.4627C16.2168 12.1623 16.2524 11.8185 16.154 11.4923C16.0555 11.1661 15.8354 10.8983 15.5341 10.7393L14.8794 10.3927L14.8758 10.3914L14.6177 10.897L15.2691 11.2408C15.4349 11.3292 15.5564 11.476 15.6106 11.6554C15.6649 11.8361 15.6453 12.0264 15.5556 12.1909L14.707 13.7511C14.5299 14.076 14.1291 14.2064 13.7944 14.0474L13.1614 13.7457L12.9038 14.2499L12.9102 14.254Z" fill="#155656"/>
<path d="M35.2352 18.5787L33.5713 16.4096C33.5012 16.3199 33.3904 16.2601 33.2673 16.2601H33.2479L25.1608 16.2519C25.0297 16.2533 24.8982 16.3131 24.8143 16.4273L24.8073 16.4368L19.2715 23.9391L21.3134 23.2881L25.3926 17.115L33.0644 17.1068L34.7254 18.8941C34.9015 18.7976 35.072 18.6929 35.2352 18.5787Z" fill="#155656"/>
<path d="M16.6217 23.1984C16.6217 22.6344 16.3781 22.0989 15.9537 21.7292L15.1552 21.032C14.4414 20.4095 13.4943 20.1227 12.555 20.2478L10.8571 20.472C10.748 21.2712 10.6865 22.0785 10.6865 22.8899V24.5032C10.6865 25.5769 11.7314 26.3407 12.755 26.0145L16.6217 24.7818V23.1984Z" fill="#155656"/>
<path d="M5.56567 21.0722H6.28366C6.99032 21.0722 7.6362 20.6729 7.9523 20.0416L15.3867 5.1706C15.5468 4.85008 15.6302 4.4964 15.6302 4.13858V3.89681C14.9056 4.34305 14.2882 4.96613 13.8496 5.73012L7.26912 17.1914C6.56066 18.4252 5.99243 19.728 5.56567 21.0722Z" fill="#30A2A5"/>
<path d="M6.28317 21.3567H5.5651C5.40837 21.3567 5.28125 21.2294 5.28125 21.0731C5.28125 20.9168 5.40837 20.7895 5.5651 20.7895H6.28317C6.88614 20.7895 7.42839 20.4534 7.69799 19.9153L15.1323 5.04356C15.272 4.76414 15.346 4.45151 15.346 4.13889V3.89681C15.346 3.7405 15.473 3.61324 15.6298 3.61324C15.7865 3.61324 15.9136 3.7405 15.9136 3.89681V4.13889C15.9136 4.53866 15.819 4.93981 15.64 5.29808L8.20552 20.1684C7.83922 20.9016 7.10249 21.3567 6.28317 21.3567Z" fill="#081216"/>
<path d="M7.82046 19.0313H6.20188C5.85055 19.0313 5.56567 19.3167 5.56567 19.6688V20.4353C5.56567 20.7873 5.85055 21.0727 6.20188 21.0727H7.82046C8.17179 21.0727 8.45666 20.7873 8.45666 20.4353V19.6688C8.45666 19.3167 8.17179 19.0313 7.82046 19.0313Z" fill="#081216"/>
<path d="M2.48432 23.3642H1.87421C1.03509 23.3642 0.352539 22.6806 0.352539 21.842V17.1924C0.352539 16.9573 0.543087 16.7657 0.778079 16.7657C1.01321 16.7657 1.20376 16.9573 1.20376 17.1924V21.842C1.20376 22.2117 1.50453 22.5121 1.87421 22.5121H2.48432C2.7238 22.5121 2.94656 22.3829 3.06575 22.175L3.67491 21.1135C4.20103 20.1961 5.18476 19.6266 6.24229 19.6266H7.00924C7.24424 19.6266 7.43479 19.8169 7.43479 20.052C7.43479 20.2872 7.24424 20.4774 7.00924 20.4774H6.24229C5.48893 20.4774 4.78817 20.8838 4.41346 21.5376L3.8043 22.599C3.5337 23.0706 3.02797 23.3642 2.48432 23.3642Z" fill="#081216"/>
<path d="M2.37656 13.1246C1.49503 13.1246 0.780273 13.8395 0.780273 14.7202V20.2423H0.792098C2.02632 20.2423 3.02677 19.242 3.02677 18.0079V13.7742C3.02677 13.4154 2.73564 13.1246 2.37656 13.1246Z" fill="#081216"/>
<path d="M0.780272 19.3208V15.7735C0.349431 15.7735 0 16.1228 0 16.5537V18.5393C0 18.9702 0.349431 19.3208 0.780272 19.3208Z" fill="#081216"/>
<path d="M115.262 44.1465C104.747 47.3609 93.5106 47.3609 82.9953 44.1465C82.9608 44.2593 82.9261 44.3735 82.8916 44.4863C93.4744 47.721 104.783 47.721 115.366 44.4863C115.331 44.3735 115.296 44.2593 115.262 44.1465Z" fill="#0C0C0C"/>
<path d="M113.909 44.909C104.236 47.5797 94.0192 47.5797 84.3459 44.909C84.3145 45.0232 84.283 45.1373 84.2515 45.2515C93.9863 47.9385 104.269 47.9385 114.003 45.2515C113.972 45.1373 113.941 45.0232 113.909 44.909Z" fill="#0C0C0C"/>
<path d="M112.835 45.5614C103.84 47.8366 94.4194 47.8366 85.4246 45.5614C85.3957 45.6756 85.3666 45.7897 85.3376 45.9053C94.3893 48.194 103.87 48.194 112.922 45.9053C112.893 45.7897 112.864 45.6756 112.835 45.5614Z" fill="#0C0C0C"/>
<path d="M111.63 46.2151C103.402 48.0907 94.8553 48.0907 86.6272 46.2151C86.6008 46.3306 86.5747 46.4448 86.5483 46.5603C94.8285 48.4482 103.429 48.4482 111.709 46.5603C111.683 46.4448 111.656 46.3306 111.63 46.2151Z" fill="#0C0C0C"/>
<path d="M43.9346 38.8759V39.728H124.523V40.5789H97.8494H97.7664L97.6847 40.5952L84.808 43.1326H73.8715H73.0203V43.9835V46.5372H43.9346V47.3894H73.8715V43.9835H84.891L97.8494 41.4297H125.374V38.8759H43.9346Z" fill="#3A3A3A"/>
<path d="M57.509 42.801H49.3745V48.4767H57.509V42.801Z" fill="#EFEFEF"/>
<path d="M57.509 47.2236H49.3745V48.4767H57.509V47.2236Z" fill="#D8D8D8"/>
<path d="M57.509 43.4874H49.3745V42.801H57.509V43.4874Z" fill="#B2B2B2"/>
<path d="M58.2185 42.801H48.6653V41.9978H58.2185V42.801Z" fill="#3A3A3A"/>
<path d="M51.9038 41.4542H49.48V41.9978H51.9038V41.4542Z" fill="#D3D3D3"/>
<path d="M51.3948 41.4541H49.9878V40.6019H51.3948V41.4541Z" fill="#BCBCBC"/>
<path d="M57.4014 41.4542H54.9775V41.9978H57.4014V41.4542Z" fill="#D3D3D3"/>
<path d="M56.8923 41.4541H55.4854V40.6019H56.8923V41.4541Z" fill="#BCBCBC"/>
<path d="M83.1243 46.0887C82.4125 46.0887 81.8354 45.5111 81.8354 44.7989V41.0518H84.413V44.7989C84.413 45.5111 83.8359 46.0887 83.1243 46.0887Z" fill="#3A3A3A"/>
<path d="M115.134 46.0887C114.422 46.0887 113.845 45.5111 113.845 44.7989V41.0518H116.422V44.7989C116.422 45.5111 115.845 46.0887 115.134 46.0887Z" fill="#3A3A3A"/>
<path d="M107.109 50.2626C107.109 54.6702 103.536 58.2433 99.1284 58.2433C94.7207 58.2433 91.1475 54.6702 91.1475 50.2626C91.1475 45.855 94.7207 42.2818 99.1284 42.2818C103.536 42.2818 107.109 45.855 107.109 50.2626Z" fill="#0C0C0C"/>
<path d="M106.109 50.2626C106.109 54.1171 102.984 57.243 99.1287 57.243C95.2732 57.243 92.1479 54.1171 92.1479 50.2626C92.1479 46.4068 95.2732 43.2808 99.1287 43.2808C102.984 43.2808 106.109 46.4068 106.109 50.2626Z" fill="#1E1E1E"/>
<path d="M104.451 50.2626C104.451 53.201 102.069 55.5836 99.1298 55.5836C96.1905 55.5836 93.8079 53.201 93.8079 50.2626C93.8079 47.3228 96.1905 44.9403 99.1298 44.9403C102.069 44.9403 104.451 47.3228 104.451 50.2626Z" fill="#AFAFAF"/>
<path d="M103.205 48.1478C103.083 48.1478 102.965 48.0866 102.897 47.9752C102.776 47.7768 102.639 47.5851 102.488 47.4084C102.359 47.2576 102.377 47.0292 102.529 46.9015C102.68 46.7724 102.907 46.79 103.036 46.9423C103.212 47.1475 103.372 47.369 103.512 47.6001C103.616 47.77 103.562 47.9915 103.392 48.0948C103.333 48.1301 103.269 48.1478 103.205 48.1478Z" fill="#DBDBDB"/>
<path d="M96.5935 54.6594C96.5279 54.6594 96.4617 54.6417 96.4022 54.605C94.899 53.659 94.0015 52.0363 94.0015 50.2626C94.0015 47.4356 96.3012 45.136 99.1279 45.136C99.8197 45.136 100.491 45.2719 101.123 45.5383C101.306 45.6158 101.392 45.8278 101.315 46.0113C101.237 46.1934 101.026 46.279 100.843 46.2016C100.3 45.9719 99.7228 45.8563 99.1279 45.8563C96.6982 45.8563 94.7217 47.8325 94.7217 50.2626C94.7217 51.7862 95.4932 53.182 96.7855 53.9947C96.9539 54.1008 97.0044 54.3223 96.8987 54.4908C96.8302 54.5996 96.7132 54.6594 96.5935 54.6594Z" fill="#DBDBDB"/>
<path d="M103.328 50.2626C103.328 52.5813 101.447 54.4623 99.1277 54.4623C96.8077 54.4623 94.9272 52.5813 94.9272 50.2626C94.9272 47.9426 96.8077 46.0616 99.1277 46.0616C101.447 46.0616 103.328 47.9426 103.328 50.2626Z" fill="#848484"/>
<path d="M100.117 47.195C99.9272 47.1339 99.8215 46.93 99.884 46.7438C99.9438 46.5535 100.146 46.4475 100.335 46.51C100.525 46.5698 100.628 46.7723 100.568 46.9613C100.52 47.1148 100.378 47.2113 100.227 47.2113C100.189 47.2113 100.153 47.2073 100.117 47.195ZM97.671 46.9708C97.6109 46.7819 97.7117 46.5807 97.9015 46.5182C98.0909 46.4557 98.2951 46.559 98.3573 46.7479C98.4174 46.9354 98.3142 47.1393 98.1269 47.2018C98.0885 47.2141 98.0502 47.2181 98.0141 47.2181C97.863 47.2181 97.7214 47.123 97.671 46.9708ZM101.73 48.3612C101.612 48.1994 101.646 47.9752 101.807 47.8569C101.967 47.7387 102.193 47.7727 102.311 47.933C102.428 48.0948 102.392 48.3204 102.231 48.4373C102.169 48.4835 102.094 48.508 102.02 48.508C101.91 48.508 101.799 48.4577 101.73 48.3612ZM96.0172 48.4577C95.8564 48.3394 95.8204 48.1138 95.9355 47.9534C96.0531 47.7917 96.2788 47.7564 96.4397 47.8732C96.6005 47.9888 96.6364 48.2144 96.5188 48.3747C96.4493 48.474 96.3389 48.5243 96.2284 48.5243C96.1541 48.5243 96.082 48.5025 96.0172 48.4577ZM102.351 50.2666V50.2476C102.349 50.0506 102.51 49.8875 102.709 49.8875C102.908 49.8875 103.069 50.0465 103.072 50.2449V50.2544V50.2626C103.072 50.461 102.911 50.6227 102.711 50.6227C102.512 50.6227 102.354 50.4637 102.351 50.2666ZM95.1892 50.2694C95.1892 50.0723 95.35 49.9092 95.5491 49.9092C95.7484 49.9092 95.9093 50.0696 95.9093 50.2694C95.9093 50.4692 95.7484 50.6295 95.5516 50.6295C95.3523 50.6295 95.1915 50.4692 95.1892 50.2694ZM101.816 52.6573C101.655 52.5405 101.619 52.3135 101.737 52.1531C101.854 51.9927 102.078 51.956 102.239 52.0743C102.399 52.1912 102.436 52.4168 102.32 52.5785C102.248 52.6737 102.138 52.7253 102.027 52.7253C101.953 52.7253 101.881 52.7036 101.816 52.6573ZM95.9452 52.5826C95.8275 52.4222 95.8636 52.1966 96.0245 52.0811C96.1852 51.9642 96.4108 51.9968 96.5283 52.1585C96.6436 52.3189 96.61 52.5445 96.4493 52.6628C96.3844 52.7076 96.3101 52.7321 96.2379 52.7321C96.1252 52.7321 96.0172 52.6791 95.9452 52.5826ZM99.8983 53.7786C99.836 53.5883 99.9391 53.3872 100.129 53.3247C100.318 53.2622 100.52 53.3654 100.582 53.5557C100.642 53.7446 100.539 53.9485 100.352 54.0083C100.314 54.0205 100.278 54.0273 100.239 54.0273C100.088 54.0273 99.9464 53.9295 99.8983 53.7786ZM97.9157 54.011C97.7286 53.9512 97.623 53.7474 97.6854 53.5571C97.7455 53.3709 97.9495 53.2649 98.1391 53.3274C98.3287 53.3872 98.4318 53.5911 98.3694 53.7813C98.3214 53.9322 98.18 54.0301 98.0286 54.0301C97.9902 54.0301 97.9542 54.0233 97.9157 54.011Z" fill="#AFAFAF"/>
<path d="M102.007 50.2626C102.007 51.8528 100.718 53.1412 99.1283 53.1412C97.5381 53.1412 96.249 51.8528 96.249 50.2626C96.249 48.6724 97.5381 47.3826 99.1283 47.3826C100.718 47.3826 102.007 48.6724 102.007 50.2626Z" fill="#AFAFAF"/>
<path d="M100.651 50.2626C100.651 51.1025 99.9699 51.7848 99.1291 51.7848C98.2885 51.7848 97.6069 51.1025 97.6069 50.2626C97.6069 49.4213 98.2885 48.7404 99.1291 48.7404C99.9699 48.7404 100.651 49.4213 100.651 50.2626Z" fill="#D8D8D8"/>
<path d="M124.476 45.8753H125.375V41.4296H124.476V45.8753Z" fill="#0C0C0C"/>
<path d="M46.1774 38.026C45.9662 38.026 45.7944 37.8538 45.7944 37.6423V1.23659C45.7944 1.02515 45.9662 0.852921 46.1774 0.852921H128.764C128.976 0.852921 129.147 1.02515 129.147 1.23659V37.6423C129.147 37.8538 128.976 38.026 128.764 38.026H46.1774Z" fill="white"/>
<path d="M128.296 37.1729H46.6454V1.70201H128.296V37.1729ZM128.765 1.52588e-05H46.1771C45.4955 1.52588e-05 44.9429 0.552357 44.9429 1.234V37.6409C44.9429 38.3225 45.4955 38.8749 46.1771 38.8749H128.765C129.445 38.8749 129.999 38.3225 129.999 37.6409V1.234C129.999 0.552357 129.445 1.52588e-05 128.765 1.52588e-05Z" fill="#DDDDDD"/>
<path d="M89.7516 41.2353L61.9021 39.728H90.1041L89.9523 40.7039L89.7516 41.2353ZM124.524 40.5788H108.603L108.304 39.728H124.524V40.5788Z" fill="#141414"/>
<path d="M125.375 41.4297H116.423V41.0518H113.845V41.4297H108.902L108.603 40.5789H124.524V39.728H108.304L108.113 39.183H90.1888L90.1041 39.728H61.902L46.177 38.8759H125.375V41.4297Z" fill="#262626"/>
<path d="M116.422 42.6787L113.845 42.5387V41.0518H116.422V41.4296H116.422V42.6787Z" fill="#262626"/>
<path d="M125.375 43.1639L124.476 43.1149V41.4296H125.375V43.1639Z" fill="#080808"/>
<path d="M111.47 48.7404L109.896 48.5718H111.411L111.47 48.7404Z" fill="#A8A8A8"/>
<path d="M111.135 47.789H106.718C106.684 47.6857 106.648 47.5824 106.61 47.4805C108.005 47.2943 109.394 47.0551 110.775 46.7656L111.135 47.789Z" fill="#141414"/>
<path d="M111.412 48.5718H109.896L106.853 48.2456C106.813 48.092 106.769 47.9398 106.72 47.789H111.137L111.412 48.5718Z" fill="#080808"/>
<path d="M92.1069 46.4666C90.7422 46.2926 89.3827 46.0684 88.0306 45.7925H88.0308C89.3825 46.0684 90.7425 46.2926 92.1069 46.4666ZM88.9246 46.328H88.924C88.5838 46.2641 88.2429 46.1975 87.9038 46.1282C88.2436 46.1975 88.5839 46.2641 88.9246 46.328ZM92.298 46.1336C90.9115 45.961 89.5311 45.7354 88.1576 45.4554L89.0207 43.1707L96.8807 41.6213L97.85 41.4297H108.902L109.517 43.1789H106.883C106.737 43.1789 106.598 43.2074 106.47 43.2577C106.047 43.4221 105.748 43.834 105.748 44.3151V45.802C104.314 43.6777 101.885 42.2818 99.1293 42.2818C96.2328 42.2818 93.6965 43.8245 92.298 46.1336Z" fill="#A8A8A8"/>
<path d="M106.579 47.1257C106.581 47.1257 106.582 47.1257 106.583 47.1257C106.582 47.1257 106.581 47.1257 106.579 47.1257ZM106.629 47.1189C106.63 47.1189 106.631 47.1189 106.632 47.1189C106.631 47.1189 106.63 47.1189 106.629 47.1189ZM106.678 47.1135C106.679 47.1121 106.68 47.1121 106.681 47.1121C106.68 47.1121 106.679 47.1121 106.678 47.1135ZM107.069 47.0591L107.07 47.0578L107.069 47.0591ZM107.117 47.051C107.118 47.051 107.118 47.051 107.119 47.051C107.119 47.051 107.118 47.051 107.117 47.051ZM107.166 47.0442C107.167 47.0442 107.168 47.0442 107.168 47.0442C107.167 47.0442 107.167 47.0442 107.166 47.0442ZM106.322 46.8023C107.734 46.6188 109.14 46.3823 110.539 46.0901C109.141 46.3823 107.734 46.6188 106.322 46.8023ZM106.151 46.4666H106.151C107.58 46.2844 109.004 46.0466 110.42 45.753C109.004 46.0466 107.581 46.2844 106.151 46.4666ZM105.959 46.1336C105.891 46.0208 105.821 45.9107 105.747 45.8019V44.3151C105.747 43.8339 106.046 43.4221 106.469 43.2577C106.158 43.3813 105.915 43.6396 105.809 43.9603H109.79L110.301 45.4146C108.862 45.7122 107.413 45.9515 105.959 46.1336Z" fill="#141414"/>
<path d="M109.79 43.9603H105.808C105.914 43.6396 106.157 43.3813 106.468 43.2577C106.596 43.2074 106.735 43.1788 106.881 43.1788H109.515L109.79 43.9603Z" fill="#080808"/>
<path d="M92.1069 46.4666C90.7425 46.2926 89.3825 46.0684 88.0308 45.7925L88.1576 45.4554C89.5311 45.7354 90.9116 45.961 92.298 46.1336C92.2318 46.2423 92.1681 46.3538 92.1069 46.4666ZM106.152 46.4666C106.09 46.3538 106.027 46.2423 105.96 46.1336C107.414 45.9515 108.863 45.7123 110.302 45.4146L110.421 45.753C109.005 46.0466 107.581 46.2845 106.152 46.4666Z" fill="#080808"/>
<path d="M106.323 46.8022C106.269 46.6894 106.211 46.5766 106.152 46.4665C107.581 46.2844 109.005 46.0466 110.421 45.753L110.54 46.0901C109.141 46.3823 107.735 46.6188 106.323 46.8022ZM92.0069 46.6568L88.9246 46.3279C88.5839 46.264 88.2436 46.1974 87.9038 46.1281L88.0306 45.7924C89.3827 46.0683 90.7422 46.2926 92.1069 46.4665C92.0726 46.5304 92.0395 46.5929 92.0069 46.6568Z" fill="#080808"/>
<path d="M106.475 47.1393C106.427 47.0251 106.376 46.9137 106.322 46.8023C107.734 46.6188 109.141 46.3823 110.539 46.0901L110.657 46.4271C109.5 46.6704 108.336 46.8756 107.168 47.0442C107.168 47.0442 107.167 47.0442 107.166 47.0442C107.15 47.0469 107.135 47.0496 107.119 47.051C107.118 47.051 107.118 47.051 107.117 47.051C107.102 47.0537 107.085 47.0564 107.07 47.0578L107.069 47.0591C106.94 47.0768 106.811 47.0945 106.681 47.1121C106.68 47.1121 106.679 47.1121 106.678 47.1135C106.663 47.1148 106.648 47.1176 106.632 47.1189C106.631 47.1189 106.63 47.1189 106.629 47.1189C106.613 47.1216 106.599 47.123 106.583 47.1257C106.582 47.1257 106.581 47.1257 106.579 47.1257C106.545 47.1312 106.51 47.1352 106.475 47.1393ZM88.923 46.3279L87.8701 46.2151L87.9029 46.1281C88.242 46.1974 88.5828 46.264 88.923 46.3279Z" fill="#080808"/>
<path d="M89.3748 42.2329L89.7514 41.2353L93.4267 41.4337L89.3748 42.2329Z" fill="#141414"/>
<path d="M106.612 47.4805C106.569 47.3649 106.524 47.2521 106.476 47.1393C106.511 47.1353 106.545 47.1312 106.58 47.1257C106.582 47.1257 106.582 47.1257 106.584 47.1257C106.599 47.123 106.614 47.1217 106.629 47.1189C106.63 47.1189 106.632 47.1189 106.633 47.1189C106.648 47.1176 106.664 47.1149 106.679 47.1135C106.68 47.1121 106.681 47.1122 106.682 47.1122C106.811 47.0945 106.94 47.0768 107.07 47.0591L107.07 47.0578C107.086 47.0564 107.102 47.0537 107.118 47.051C107.119 47.051 107.119 47.051 107.12 47.051C107.136 47.0496 107.151 47.0469 107.167 47.0442C107.168 47.0442 107.168 47.0442 107.169 47.0442C108.337 46.8757 109.501 46.6704 110.658 46.4271L110.777 46.7656C109.395 47.0551 108.006 47.2943 106.612 47.4805Z" fill="#080808"/>
<path d="M89.021 43.1707L89.3749 42.2329L93.4269 41.4337L96.8809 41.6213L89.021 43.1707Z" fill="#262626"/>
<path d="M106.853 48.2456L105.779 48.1301C104.878 45.3181 102.241 43.2808 99.1293 43.2808C96.5451 43.2808 94.2888 44.6861 93.082 46.7724L92.0068 46.6568C92.0395 46.593 92.0726 46.5304 92.1069 46.4666C92.168 46.3537 92.2318 46.2423 92.298 46.1336C93.6965 43.8244 96.2327 42.2818 99.1293 42.2818C101.885 42.2818 104.314 43.6776 105.748 45.8019C105.821 45.9107 105.892 46.0208 105.96 46.1336C106.027 46.2423 106.09 46.3537 106.151 46.4666H106.152C106.211 46.5766 106.269 46.6895 106.323 46.8023C106.377 46.9137 106.428 47.0252 106.476 47.1393C106.524 47.2521 106.569 47.3649 106.612 47.4805C106.65 47.5824 106.686 47.6857 106.72 47.789C106.769 47.9398 106.813 48.0921 106.853 48.2456Z" fill="#080808"/>
<path d="M105.78 48.1301L103.916 47.9317C103.052 46.1607 101.234 44.9402 99.1308 44.9402C97.4335 44.9402 95.922 45.734 94.9475 46.9721L93.0835 46.7723C94.2903 44.6861 96.5465 43.2808 99.1308 43.2808C102.243 43.2808 104.879 45.3181 105.78 48.1301Z" fill="#141414"/>
<path d="M103.916 47.9317L103.549 47.8923C103.578 47.7971 103.568 47.6911 103.512 47.6001C103.372 47.369 103.211 47.1475 103.036 46.9423C102.965 46.858 102.864 46.8145 102.762 46.8145C102.679 46.8145 102.596 46.843 102.529 46.9015C102.377 47.0292 102.359 47.2576 102.488 47.4084C102.597 47.5362 102.699 47.6707 102.792 47.8107L102.521 47.7822C101.756 46.7384 100.522 46.0616 99.1303 46.0616C98.0599 46.0616 97.083 46.4625 96.3413 47.1217L96.0725 47.0918C96.8654 46.3266 97.9439 45.8563 99.1303 45.8563C99.7251 45.8563 100.302 45.9719 100.845 46.2015C100.891 46.2219 100.938 46.2301 100.985 46.2301C101.126 46.2301 101.259 46.1485 101.317 46.0113C101.395 45.8278 101.309 45.6158 101.126 45.5383C100.493 45.2719 99.822 45.136 99.1303 45.136C97.5431 45.136 96.1221 45.8604 95.1811 46.9966L94.947 46.9722C95.9215 45.734 97.433 44.9403 99.1303 44.9403C101.234 44.9403 103.052 46.1608 103.916 47.9317Z" fill="#737373"/>
<path d="M103.549 47.8923L102.792 47.8107C102.699 47.6707 102.597 47.5362 102.488 47.4084C102.359 47.2576 102.377 47.0292 102.529 46.9015C102.596 46.843 102.679 46.8145 102.762 46.8145C102.864 46.8145 102.965 46.858 103.036 46.9423C103.212 47.1475 103.372 47.369 103.512 47.6001C103.568 47.6911 103.578 47.7971 103.549 47.8923Z" fill="#909090"/>
<path d="M96.0721 47.0917L95.1807 46.9966C96.1217 45.8604 97.5427 45.136 99.1299 45.136C99.8217 45.136 100.493 45.2719 101.125 45.5383C101.308 45.6157 101.394 45.8278 101.317 46.0112C101.259 46.1485 101.125 46.23 100.985 46.23C100.938 46.23 100.89 46.2219 100.845 46.2015C100.302 45.9718 99.7247 45.8563 99.1299 45.8563C97.9435 45.8563 96.865 46.3266 96.0721 47.0917Z" fill="#909090"/>
<path d="M102.518 47.7822L99.9776 47.5104C99.7089 47.4275 99.4235 47.3826 99.1278 47.3826C99.045 47.3826 98.9633 47.3867 98.8823 47.3935L96.3389 47.1217C97.0805 46.4625 98.0575 46.0616 99.1278 46.0616C100.52 46.0616 101.754 46.7384 102.518 47.7822ZM98.0118 46.4992C97.9743 46.4992 97.9362 46.5046 97.8989 46.5182C97.7091 46.5807 97.6083 46.7819 97.6684 46.9708C97.7188 47.123 97.8604 47.2182 98.0115 47.2182C98.0476 47.2182 98.0859 47.2141 98.1243 47.2018C98.3116 47.1393 98.4148 46.9355 98.3547 46.7479C98.3048 46.5957 98.1635 46.4992 98.0118 46.4992ZM100.221 46.4924C100.07 46.4924 99.9295 46.5902 99.8814 46.7438C99.8189 46.93 99.9246 47.1339 100.114 47.1951C100.15 47.2073 100.186 47.2114 100.225 47.2114C100.376 47.2114 100.517 47.1149 100.565 46.9613C100.625 46.7724 100.522 46.5699 100.333 46.5101C100.296 46.4978 100.258 46.4924 100.221 46.4924Z" fill="#575757"/>
<path d="M98.0143 47.2181C97.8632 47.2181 97.7216 47.123 97.6711 46.9708C97.6111 46.7819 97.7119 46.5807 97.9016 46.5182C97.939 46.5046 97.9771 46.4992 98.0146 46.4992C98.1663 46.4992 98.3076 46.5957 98.3575 46.7479C98.4176 46.9354 98.3144 47.1393 98.1271 47.2018C98.0886 47.2141 98.0503 47.2181 98.0143 47.2181ZM100.227 47.2113C100.189 47.2113 100.153 47.2073 100.117 47.195C99.9274 47.1339 99.8217 46.93 99.8842 46.7438C99.9323 46.5902 100.072 46.4924 100.224 46.4924C100.261 46.4924 100.298 46.4978 100.336 46.51C100.525 46.5698 100.628 46.7723 100.568 46.9613C100.52 47.1148 100.378 47.2113 100.227 47.2113Z" fill="#737373"/>
<path d="M99.9796 47.5104L98.8843 47.3935C98.9653 47.3867 99.047 47.3826 99.1297 47.3826C99.4255 47.3826 99.7109 47.4275 99.9796 47.5104Z" fill="#737373"/>
<path d="M93.4263 41.4337L89.751 41.2353L89.9517 40.7039L90.1035 39.728H108.304L108.603 40.5788H97.8497H97.7667L97.685 40.5951L93.4263 41.4337Z" fill="#0D0D0D"/>
<path d="M96.8799 41.6213L93.4258 41.4337L97.6845 40.5951L97.7662 40.5788H97.8492H108.602L108.901 41.4296H97.8492L96.8799 41.6213ZM108.303 39.728H90.103L90.1877 39.183H108.112L108.303 39.728Z" fill="#191919"/>
<path d="M108.279 38.8758H89.9812L86.6476 48.7322C86.5971 48.8817 86.6955 49.0393 86.852 49.0611C86.9701 49.076 87.0828 49.0067 87.1216 48.8939L90.3884 39.444H107.872L111.139 48.8939C111.178 49.0067 111.29 49.076 111.408 49.0611C111.565 49.0393 111.663 48.8817 111.613 48.7322L108.279 38.8758Z" fill="#DDDDDD"/>
<path d="M4.63294 41.0749C4.56757 41.0749 4.50872 41.0301 4.49445 40.9635C4.47786 40.8874 4.52666 40.8113 4.60331 40.7949L7.10328 40.2554C7.78325 40.1045 8.27484 39.4793 8.27484 38.7685V35.1233C8.27484 34.8556 8.15823 34.6014 7.95491 34.4247C7.74682 34.2453 7.47024 34.1665 7.19611 34.2059C5.23992 34.4954 4.76627 35.4509 4.76179 35.4604C4.72822 35.5311 4.64408 35.561 4.57341 35.5284C4.50274 35.4957 4.47161 35.4115 4.5041 35.3408C4.52462 35.2959 5.03157 34.2399 7.15465 33.9259C7.51047 33.8729 7.86969 33.9776 8.14029 34.21C8.40613 34.4397 8.55849 34.7727 8.55849 35.1233V38.7685C8.55849 39.6111 7.97352 40.3532 7.16757 40.5326L7.15357 40.5353L4.66298 41.0722L4.63294 41.0749Z" fill="#081216"/>
<path d="M10.6869 24.5399C10.6868 24.5399 10.6868 24.5385 10.6868 24.5385C10.6868 24.5385 10.6868 24.5399 10.6869 24.5399ZM10.6867 24.529C10.6867 24.5276 10.6867 24.5276 10.6867 24.5263C10.6867 24.5276 10.6867 24.5276 10.6867 24.529ZM10.6865 24.5167V24.5154V24.5167Z" fill="#F2F2F2"/>
<path d="M10.7038 24.7383C10.7035 24.7356 10.7031 24.7342 10.7028 24.7315C10.7031 24.7342 10.7035 24.7356 10.7038 24.7383ZM10.7027 24.7301C10.6937 24.6676 10.6884 24.6051 10.6871 24.5399C10.6869 24.5399 10.6869 24.5385 10.6869 24.5385C10.6869 24.5358 10.6868 24.5317 10.6868 24.529C10.6868 24.5276 10.6868 24.5276 10.6868 24.5263C10.6867 24.5235 10.6867 24.5208 10.6867 24.5167V24.5154C10.6867 24.5113 10.6865 24.5072 10.6865 24.5032V23.2922L10.6868 24.5032C10.6868 24.5806 10.6922 24.6567 10.7027 24.7301ZM16.4198 22.334C16.3072 22.1057 16.1498 21.8991 15.9539 21.7292L15.1555 21.032C15.1457 21.0224 15.1356 21.0143 15.1257 21.0061L15.9293 20.5916V20.8757C15.9293 21.4777 16.3357 21.9575 16.8603 22.107L16.4198 22.334Z" fill="#83C7C9"/>
<path d="M16.8626 22.107C16.338 21.9575 15.9316 21.4777 15.9316 20.8757V20.5916L37.6938 9.38428V11.3781L28.2239 16.256L25.1609 16.2519C25.0297 16.2533 24.8983 16.3131 24.8143 16.4273L24.8074 16.4368L22.9287 18.9824L16.8626 22.107ZM24.7924 18.0229L25.3926 17.115L26.5582 17.1136L24.7924 18.0229Z" fill="#91E2EE"/>
<path d="M22.9277 18.9824L24.8064 16.4368L24.8134 16.4273C24.8974 16.3131 25.0288 16.2533 25.16 16.2519L28.223 16.256L26.5573 17.1136L25.3917 17.115L24.7915 18.0229L22.9277 18.9824Z" fill="#739A9A"/>
<path d="M10.8483 25.2031C10.7779 25.0604 10.728 24.9041 10.7035 24.7383C10.7032 24.7356 10.7028 24.7342 10.7026 24.7315C10.7026 24.7315 10.7024 24.7315 10.7024 24.7301C10.692 24.6567 10.6865 24.5806 10.6865 24.5031V23.2922L15.1254 21.0061C15.1353 21.0143 15.1454 21.0224 15.1552 21.0319L15.9537 21.7292C16.1495 21.8991 16.3069 22.1056 16.4196 22.334L10.8483 25.2031Z" fill="#739A9A"/>
<path d="M12.6208 14.8045C12.6223 14.8013 12.6232 14.7998 12.6246 14.7982C12.6234 14.7998 12.6221 14.8029 12.6208 14.8045Z" fill="#F2F2F2"/>
<path d="M10.7825 21.0534C11.0068 18.881 11.6282 16.762 12.621 14.8046C12.6221 14.8032 12.623 14.8005 12.6243 14.7977C12.6314 14.784 12.6386 14.7703 12.6459 14.7553L13.0175 14.0279L12.9045 14.2498L12.9108 14.2539L13.5512 14.5594C13.7264 14.6429 13.9114 14.6827 14.094 14.6827C14.544 14.6827 14.9778 14.4416 15.2063 14.0224L16.0546 12.4623C16.2174 12.1623 16.253 11.8185 16.1547 11.4925C16.0561 11.1665 15.8361 10.898 15.5347 10.7391L14.8801 10.3926L14.8764 10.3912L14.7994 10.5419L15.2565 9.64741C16.4581 7.2969 18.8756 5.81756 21.5157 5.81756H24.6561C22.5285 5.81756 20.5805 7.00925 19.6124 8.90363L17.5084 13.0198C16.6537 14.6923 16.1362 16.5127 15.9804 18.3769L12.275 20.285L10.8584 20.4727C10.8322 20.6644 10.8086 20.8576 10.7882 21.0507L10.7825 21.0534ZM14.0947 14.1156C13.994 14.1156 13.8918 14.0937 13.795 14.0471L13.1622 13.7457L14.6182 10.8966L15.2697 11.2405C15.4356 11.3281 15.5571 11.4761 15.6113 11.6555C15.6655 11.8363 15.646 12.0253 15.5562 12.1911L14.7075 13.7512C14.5818 13.9827 14.3426 14.1156 14.0947 14.1156Z" fill="#83C7C9"/>
<path d="M15.9795 18.377C16.1352 16.5127 16.6527 14.6923 17.5075 13.0198L19.6114 8.90366C20.5796 7.00928 22.5275 5.81759 24.6552 5.81759H35.6578C36.5685 5.81759 37.3394 6.41617 37.5985 7.24214L15.9795 18.377Z" fill="#91E2EE"/>
<path d="M14.0934 14.6821C13.9108 14.6821 13.7257 14.6427 13.5505 14.5598L12.9102 14.254L12.9038 14.2499L13.0169 14.0284L13.1615 13.7457L13.7944 14.0474C13.8912 14.0936 13.9934 14.1154 14.0941 14.1154C14.342 14.1154 14.5811 13.9822 14.707 13.7511L15.5556 12.1909C15.6453 12.0264 15.6649 11.8361 15.6106 11.6554C15.5564 11.476 15.4349 11.3292 15.2691 11.2408L14.6177 10.897L14.7988 10.5423L14.8758 10.3914L14.8794 10.3927L15.5341 10.7393C15.8354 10.8983 16.0555 11.1661 16.154 11.4923C16.2524 11.8185 16.2168 12.1623 16.054 12.4627L15.2056 14.0216C14.9771 14.4416 14.5433 14.6821 14.0934 14.6821Z" fill="#739A9A"/>
<path d="M10.7861 21.051C10.8067 20.858 10.8302 20.665 10.8564 20.472L12.273 20.2844L10.7861 21.051Z" fill="#739A9A"/>
<path d="M21.5155 6.10176C18.9694 6.10176 16.6679 7.51029 15.5091 9.77738L12.8984 14.8849C11.6378 17.3522 10.9713 20.1199 10.9713 22.8903V24.5032C10.9713 24.9243 11.166 25.3069 11.5054 25.5551C11.8448 25.8034 12.2692 25.872 12.6698 25.7444L33.6125 19.0693C35.8829 18.3452 37.4084 16.2577 37.4084 13.8754V7.85179C37.4084 6.88625 36.6234 6.10176 35.6585 6.10176H21.5155ZM12.2684 26.3753C11.879 26.3753 11.4973 26.2519 11.1706 26.0132C10.6832 25.6566 10.4038 25.1067 10.4038 24.5032V22.8903C10.4038 20.0307 11.0916 17.1725 12.393 14.627L15.0037 9.51817C16.2601 7.06043 18.7552 5.53395 21.5155 5.53395H35.6585C36.9364 5.53395 37.976 6.57355 37.976 7.85179V13.8754C37.976 16.506 36.2916 18.8115 33.7848 19.6097L12.8422 26.2848C12.6528 26.3451 12.4596 26.3753 12.2684 26.3753Z" fill="#081216"/>
<path d="M36.3819 29.1241C36.0875 29.1241 35.8467 28.8822 35.8467 28.5886V26.3216C35.8467 26.0267 36.0875 25.7861 36.3819 25.7861C36.6763 25.7861 36.9171 26.0267 36.9171 26.3216V28.5886C36.9171 28.8822 36.6763 29.1241 36.3819 29.1241Z" fill="#081216"/>
<path d="M1.54971 17.997C1.7737 17.997 1.95514 17.8163 1.95514 17.592V14.3478C1.95514 14.1249 1.7737 13.9428 1.54971 13.9428C1.32587 13.9428 1.14429 14.1249 1.14429 14.3478V17.592C1.14429 17.8163 1.32587 17.997 1.54971 17.997Z" fill="#272B2B"/>
<path d="M81.1873 1.17914H78.3329C78.1358 1.17914 77.9761 1.01924 77.9761 0.821475C77.9761 0.625111 78.1358 0.465209 78.3329 0.465209H81.1873C81.3844 0.465209 81.5442 0.625111 81.5442 0.821475C81.5442 1.01924 81.3844 1.17914 81.1873 1.17914Z" fill="white"/>
<path d="M73.4893 1.17914H52.0806C51.8836 1.17914 51.7239 1.01924 51.7239 0.821475C51.7239 0.625111 51.8836 0.465209 52.0806 0.465209H73.4893C73.6863 0.465209 73.8461 0.625111 73.8461 0.821475C73.8461 1.01924 73.6863 1.17914 73.4893 1.17914Z" fill="white"/>
</svg>
