<svg width="48" height="48" viewBox="0 0 48 48" fill="none" xmlns="http://www.w3.org/2000/svg">
<path d="M39.1922 24.822L27.8162 27.87C25.7962 28.412 23.7202 27.212 23.1782 25.192L20.1302 13.816C19.5882 11.796 20.7882 9.72 22.8082 9.178L34.1842 6.13C36.2042 5.588 38.2802 6.788 38.8222 8.808L41.8702 20.184C42.4122 22.204 41.2122 24.28 39.1922 24.822V24.822Z" stroke="white" stroke-width="2.5" stroke-linecap="round" stroke-linejoin="round"/>
<path d="M19.5 42C22.5376 42 25 39.5376 25 36.5C25 33.4624 22.5376 31 19.5 31C16.4624 31 14 33.4624 14 36.5C14 39.5376 16.4624 42 19.5 42Z" stroke="white" stroke-width="2.5" stroke-linecap="round" stroke-linejoin="round"/>
<path d="M4 7.26598L7.332 6.37398C9.466 5.80198 11.66 7.06798 12.232 9.20198" stroke="white" stroke-width="2.5" stroke-linecap="round" stroke-linejoin="round"/>
<path d="M12.2305 9.20203L18.1185 31.174" stroke="white" stroke-width="2.5" stroke-linecap="round" stroke-linejoin="round"/>
<path d="M43.1003 30.22L24.8203 35.1" stroke="white" stroke-width="2.5" stroke-linecap="round" stroke-linejoin="round"/>
</svg>
