<svg width="17" height="16" viewBox="0 0 17 16" fill="none" xmlns="http://www.w3.org/2000/svg">
<path d="M16.9439 5.96725C16.8087 5.55133 16.4501 5.25004 16.018 5.18693L11.6424 4.55111L9.68534 0.589055C9.29914 -0.194602 8.01713 -0.194602 7.63093 0.589055L5.6739 4.55111L1.30843 5.18693C0.876527 5.25004 0.517927 5.55239 0.383802 5.96725C0.248623 6.38316 0.362006 6.83809 0.674905 7.14168L3.83958 10.2181L3.09372 14.5722C3.02041 15.0018 3.1969 15.4372 3.5497 15.6939C3.90374 15.9493 4.37239 15.9827 4.75736 15.7798L8.65769 13.7231L12.5695 15.7798C12.7368 15.8681 12.9202 15.9117 13.1023 15.9117C13.3394 15.9117 13.5765 15.8384 13.7783 15.694C14.1313 15.4362 14.3076 15.002 14.2343 14.5724L13.4885 10.2183L16.6531 7.14185C16.9657 6.83915 17.0791 6.38193 16.9439 5.96725ZM11.4555 8.99552C11.1851 9.25903 11.0602 9.63837 11.1243 10.0107L11.5803 12.6712L9.1891 11.4143C9.02298 11.3261 8.83963 11.2825 8.65629 11.2825C8.47294 11.2825 8.2896 11.3261 8.12348 11.4143L5.74492 12.6679L6.20091 10.0109C6.26507 9.63855 6.14027 9.25814 5.86973 8.9957L3.9403 7.12005L6.59959 6.7328C6.97191 6.67901 7.29395 6.44398 7.46129 6.10612L8.65629 3.68501L9.85128 6.10612C10.0186 6.44521 10.3405 6.67901 10.714 6.7328L13.3837 7.12129L11.4555 8.99552Z" fill="#F2994A"/>
</svg>
