<svg width="17" height="16" viewBox="0 0 17 16" fill="none" xmlns="http://www.w3.org/2000/svg">
<path d="M16.6156 5.95271C16.4805 5.53805 16.1219 5.23659 15.6898 5.17366L11.3131 4.53769L9.35737 0.586003C8.97013 -0.195334 7.69028 -0.195334 7.30304 0.586003L5.34732 4.53769L0.980968 5.17366C0.550133 5.23659 0.191544 5.5391 0.0563694 5.95394C-0.0788048 6.36755 0.0335181 6.82247 0.346229 7.1271L3.51307 10.2138L2.76601 14.5687C2.69271 14.9983 2.86919 15.4337 3.22198 15.6903C3.576 15.9458 4.04462 15.9792 4.42958 15.7763L8.32977 13.7197L12.2414 15.7763C12.4087 15.8645 12.5921 15.9081 12.7742 15.9081C13.0113 15.9081 13.2484 15.8336 13.449 15.6905C13.8019 15.4327 13.9783 14.9985 13.905 14.5689L13.1591 10.2139L16.326 7.12727C16.6387 6.82352 16.7508 6.36755 16.6156 5.95271Z" fill="#F2994A"/>
</svg>
