<svg width="40" height="32" viewBox="0 0 40 32" fill="none" xmlns="http://www.w3.org/2000/svg">
<g clip-path="url(#clip0)">
<path d="M39.2119 30.698V30.778H39.2865C39.3005 30.7783 39.3143 30.7747 39.3265 30.7678C39.3313 30.7644 39.3353 30.7598 39.3379 30.7544C39.3405 30.7491 39.3417 30.7432 39.3415 30.7372C39.3417 30.7314 39.3405 30.7256 39.3379 30.7204C39.3352 30.7152 39.3313 30.7107 39.3265 30.7074C39.3144 30.7002 39.3005 30.6966 39.2865 30.6972H39.2119V30.698ZM39.2873 30.6414C39.3193 30.6395 39.3509 30.6487 39.3769 30.6674C39.3873 30.676 39.3956 30.6868 39.401 30.6991C39.4065 30.7114 39.409 30.7248 39.4083 30.7382C39.4088 30.7498 39.4068 30.7613 39.4024 30.7721C39.3981 30.7828 39.3915 30.7925 39.3831 30.8004C39.3631 30.8178 39.3379 30.8283 39.3115 30.8302L39.4115 30.9442H39.3345L39.2425 30.831H39.2127V30.9442H39.1483V30.6416H39.2883L39.2873 30.6414ZM39.2673 31.0486C39.3011 31.049 39.3345 31.0421 39.3655 31.0286C39.3953 31.0158 39.4225 30.9974 39.4455 30.9744C39.4685 30.9515 39.4869 30.9243 39.4997 30.8944C39.5259 30.831 39.5259 30.7598 39.4997 30.6964C39.4867 30.6666 39.4684 30.6395 39.4455 30.6164C39.4225 30.5935 39.3953 30.5751 39.3655 30.5622C39.3343 30.5495 39.3009 30.5431 39.2673 30.5434C39.233 30.5431 39.1991 30.5495 39.1673 30.5622C39.1368 30.5748 39.109 30.5932 39.0855 30.6164C39.0501 30.6527 39.0262 30.6986 39.0167 30.7484C39.0072 30.7982 39.0125 30.8497 39.0321 30.8964C39.0443 30.9265 39.0624 30.9537 39.0855 30.9764C39.109 30.9996 39.1368 31.018 39.1673 31.0306C39.1989 31.0441 39.2329 31.0509 39.2673 31.0506V31.0486ZM39.2673 30.4706C39.3552 30.4705 39.4396 30.505 39.5023 30.5666C39.5325 30.5962 39.5566 30.6315 39.5731 30.6704C39.5902 30.7104 39.599 30.7534 39.599 30.7969C39.599 30.8404 39.5902 30.8835 39.5731 30.9234C39.5562 30.9622 39.5322 30.9974 39.5023 31.0272C39.4716 31.0567 39.4359 31.0804 39.3969 31.0972C39.3559 31.1146 39.3118 31.1235 39.2673 31.1232C39.2222 31.1236 39.1776 31.1147 39.1361 31.0972C39.0966 31.0808 39.0606 31.057 39.0299 31.0272C39 30.9963 38.9763 30.9599 38.9601 30.92C38.943 30.8801 38.9342 30.837 38.9342 30.7935C38.9342 30.7501 38.943 30.707 38.9601 30.667C38.9766 30.6281 39.0007 30.5928 39.0309 30.5632C39.0612 30.5329 39.0973 30.5091 39.1371 30.4932C39.1786 30.4758 39.2232 30.4669 39.2683 30.4672L39.2673 30.4706ZM8.64329 29.302C8.64329 28.725 9.02129 28.251 9.63909 28.251C10.2295 28.251 10.6279 28.7046 10.6279 29.302C10.6279 29.8994 10.2295 30.353 9.63909 30.353C9.02129 30.353 8.64329 29.879 8.64329 29.302ZM11.3009 29.302V27.66H10.5871V28.06C10.3607 27.7644 10.0173 27.579 9.55029 27.579C8.63029 27.579 7.90829 28.3006 7.90829 29.3028C7.90829 30.305 8.62989 31.0266 9.55029 31.0266C10.0171 31.0266 10.3607 30.841 10.5871 30.5456V30.9442H11.3001V29.302H11.3009ZM35.4193 29.302C35.4193 28.725 35.7973 28.251 36.4153 28.251C37.0063 28.251 37.4041 28.7046 37.4041 29.302C37.4041 29.8994 37.0063 30.353 36.4153 30.353C35.7975 30.353 35.4193 29.879 35.4193 29.302ZM38.0777 29.302V26.342H37.3633V28.06C37.1369 27.7644 36.7935 27.579 36.3265 27.579C35.4065 27.579 34.6845 28.3006 34.6845 29.3028C34.6845 30.305 35.4061 31.0266 36.3265 31.0266C36.7935 31.0266 37.1369 30.841 37.3633 30.5456V30.9442H38.0777V29.302ZM20.1601 28.2172C20.6201 28.2172 20.9155 28.5056 20.9909 29.0134H19.2877C19.3639 28.5394 19.6517 28.2172 20.1603 28.2172H20.1601ZM20.1745 27.5772C19.2125 27.5772 18.5395 28.2772 18.5395 29.301C18.5395 30.3448 19.2395 31.0248 20.2223 31.0248C20.7167 31.0248 21.1695 30.9014 21.5679 30.5648L21.2181 30.0358C20.9429 30.2558 20.5925 30.3792 20.2631 30.3792C19.8031 30.3792 19.3843 30.1662 19.2813 29.5752H21.7187C21.7257 29.4864 21.7329 29.3968 21.7329 29.3008C21.7257 28.2774 21.0929 27.577 20.1741 27.577L20.1745 27.5772ZM28.7921 29.3008C28.7921 28.7238 29.1701 28.2498 29.7879 28.2498C30.3783 28.2498 30.7767 28.7034 30.7767 29.3008C30.7767 29.8982 30.3783 30.3518 29.7879 30.3518C29.1701 30.3518 28.7919 29.8778 28.7919 29.3008H28.7921ZM31.4495 29.3008V27.66H30.7361V28.06C30.5089 27.7644 30.1663 27.579 29.6993 27.579C28.7793 27.579 28.0573 28.3006 28.0573 29.3028C28.0573 30.305 28.7789 31.0266 29.6993 31.0266C30.1663 31.0266 30.5089 30.841 30.7361 30.5456V30.9442H31.4497V29.302L31.4495 29.3008ZM24.7611 29.3008C24.7611 30.2966 25.4543 31.0246 26.5123 31.0246C27.0067 31.0246 27.3361 30.9146 27.6923 30.6332L27.3495 30.0562C27.0815 30.2488 26.8001 30.3518 26.4895 30.3518C25.9197 30.3448 25.5007 29.9328 25.5007 29.3008C25.5007 28.6688 25.9197 28.257 26.4895 28.2498C26.7993 28.2498 27.0807 28.3528 27.3495 28.5454L27.6923 27.9684C27.3355 27.687 27.0061 27.577 26.5123 27.577C25.4543 27.577 24.7611 28.3048 24.7611 29.3008ZM33.9631 27.577C33.5513 27.577 33.2831 27.7696 33.0977 28.058V27.66H32.3903V30.9424H33.1049V29.1024C33.1049 28.5592 33.3383 28.2574 33.8049 28.2574C33.9577 28.2552 34.1094 28.2833 34.2513 28.34L34.4713 27.6672C34.3133 27.605 34.1073 27.5776 33.9627 27.5776L33.9631 27.577ZM14.8299 27.921C14.4865 27.6946 14.0133 27.5776 13.4913 27.5776C12.6597 27.5776 12.1243 27.9762 12.1243 28.6284C12.1243 29.1636 12.5229 29.4938 13.2569 29.5968L13.5941 29.6448C13.9855 29.6998 14.1703 29.8028 14.1703 29.9882C14.1703 30.242 13.9103 30.3868 13.4221 30.3868C12.9277 30.3868 12.5709 30.2288 12.3303 30.0434L11.9949 30.6C12.3863 30.8884 12.8807 31.026 13.4161 31.026C14.3641 31.026 14.9135 30.5796 14.9135 29.9546C14.9135 29.3776 14.4811 29.0758 13.7667 28.9728L13.4303 28.924C13.1213 28.884 12.8737 28.8218 12.8737 28.6018C12.8737 28.3618 13.1071 28.2174 13.4987 28.2174C13.9177 28.2174 14.3233 28.3754 14.5221 28.4988L14.8311 27.9218L14.8299 27.921ZM24.0401 27.5782C23.6283 27.5782 23.3601 27.7708 23.1755 28.0592V27.66H22.4681V30.9424H23.1819V29.1024C23.1819 28.5592 23.4153 28.2574 23.8819 28.2574C24.0347 28.2552 24.1864 28.2833 24.3283 28.34L24.5483 27.6672C24.3903 27.605 24.1843 27.5776 24.0397 27.5776L24.0401 27.5782ZM17.9489 27.66H16.7817V26.6642H16.0601V27.66H15.3943V28.3124H16.0601V29.8098C16.0601 30.5714 16.3557 31.025 17.2001 31.025C17.5099 31.025 17.8667 30.929 18.0931 30.7712L17.8869 30.16C17.6739 30.2834 17.4405 30.3456 17.2549 30.3456C16.8981 30.3456 16.7817 30.1256 16.7817 29.7962V28.313H17.9489V27.66ZM7.27709 30.9432V28.8832C7.27709 28.1074 6.78269 27.5854 5.98569 27.5784C5.56669 27.5714 5.13449 27.7018 4.83189 28.1624C4.60549 27.7984 4.24869 27.5784 3.74709 27.5784C3.39649 27.5784 3.05389 27.6814 2.78569 28.0658V27.66H2.07129V30.9424H2.79129V29.1224C2.79129 28.5526 3.10729 28.2498 3.59529 28.2498C4.06929 28.2498 4.30909 28.5588 4.30909 29.1152V30.942H5.03069V29.122C5.03069 28.5522 5.36009 28.2494 5.83389 28.2494C6.32129 28.2494 6.55389 28.5584 6.55389 29.1148V30.9416L7.27709 30.9432Z" fill="#231F20"/>
<path d="M39.619 20.0244V19.5444H39.4939L39.3493 19.8738L39.2056 19.5444H39.0802V20.0244H39.1689V19.6628L39.3041 19.9748H39.3962L39.5314 19.662V20.0244H39.6194H39.619ZM38.826 20.0244V19.6266H38.986V19.5456H38.5771V19.6266H38.7371V20.0244H38.8251H38.826Z" fill="#F79410"/>
<path d="M25.4114 22.083H14.5942V2.64297H25.4116L25.4114 22.083Z" fill="#FF5F00"/>
<path d="M15.28 12.3627C15.28 8.41934 17.1264 4.90654 20.0016 2.64274C17.8252 0.926636 15.1334 -0.00475313 12.3618 -0.00065794C5.5344 -0.00065794 0 5.53454 0 12.3627C0 19.1909 5.5344 24.7261 12.3618 24.7261C15.1334 24.7303 17.8254 23.7989 20.0018 22.0827C17.1268 19.8193 15.28 16.3063 15.28 12.3627Z" fill="#EB001B"/>
<path d="M40.0048 12.3634C40.0048 19.1916 34.4704 24.7268 27.643 24.7268C24.871 24.7308 22.1788 23.7995 20.002 22.0834C22.878 19.8196 24.7244 16.307 24.7244 12.3634C24.7244 8.41978 22.878 4.90718 20.002 2.64338C22.1787 0.927329 24.8709 -0.00404048 27.6428 -1.75397e-05C34.4702 -1.75397e-05 40.0046 5.53518 40.0046 12.3634" fill="#F79E1B"/>
</g>
<defs>
<clipPath id="clip0">
<rect width="40" height="31.12" fill="white"/>
</clipPath>
</defs>
</svg>
