<svg width="20" height="20" viewBox="0 0 20 20" fill="none" xmlns="http://www.w3.org/2000/svg">
<path d="M13.7711 2.5C15.0327 2.51421 16.2335 3.04828 17.0938 3.97787C17.9541 4.90746 18.3989 6.15142 18.3255 7.38248L18.3244 12.58C18.3989 13.8486 17.9541 15.0925 17.0938 16.0221C16.2335 16.9517 15.0327 17.4858 13.7641 17.5H6.21351C3.57223 17.5 1.66669 15.3654 1.66669 12.6175V7.38248C1.66669 4.63459 3.57223 2.5 6.21351 2.5H13.7711ZM13.757 3.77365H6.21351C4.30235 3.77365 2.93122 5.30963 2.93122 7.38248V12.6175C2.93122 14.6904 4.30235 16.2263 6.21351 16.2263H13.757C14.6728 16.2161 15.5444 15.8284 16.1689 15.1536C16.7933 14.4789 17.1161 13.5759 17.061 12.6175L17.0621 7.34491C17.1161 6.42406 16.7933 5.52111 16.1689 4.84635C15.5444 4.1716 14.6728 3.78393 13.757 3.77365ZM15.0201 7.19864C15.2184 7.44827 15.2 7.80218 14.9902 8.02959L14.9215 8.09379L11.4991 10.853C10.6678 11.5056 9.51926 11.5382 8.65255 10.9479L8.51813 10.8496L5.07274 8.09545C4.79922 7.8768 4.75346 7.47622 4.97053 7.20071C5.16787 6.95026 5.51449 6.88939 5.78138 7.04467L5.85883 7.09776L9.29987 9.84843C9.68567 10.1513 10.2146 10.1746 10.6174 9.92235L10.7153 9.85354L14.1313 7.09942C14.4039 6.87963 14.8018 6.92405 15.0201 7.19864Z" fill="#8785A6"/>
</svg>
