<svg width="24" height="24" viewBox="0 0 24 24" fill="none" xmlns="http://www.w3.org/2000/svg">
<path d="M19.596 12.411L13.908 13.935C12.898 14.206 11.86 13.606 11.589 12.596L10.065 6.908C9.79397 5.898 10.394 4.86 11.404 4.589L17.092 3.065C18.102 2.794 19.14 3.394 19.411 4.404L20.935 10.092C21.206 11.102 20.606 12.14 19.596 12.411V12.411Z" stroke="white" stroke-width="1.6" stroke-linecap="round" stroke-linejoin="round"/>
<path d="M9.75 21C11.2688 21 12.5 19.7688 12.5 18.25C12.5 16.7312 11.2688 15.5 9.75 15.5C8.23122 15.5 7 16.7312 7 18.25C7 19.7688 8.23122 21 9.75 21Z" stroke="white" stroke-width="1.6" stroke-linecap="round" stroke-linejoin="round"/>
<path d="M2 3.63301L3.666 3.18701C4.733 2.90101 5.83 3.53401 6.116 4.60101" stroke="white" stroke-width="1.6" stroke-linecap="round" stroke-linejoin="round"/>
<path d="M6.11597 4.601L9.05997 15.587" stroke="white" stroke-width="1.6" stroke-linecap="round" stroke-linejoin="round"/>
<path d="M21.55 15.11L12.41 17.55" stroke="white" stroke-width="1.6" stroke-linecap="round" stroke-linejoin="round"/>
</svg>
