<svg width="30" height="30" viewBox="0 0 30 30" fill="none" xmlns="http://www.w3.org/2000/svg">
<path d="M24.4951 15.5137L17.3851 17.4187C16.1226 17.7575 14.8251 17.0075 14.4864 15.745L12.5814 8.63499C12.2426 7.37249 12.9926 6.07499 14.2551 5.73624L21.3651 3.83124C22.6276 3.49249 23.9251 4.24249 24.2639 5.50499L26.1689 12.615C26.5076 13.8775 25.7576 15.175 24.4951 15.5137V15.5137Z" stroke="#0F0A4D" stroke-width="1.5" stroke-linecap="round" stroke-linejoin="round"/>
<path d="M12.1875 26.25C14.086 26.25 15.625 24.711 15.625 22.8125C15.625 20.914 14.086 19.375 12.1875 19.375C10.289 19.375 8.75 20.914 8.75 22.8125C8.75 24.711 10.289 26.25 12.1875 26.25Z" stroke="#0F0A4D" stroke-width="1.5" stroke-linecap="round" stroke-linejoin="round"/>
<path d="M2.5 4.54127L4.5825 3.98377C5.91625 3.62627 7.2875 4.41752 7.645 5.75127" stroke="#0F0A4D" stroke-width="1.5" stroke-linecap="round" stroke-linejoin="round"/>
<path d="M7.64502 5.75122L11.325 19.4837" stroke="#0F0A4D" stroke-width="1.5" stroke-linecap="round" stroke-linejoin="round"/>
<path d="M26.9375 18.8875L15.5125 21.9375" stroke="#0F0A4D" stroke-width="1.5" stroke-linecap="round" stroke-linejoin="round"/>
</svg>
