<svg width="30" height="30" viewBox="0 0 30 30" fill="none" xmlns="http://www.w3.org/2000/svg">
<path fill-rule="evenodd" clip-rule="evenodd" d="M26.1578 19.9987V10.0012C26.1578 9.1075 25.6815 8.28249 24.9078 7.83624L16.2503 2.8375C15.4765 2.39125 14.524 2.39125 13.7503 2.8375L5.09277 7.83624C4.31902 8.28249 3.84277 9.10875 3.84277 10.0012V19.9975C3.84277 20.8912 4.31902 21.7162 5.09277 22.1625L13.7503 27.1625C14.524 27.6087 15.4765 27.6087 16.2503 27.1625L24.9078 22.1637C25.6815 21.7175 26.1578 20.8912 26.1578 19.9987V19.9987Z" stroke="#0F0A4D" stroke-width="1.5" stroke-linecap="round" stroke-linejoin="round"/>
<path d="M7.71289 15.7875L11.4629 17.9625" stroke="#0F0A4D" stroke-width="1.5" stroke-linecap="round" stroke-linejoin="round"/>
<path d="M4.17725 8.75128L14.9997 15L25.8222 8.75128" stroke="#0F0A4D" stroke-width="1.5" stroke-linecap="round" stroke-linejoin="round"/>
<path d="M15 27.5V15" stroke="#0F0A4D" stroke-width="1.5" stroke-linecap="round" stroke-linejoin="round"/>
<path d="M9.5874 11.875L20.7499 5.4375" stroke="#0F0A4D" stroke-width="1.5" stroke-linecap="round" stroke-linejoin="round"/>
</svg>
