<svg width="48" height="48" viewBox="0 0 48 48" fill="none" xmlns="http://www.w3.org/2000/svg">
<path d="M24 6V16" stroke="white" stroke-width="2.5" stroke-linecap="round" stroke-linejoin="round"/>
<path d="M14 34H18" stroke="white" stroke-width="2.5" stroke-linecap="round" stroke-linejoin="round"/>
<path d="M42 20C42 17.7909 40.2091 16 38 16H10V16C7.79086 16 6 17.7909 6 20" stroke="white" stroke-width="2.5" stroke-linecap="round" stroke-linejoin="round"/>
<path d="M38 42H10.5V42C8.01472 42 6 39.9853 6 37.5V17V17.0001C5.99936 15.9199 6.21845 14.8509 6.64396 13.8581L8.832 8.732V8.732C9.53953 7.07464 11.1679 5.99952 12.97 6H35.028V6C36.8301 5.99953 38.4585 7.07464 39.166 8.732L41.366 13.858V13.858C41.7878 14.8516 42.0035 15.9205 42 17V38C42 40.2091 40.2091 42 38 42V42L38 42Z" stroke="white" stroke-width="2.5" stroke-linecap="round" stroke-linejoin="round"/>
</svg>
