<svg width="25" height="26" viewBox="0 0 25 26" fill="none" xmlns="http://www.w3.org/2000/svg">
<path d="M19.758 15.8841C19.2462 15.3512 18.6289 15.0663 17.9746 15.0663C17.3256 15.0663 16.703 15.3459 16.17 15.8788L14.5027 17.5409C14.3655 17.467 14.2283 17.3985 14.0964 17.3299C13.9065 17.2349 13.7271 17.1452 13.574 17.0502C12.0122 16.0582 10.5929 14.7655 9.23155 13.0929C8.57199 12.2592 8.12877 11.5575 7.80691 10.8451C8.23958 10.4494 8.64059 10.0378 9.03104 9.64212C9.17878 9.49438 9.32652 9.34136 9.47426 9.19362C10.5823 8.08557 10.5823 6.65039 9.47426 5.54234L8.0338 4.10188C7.87023 3.93831 7.70139 3.76946 7.54309 3.60062C7.22651 3.27348 6.89409 2.93579 6.55113 2.6192C6.03931 2.11266 5.42725 1.84357 4.78352 1.84357C4.1398 1.84357 3.51718 2.11266 2.98954 2.6192C2.98427 2.62448 2.98427 2.62448 2.97899 2.62975L1.18501 4.43957C0.509624 5.11495 0.124445 5.93807 0.0400222 6.8931C-0.0866119 8.43382 0.36716 9.869 0.715404 10.8082C1.57018 13.114 2.84708 15.251 4.75187 17.5409C7.06294 20.3005 9.84361 22.4796 13.02 24.0151C14.2336 24.5902 15.8535 25.2709 17.6633 25.387C17.7741 25.3922 17.8902 25.3975 17.9957 25.3975C19.2145 25.3975 20.2382 24.9596 21.0402 24.089C21.0455 24.0784 21.056 24.0731 21.0613 24.0626C21.3357 23.7302 21.6522 23.4294 21.9847 23.1075C22.2115 22.8912 22.4437 22.6643 22.6706 22.4269C23.193 21.8834 23.4673 21.2502 23.4673 20.6012C23.4673 19.947 23.1877 19.3191 22.6548 18.7914L19.758 15.8841ZM21.647 21.4402C21.6417 21.4402 21.6417 21.4455 21.647 21.4402C21.4412 21.6618 21.2301 21.8623 21.0032 22.0839C20.6603 22.4111 20.312 22.754 19.9849 23.1392C19.452 23.7091 18.8241 23.9782 18.001 23.9782C17.9218 23.9782 17.8374 23.9782 17.7582 23.9729C16.1911 23.8726 14.7349 23.2606 13.6426 22.7382C10.6562 21.2925 8.0338 19.2399 5.85464 16.6387C4.05538 14.47 2.85235 12.465 2.05562 10.3122C1.56491 8.99839 1.38551 7.97477 1.46466 7.00918C1.51742 6.39184 1.75486 5.88003 2.1928 5.44209L3.99206 3.64283C4.25061 3.40011 4.52498 3.2682 4.79408 3.2682C5.12649 3.2682 5.39559 3.4687 5.56444 3.63755C5.56971 3.64283 5.57499 3.6481 5.58026 3.65338C5.90213 3.95414 6.20816 4.26544 6.53002 4.59786C6.69359 4.7667 6.86243 4.93555 7.03128 5.10967L8.47174 6.55013C9.03104 7.10944 9.03104 7.62652 8.47174 8.18583C8.31873 8.33884 8.17099 8.49186 8.01797 8.6396C7.57475 9.09337 7.15264 9.51548 6.69359 9.92704C6.68304 9.9376 6.67248 9.94287 6.66721 9.95343C6.21343 10.4072 6.29786 10.8504 6.39283 11.1512C6.39811 11.167 6.40339 11.1828 6.40866 11.1987C6.78329 12.1062 7.31093 12.961 8.11295 13.9793L8.11822 13.9846C9.57451 15.7786 11.11 17.1768 12.8037 18.248C13.02 18.3851 13.2416 18.496 13.4527 18.6015C13.6426 18.6965 13.822 18.7862 13.975 18.8811C13.9962 18.8917 14.0173 18.9075 14.0384 18.9181C14.2178 19.0078 14.3866 19.05 14.5607 19.05C14.9987 19.05 15.273 18.7756 15.3627 18.6859L17.1673 16.8814C17.3467 16.702 17.6316 16.4856 17.964 16.4856C18.2912 16.4856 18.5603 16.6914 18.7238 16.8708C18.7291 16.8761 18.7291 16.8761 18.7344 16.8814L21.6417 19.7887C22.1852 20.3269 22.1852 20.8809 21.647 21.4402Z" fill="white"/>
<path d="M13.5105 6.34434C14.8929 6.5765 16.1487 7.23078 17.1513 8.2333C18.1538 9.23582 18.8028 10.4916 19.0402 11.874C19.0983 12.2223 19.399 12.465 19.742 12.465C19.7842 12.465 19.8211 12.4597 19.8633 12.4544C20.2538 12.3911 20.5123 12.0218 20.449 11.6313C20.1641 9.95869 19.3726 8.4338 18.1643 7.2255C16.956 6.0172 15.4311 5.22574 13.7585 4.94081C13.3681 4.87749 13.004 5.13604 12.9354 5.52122C12.8668 5.9064 13.1201 6.28102 13.5105 6.34434Z" fill="white"/>
<path d="M24.9709 11.4255C24.5013 8.67126 23.2033 6.16496 21.2088 4.17047C19.2143 2.17598 16.708 0.877983 13.9537 0.408382C13.5685 0.339788 13.2045 0.603609 13.1359 0.988788C13.0726 1.37924 13.3311 1.74332 13.7216 1.81191C16.1804 2.22875 18.4228 3.39484 20.2063 5.17299C21.9897 6.95642 23.1505 9.1989 23.5674 11.6577C23.6254 12.006 23.9262 12.2487 24.2691 12.2487C24.3113 12.2487 24.3483 12.2434 24.3905 12.2381C24.7757 12.1801 25.0395 11.8107 24.9709 11.4255Z" fill="white"/>
</svg>
