<svg width="16" height="16" viewBox="0 0 16 16" fill="none" xmlns="http://www.w3.org/2000/svg">
<path d="M12.6667 7.33332H8.66672V3.33332C8.66672 3.15651 8.59648 2.98694 8.47145 2.86192C8.34643 2.73689 8.17686 2.66666 8.00005 2.66666C7.82324 2.66666 7.65367 2.73689 7.52865 2.86192C7.40362 2.98694 7.33338 3.15651 7.33338 3.33332V7.33332H3.33338C3.15657 7.33332 2.987 7.40356 2.86198 7.52858C2.73696 7.65361 2.66672 7.82318 2.66672 7.99999C2.66672 8.1768 2.73696 8.34637 2.86198 8.47139C2.987 8.59642 3.15657 8.66666 3.33338 8.66666H7.33338V12.6667C7.33338 12.8435 7.40362 13.013 7.52865 13.1381C7.65367 13.2631 7.82324 13.3333 8.00005 13.3333C8.17686 13.3333 8.34643 13.2631 8.47145 13.1381C8.59648 13.013 8.66672 12.8435 8.66672 12.6667V8.66666H12.6667C12.8435 8.66666 13.0131 8.59642 13.1381 8.47139C13.2631 8.34637 13.3334 8.1768 13.3334 7.99999C13.3334 7.82318 13.2631 7.65361 13.1381 7.52858C13.0131 7.40356 12.8435 7.33332 12.6667 7.33332Z" fill="white"/>
</svg>
