<svg width="32" height="32" viewBox="0 0 32 32" fill="none" xmlns="http://www.w3.org/2000/svg">
<path d="M16.0003 18.56C15.2665 18.56 14.5628 18.8515 14.044 19.3703C13.5251 19.8892 13.2336 20.5929 13.2336 21.3267C13.2336 22.0604 13.5251 22.7641 14.044 23.283C14.5628 23.8018 15.2665 24.0933 16.0003 24.0933C16.7358 24.0933 17.4413 23.8011 17.9614 23.281C18.4815 22.7609 18.7736 22.0555 18.7736 21.32C18.7736 20.5845 18.4815 19.8791 17.9614 19.359C17.4413 18.8389 16.7358 18.5467 16.0003 18.5467V18.56Z" stroke="#0F0A4D" stroke-width="1.6" stroke-linecap="round" stroke-linejoin="round"/>
<path d="M6.66686 4H25.3335H25.3202C26.0535 3.98667 26.6535 4.58667 26.6535 5.32C26.6535 8.62667 23.9602 11.32 20.6535 11.32H11.3202L11.3069 11.3187C7.98686 11.3053 5.30686 8.62534 5.30686 5.30534C5.30686 5.304 5.30686 5.304 5.30686 5.304C5.29353 4.55734 5.89352 3.95734 6.62686 3.95734L6.66686 4Z" stroke="#0F0A4D" stroke-width="1.6" stroke-linecap="round" stroke-linejoin="round"/>
<path d="M10.8531 14.6667V14.6653C9.50648 14.6653 8.35982 15.612 8.11982 16.932L6.69315 24.7187H6.67982C6.39982 26.212 7.39982 27.6653 8.90648 27.932C9.06648 27.9587 9.22648 27.972 9.39982 27.972H22.5198H22.5065C24.0265 27.9587 25.2665 26.7187 25.2665 25.1987C25.2532 25.0253 25.2398 24.8653 25.2131 24.692L23.7865 16.892C23.5465 15.572 22.3865 14.612 21.0531 14.612L10.8531 14.6667Z" stroke="#0F0A4D" stroke-width="1.6" stroke-linecap="round" stroke-linejoin="round"/>
<path d="M12 11.3333H20V14.6667H12V11.3333Z" stroke="#0F0A4D" stroke-width="1.6" stroke-linecap="round" stroke-linejoin="round"/>
</svg>
