<svg width="25" height="26" viewBox="0 0 25 26" fill="none" xmlns="http://www.w3.org/2000/svg">
<path d="M12.4525 25.3658C12.3027 25.3658 12.1532 25.3321 12.0157 25.2648C11.9014 25.2086 9.18562 23.8572 6.34413 20.826C4.67857 19.0495 3.31057 17.0574 2.27789 14.9053C0.988088 12.2172 0.222639 9.27409 0.00233186 6.15787C-0.0155979 5.90366 0.0704268 5.65301 0.241141 5.46113C0.412046 5.26926 0.653526 5.15189 0.912745 5.13523C2.70133 5.01992 4.10253 3.54988 4.10253 1.78839C4.10253 1.259 4.53971 0.829956 5.07913 0.829956H19.9235C20.4627 0.829956 20.9001 1.259 20.9001 1.78839C20.9001 3.54876 22.3003 5.0188 24.0879 5.13523C24.3512 5.15227 24.5961 5.27319 24.767 5.47031C24.9381 5.66742 25.0205 5.92407 24.9957 6.18183C24.6617 9.64192 23.6881 12.8781 22.1019 15.8008C21.8482 16.268 21.2567 16.4449 20.7808 16.1961C20.3047 15.9474 20.1245 15.3669 20.378 14.8996C21.7067 12.4515 22.5702 9.75967 22.95 6.88643C20.9502 6.36903 19.414 4.74605 19.0363 2.74682H5.96627C5.58707 4.75466 4.03958 6.38269 2.02744 6.89279C2.54073 11.728 4.45578 15.9556 7.72701 19.47C9.68517 21.5735 11.605 22.8146 12.4469 23.3058C13.3682 22.7558 15.5963 21.2779 17.7654 18.7154C18.1101 18.3081 18.7258 18.2523 19.1406 18.5905C19.5555 18.9288 19.6125 19.5331 19.2679 19.9402C16.1809 23.5871 13.03 25.194 12.8973 25.2606C12.7576 25.3308 12.6051 25.3658 12.4525 25.3658ZM11.766 16.0636C12.465 16.0179 13.1176 15.6844 13.5563 15.1484C13.5677 15.1346 13.5786 15.1203 13.5893 15.1059L18.4225 8.4802C18.7365 8.04984 18.6354 7.45119 18.1969 7.14307C17.7583 6.83495 17.1482 6.93416 16.8344 7.36434L12.0206 13.9633C11.8892 14.1129 11.7244 14.1451 11.6361 14.1509C11.5455 14.1567 11.3713 14.1456 11.2178 14.0043L8.10697 11.0249C7.72091 10.655 7.10271 10.6627 6.726 11.0414C6.34928 11.4203 6.35672 12.027 6.74278 12.3967L9.85913 15.3813C9.86199 15.3841 9.86485 15.3869 9.8679 15.3895C10.335 15.8261 10.9588 16.0689 11.6004 16.0689C11.6553 16.069 11.7107 16.0672 11.766 16.0636Z" fill="white"/>
</svg>
