<svg width="48" height="48" viewBox="0 0 48 48" fill="none" xmlns="http://www.w3.org/2000/svg">
<path d="M18 42H9.428H9.428C7.53477 42 6 40.4652 6 38.572V38.572V30" stroke="white" stroke-width="2.5" stroke-linecap="round" stroke-linejoin="round"/>
<path d="M6 8.71002V19V19C6 19.5523 6.44772 20 7 20H19.106V20C19.6583 20 20.106 19.5523 20.106 19V8.71002" stroke="white" stroke-width="2.5" stroke-linecap="round" stroke-linejoin="round"/>
<path d="M4 10L13.184 4L22 10" stroke="white" stroke-width="2.5" stroke-linecap="round" stroke-linejoin="round"/>
<path d="M32 6H38.572V6C40.4652 6 42 7.53477 42 9.428V16" stroke="white" stroke-width="2.5" stroke-linecap="round" stroke-linejoin="round"/>
<path d="M34 26V30.44" stroke="white" stroke-width="2.5" stroke-linecap="round" stroke-linejoin="round"/>
<path d="M42 33.434C42 32.452 41.204 31.656 40.222 31.656H27.778V31.656C26.796 31.656 26 32.452 26 33.434" stroke="white" stroke-width="2.5" stroke-linecap="round" stroke-linejoin="round"/>
<path d="M40.222 42H28V42C26.8954 42 26 41.1046 26 40V40V30.888V30.8889C26 30.4078 26.0972 29.9315 26.2856 29.4888L27.2576 27.2128V27.2128C27.5725 26.4762 28.2965 25.9985 29.0976 25.9988H38.8976V25.9988C39.698 25.9993 40.4211 26.4769 40.7356 27.2128L41.7096 29.4908V29.4908C41.8982 29.9335 41.9955 30.4097 41.9956 30.8908V40.2228V40.2229C41.9952 41.2028 41.2019 41.9976 40.222 42H40.222Z" stroke="white" stroke-width="2.5" stroke-linecap="round" stroke-linejoin="round"/>
</svg>
