<svg width="20" height="20" viewBox="0 0 20 20" fill="none" xmlns="http://www.w3.org/2000/svg">
<path d="M17.5 5.00001H13.3333V3.60834C13.3137 3.07486 13.0835 2.57089 12.6929 2.20692C12.3024 1.84295 11.7835 1.64867 11.25 1.66668H8.74996C8.21642 1.64867 7.69751 1.84295 7.30698 2.20692C6.91646 2.57089 6.68618 3.07486 6.66663 3.60834V5.00001H2.49996C2.27895 5.00001 2.06698 5.08781 1.9107 5.24409C1.75442 5.40037 1.66663 5.61233 1.66663 5.83334C1.66663 6.05436 1.75442 6.26632 1.9107 6.4226C2.06698 6.57888 2.27895 6.66668 2.49996 6.66668H3.33329V15.8333C3.33329 16.4964 3.59668 17.1323 4.06553 17.6011C4.53437 18.07 5.17025 18.3333 5.83329 18.3333H14.1666C14.8297 18.3333 15.4656 18.07 15.9344 17.6011C16.4032 17.1323 16.6666 16.4964 16.6666 15.8333V6.66668H17.5C17.721 6.66668 17.9329 6.57888 18.0892 6.4226C18.2455 6.26632 18.3333 6.05436 18.3333 5.83334C18.3333 5.61233 18.2455 5.40037 18.0892 5.24409C17.9329 5.08781 17.721 5.00001 17.5 5.00001ZM8.33329 13.3333C8.33329 13.5544 8.2455 13.7663 8.08922 13.9226C7.93293 14.0789 7.72097 14.1667 7.49996 14.1667C7.27895 14.1667 7.06698 14.0789 6.9107 13.9226C6.75442 13.7663 6.66663 13.5544 6.66663 13.3333V10C6.66663 9.77899 6.75442 9.56703 6.9107 9.41075C7.06698 9.25447 7.27895 9.16668 7.49996 9.16668C7.72097 9.16668 7.93293 9.25447 8.08922 9.41075C8.2455 9.56703 8.33329 9.77899 8.33329 10V13.3333ZM8.33329 3.60834C8.33329 3.47501 8.50829 3.33334 8.74996 3.33334H11.25C11.4916 3.33334 11.6666 3.47501 11.6666 3.60834V5.00001H8.33329V3.60834ZM13.3333 13.3333C13.3333 13.5544 13.2455 13.7663 13.0892 13.9226C12.9329 14.0789 12.721 14.1667 12.5 14.1667C12.2789 14.1667 12.067 14.0789 11.9107 13.9226C11.7544 13.7663 11.6666 13.5544 11.6666 13.3333V10C11.6666 9.77899 11.7544 9.56703 11.9107 9.41075C12.067 9.25447 12.2789 9.16668 12.5 9.16668C12.721 9.16668 12.9329 9.25447 13.0892 9.41075C13.2455 9.56703 13.3333 9.77899 13.3333 10V13.3333Z" fill="#575482"/>
</svg>
