<svg width="52" height="18" viewBox="0 0 52 18" fill="none" xmlns="http://www.w3.org/2000/svg">
<path d="M22.6421 16.9185H18.5218L21.097 1.09254H25.2177L22.6421 16.9185ZM15.0556 1.09254L11.1274 11.9777L10.6626 9.63373L10.6631 9.63457L9.27663 2.51748C9.27663 2.51748 9.10899 1.09254 7.3221 1.09254H0.828153L0.751953 1.36051C0.751953 1.36051 2.73781 1.77368 5.06192 3.16942L8.64163 16.9189H12.9347L19.49 1.09254H15.0556ZM47.4639 16.9185H51.2472L47.9486 1.09212H44.6365C43.1069 1.09212 42.7344 2.27153 42.7344 2.27153L36.5893 16.9185H40.8844L41.7434 14.5677H46.9813L47.4639 16.9185ZM42.93 11.3203L45.0949 5.39785L46.3129 11.3203H42.93ZM36.9115 4.89831L37.4995 1.49979C37.4995 1.49979 35.6851 0.809753 33.7936 0.809753C31.7489 0.809753 26.8933 1.70341 26.8933 6.04894C26.8933 10.1375 32.5922 10.1883 32.5922 12.3359C32.5922 14.4834 27.4804 14.0986 25.7934 12.7444L25.1809 16.2979C25.1809 16.2979 27.0207 17.1915 29.8316 17.1915C32.6434 17.1915 36.8852 15.7357 36.8852 11.7733C36.8852 7.65845 31.1351 7.27534 31.1351 5.48633C31.1355 3.69689 35.1483 3.92676 36.9115 4.89831Z" fill="#2566AF"/>
</svg>
