<svg width="32" height="32" viewBox="0 0 32 32" fill="none" xmlns="http://www.w3.org/2000/svg">
<path d="M25.4281 6.57191C30.6351 11.7789 30.6351 20.2211 25.4281 25.428C20.2211 30.635 11.7789 30.635 6.57199 25.428C1.365 20.2211 1.365 11.7788 6.57199 6.57191C11.779 1.36493 20.2212 1.36493 25.4281 6.57191" stroke="#0F0A4D" stroke-width="1.5" stroke-linecap="round" stroke-linejoin="round"/>
<path d="M22.5995 9.40033C26.2444 13.0452 26.2444 18.9548 22.5995 22.5996C18.9546 26.2445 13.0451 26.2445 9.40017 22.5996C5.75528 18.9548 5.75528 13.0452 9.40017 9.40033C13.0451 5.75543 18.9546 5.75543 22.5995 9.40033Z" stroke="#0F0A4D" stroke-width="1.5" stroke-linecap="round" stroke-linejoin="round"/>
<path d="M12 14.6667V16.9C12 17.5053 12.2067 18.0933 12.584 18.5653L12.9307 18.9987C13.4373 19.632 14.2027 20 15.0133 20H15.7133H16.9867C17.7973 20 18.5627 19.632 19.0693 18.9987L19.416 18.5653C19.7933 18.0933 20 17.5053 20 16.9V14.6667C20 13.1933 18.8067 12 17.3333 12H14.6667C13.1933 12 12 13.1933 12 14.6667Z" stroke="#0F0A4D" stroke-width="1.5" stroke-linecap="round" stroke-linejoin="round"/>
<path d="M15.3333 16H16.6666" stroke="#0F0A4D" stroke-width="1.5" stroke-linecap="round" stroke-linejoin="round"/>
<path d="M14 19.7867V25.1067" stroke="#0F0A4D" stroke-width="1.5" stroke-linecap="round" stroke-linejoin="round"/>
<path d="M18 19.7867V25.1067" stroke="#0F0A4D" stroke-width="1.5" stroke-linecap="round" stroke-linejoin="round"/>
<path d="M7.06689 13.3333H12.3736" stroke="#0F0A4D" stroke-width="1.5" stroke-linecap="round" stroke-linejoin="round"/>
<path d="M19.627 13.3333H24.9336" stroke="#0F0A4D" stroke-width="1.5" stroke-linecap="round" stroke-linejoin="round"/>
<path d="M6.77344 17.3333H12.0401" stroke="#0F0A4D" stroke-width="1.5" stroke-linecap="round" stroke-linejoin="round"/>
<path d="M19.9602 17.3333H25.2269" stroke="#0F0A4D" stroke-width="1.5" stroke-linecap="round" stroke-linejoin="round"/>
</svg>
