<svg width="583" height="523" viewBox="0 0 583 523" fill="none" xmlns="http://www.w3.org/2000/svg">
<g opacity="0.5">
<path fill-rule="evenodd" clip-rule="evenodd" d="M73.8222 -224.928C180.403 -227.877 255.222 -139.718 332.569 -67.2143C436.204 29.9308 589.265 110.232 581.732 251.175C573.422 406.677 441.071 531.307 297.185 594.875C158.009 656.363 -16.9492 661.774 -136.727 568.588C-241.311 487.223 -203.176 331.924 -209.647 200.564C-214.087 110.416 -217.592 22.0099 -167.366 -53.3804C-110.065 -139.391 -30.3612 -222.045 73.8222 -224.928Z" stroke="#A4CFBF"/>
<path fill-rule="evenodd" clip-rule="evenodd" d="M91.1479 -160.957C180.882 -163.47 243.875 -88.341 308.996 -26.5533C396.25 56.2338 525.117 124.666 518.776 244.778C511.779 377.297 400.348 483.507 279.205 537.68C162.028 590.08 14.7242 594.691 -86.1212 515.278C-174.174 445.938 -142.067 313.592 -147.515 201.648C-151.253 124.824 -154.204 49.4836 -111.917 -14.764C-63.673 -88.0621 3.43216 -158.5 91.1479 -160.957Z" stroke="#A4CFBF" stroke-width="1.23452"/>
<path fill-rule="evenodd" clip-rule="evenodd" d="M108.929 -90.9503C181.616 -92.9861 232.642 -32.129 285.393 17.9208C356.071 84.9809 460.457 140.413 455.32 237.707C449.653 345.052 359.39 431.085 261.261 474.967C166.344 517.412 47.0234 521.148 -34.6644 456.821C-105.99 400.654 -79.9819 293.449 -84.3949 202.771C-87.4235 140.541 -89.8136 79.513 -55.5598 27.4705C-16.4807 -31.9031 37.8765 -88.9602 108.929 -90.9503Z" stroke="#A4CFBF"/>
</g>
</svg>
