<svg width="503" height="541" viewBox="0 0 503 541" fill="none" xmlns="http://www.w3.org/2000/svg">
<g opacity="0.5">
<path fill-rule="evenodd" clip-rule="evenodd" d="M336.14 190.874C333.006 189.033 330.297 187.098 327.161 185.25C324.963 183.611 322.685 183.333 319.81 184.096C314.043 185.626 308.405 187.572 302.745 189.506C289.72 195.184 278.181 203.14 268.645 213.659C261.737 220.826 256.396 228.91 252.511 237.498C250.809 241.053 251.359 243.129 253.77 245.602C258.617 250.542 263.445 255.477 267.157 261.159C267.789 261.881 268.639 263.42 270.919 263.705L274.649 264.505L276.923 258.118C279.381 250.799 282.993 244.506 287.543 238.423C294.12 230.011 302.072 223.457 311.913 219.073C312.893 247.692 297.543 274.418 271.512 287.541L271.108 287.649C270.028 285.272 269.065 283.305 267.78 280.093C253.451 251.013 226.063 230.741 194.253 225.408C179.548 223.093 164.387 224.012 149.684 228.354C146.801 229.119 145.08 230.907 143.863 233.003C142.474 236.043 140.663 239.186 138.961 242.742C137.461 245.362 137.188 247.657 138.371 250.455L139.145 253.372C140.435 256.574 141.426 260.306 142.71 263.519C148.083 275.426 155.275 285.95 163.788 294.802C182.376 313.414 205.079 324.268 231.139 326.242C232.074 326.443 232.486 326.334 233.318 326.113C235.476 325.972 236.704 325.647 237.61 324.075C238.627 322.923 239.001 321.043 238.561 319.387L237.018 313.571L236.139 310.259C235.147 306.519 234.266 303.2 232.57 300.096C231.71 298.552 230.094 294.087 224.837 294.15C210.418 291.318 197.602 284.49 186.492 274.123C181.132 268.879 176.384 262.582 172.754 255.547C173.569 255.331 174.513 255.53 175.749 255.202C207.647 254.287 235.447 274.449 244.65 305.779L247.293 315.739L249.053 322.37L277.796 430.699L281.21 443.567L282.86 449.786L285.578 458.403L314.79 450.652L313.688 446.5L283.295 331.952L279.439 317.42C282.625 316.134 285.282 314.548 288.766 312.724C320.591 294.95 340.925 262.016 342.065 224.838C342.226 215.474 341.559 206.313 339.32 196.247C339.713 194.37 338.219 192.095 336.14 190.874Z" fill="#E6F1FF"/>
<path fill-rule="evenodd" clip-rule="evenodd" d="M394.035 100.819L212.556 50.9074C200.903 47.7031 184.518 52.0506 176.416 60.4964L43.5444 193.815C34.9103 201.952 30.7179 218.355 33.8436 230.135L82.3483 412.943C85.4696 424.707 97.1286 436.445 108.773 439.651L290.151 489.149C301.793 492.347 318.178 487.999 326.291 479.56L459.263 346.655C467.786 338.098 471.98 321.703 468.97 310.36L420.466 127.552C417.34 115.772 405.567 103.605 394.035 100.819ZM426.477 318.037L298.18 446.527L123.066 398.541L76.2337 222.036L204.519 93.5315L379.645 141.531L426.477 318.037Z" fill="#E6F1FF"/>
</g>
</svg>
