<svg width="150" height="54" viewBox="0 0 150 54" fill="none" xmlns="http://www.w3.org/2000/svg">
<path fill-rule="evenodd" clip-rule="evenodd" d="M55.7054 43.2023C56.5848 43.2023 57.2651 42.7041 57.2651 41.951C57.2651 41.4612 57.0118 40.9623 56.186 40.7625L55.5608 40.6087C55.2516 40.536 54.908 40.363 54.908 39.9651C54.908 39.5656 55.2432 39.2656 55.733 39.2656C56.1493 39.2656 56.5212 39.5204 56.5496 39.9008H57.1105C57.0837 39.1393 56.4309 38.7498 55.7238 38.7498C54.9164 38.7498 54.3263 39.2656 54.3263 39.9559C54.3263 40.663 54.8077 40.9722 55.4054 41.1161L56.0138 41.2615C56.4493 41.3702 56.6842 41.5975 56.6842 41.9418C56.6842 42.3674 56.3123 42.6857 55.7054 42.6857C55.0886 42.6857 54.7618 42.323 54.6983 41.9694H54.1633C54.236 42.776 54.9707 43.2023 55.7054 43.2023Z" fill="#141731"/>
<path fill-rule="evenodd" clip-rule="evenodd" d="M61.7968 41.2255C61.7876 42.2503 61.0621 42.6482 60.3917 42.6482C59.7021 42.6482 59.1947 42.1324 59.1947 41.3158V38.8577H58.6131V41.325C58.6047 42.4944 59.3034 43.2023 60.3274 43.2023C60.8532 43.2023 61.5427 42.9482 61.7968 42.3505V43.0929H62.3777V38.8577H61.7968V41.2255Z" fill="#141731"/>
<path fill-rule="evenodd" clip-rule="evenodd" d="M65.3004 43.2023C66.1797 43.2023 66.8609 42.7041 66.8609 41.951C66.8609 41.4612 66.6068 40.9623 65.781 40.7625L65.1558 40.6087C64.8466 40.536 64.5029 40.363 64.5029 39.9651C64.5029 39.5656 64.8381 39.2656 65.3279 39.2656C65.745 39.2656 66.1162 39.5204 66.1445 39.9008H66.7055C66.6787 39.1393 66.0259 38.7498 65.3188 38.7498C64.5114 38.7498 63.9213 39.2656 63.9213 39.9559C63.9213 40.663 64.4027 40.9722 65.0004 41.1161L65.6088 41.2615C66.0443 41.3702 66.2792 41.5975 66.2792 41.9418C66.2792 42.3674 65.9073 42.6857 65.3004 42.6857C64.6836 42.6857 64.3568 42.323 64.294 41.9694H63.7583C63.831 42.776 64.5657 43.2023 65.3004 43.2023Z" fill="#141731"/>
<path fill-rule="evenodd" clip-rule="evenodd" d="M69.1246 38.8586V37.2721H68.5529V38.8586H67.783V39.356H68.5529V43.093H69.1246V39.356H70.095V38.8586H69.1246Z" fill="#141731"/>
<path fill-rule="evenodd" clip-rule="evenodd" d="M74.7112 39.6836C74.3944 39.1027 73.7416 38.7484 73.0161 38.7484C71.8092 38.7484 70.8748 39.7372 70.8748 40.9716C70.8748 42.2321 71.8459 43.2025 72.9977 43.2025C73.7508 43.2025 74.4028 42.7938 74.7112 42.2137V43.093H75.2921V38.8579H74.7112V39.6836ZM73.0697 42.6484C72.172 42.6484 71.4464 41.8877 71.4464 40.9716C71.4464 40.0647 72.172 39.3025 73.0605 39.3025C73.9138 39.3025 74.7112 40.0005 74.7112 40.99C74.7112 41.9413 73.949 42.6484 73.0697 42.6484Z" fill="#141731"/>
<path fill-rule="evenodd" clip-rule="evenodd" d="M77.3077 37.7062C77.561 37.7062 77.7607 37.534 77.7607 37.2991C77.7607 37.0534 77.561 36.8812 77.3077 36.8812C77.072 36.8812 76.863 37.0534 76.863 37.2991C76.863 37.534 77.072 37.7062 77.3077 37.7062ZM77.0169 43.094H77.5977V38.858H77.0169V43.094Z" fill="#141731"/>
<path fill-rule="evenodd" clip-rule="evenodd" d="M81.3666 38.7494C80.8409 38.7494 80.1513 39.0127 79.8972 39.6196V38.8588H79.3171V43.0933H79.8972V40.7445C79.9156 39.7198 80.6319 39.3211 81.313 39.3211C81.9919 39.3211 82.5085 39.8377 82.5085 40.6535V43.0933H83.0901V40.6259C83.0901 39.4565 82.3921 38.7494 81.3666 38.7494Z" fill="#141731"/>
<path fill-rule="evenodd" clip-rule="evenodd" d="M88.2984 39.6836C87.9816 39.1027 87.328 38.7484 86.6025 38.7484C85.3964 38.7484 84.4612 39.7372 84.4612 40.9716C84.4612 42.2321 85.4331 43.2025 86.5849 43.2025C87.3372 43.2025 87.99 42.7938 88.2984 42.2137V43.093H88.8793V38.8579H88.2984V39.6836ZM86.6561 42.6484C85.7591 42.6484 85.0329 41.8877 85.0329 40.9716C85.0329 40.0647 85.7591 39.3025 86.6477 39.3025C87.5002 39.3025 88.2984 40.0005 88.2984 40.99C88.2984 41.9413 87.5362 42.6484 86.6561 42.6484Z" fill="#141731"/>
<path fill-rule="evenodd" clip-rule="evenodd" d="M92.8716 38.7495C92.1545 38.7495 91.5017 39.103 91.1849 39.6839V36.5546H90.604V43.0933H91.1849V42.2584C91.4925 42.84 92.1637 43.202 92.8716 43.202C94.0594 43.202 95.0206 42.2584 95.0206 40.9704C95.0206 39.6839 94.0594 38.7495 92.8716 38.7495ZM92.8264 42.6495C91.9456 42.6495 91.1849 41.9683 91.1849 40.9895C91.1849 39.9655 91.9831 39.3028 92.8264 39.3028C93.7242 39.3028 94.4504 40.0283 94.4504 40.9627C94.4504 41.9048 93.7242 42.6495 92.8264 42.6495Z" fill="#141731"/>
<mask id="mask0" mask-type="alpha" maskUnits="userSpaceOnUse" x="0" y="0" width="150" height="54">
<path d="M0 53.5714H150V0H0V53.5714Z" fill="white"/>
</mask>
<g mask="url(#mask0)">
<path fill-rule="evenodd" clip-rule="evenodd" d="M96.4553 43.0928H97.0362V36.5541H96.4553V43.0928Z" fill="#141731"/>
<path fill-rule="evenodd" clip-rule="evenodd" d="M102.719 40.9625C102.719 39.6201 101.83 38.7484 100.624 38.7484C99.4267 38.7484 98.4746 39.6201 98.4746 40.9625C98.4746 42.304 99.4267 43.2025 100.624 43.2025C101.422 43.2025 102.147 42.8038 102.519 42.1234L102.021 41.9053C101.74 42.3676 101.223 42.6484 100.642 42.6484C99.7894 42.6484 99.1542 42.1234 99.0547 41.2158H102.701C102.709 41.1346 102.719 41.0436 102.719 40.9625ZM99.0639 40.7183C99.1818 39.8107 99.7894 39.3025 100.624 39.3025C101.449 39.3025 102.057 39.8374 102.138 40.7183H99.0639Z" fill="#141731"/>
<path fill-rule="evenodd" clip-rule="evenodd" d="M107.963 43.2023C108.842 43.2023 109.523 42.7041 109.523 41.951C109.523 41.4612 109.269 40.9623 108.444 40.7625L107.819 40.6087C107.509 40.536 107.165 40.363 107.165 39.9651C107.165 39.5656 107.5 39.2656 107.99 39.2656C108.407 39.2656 108.778 39.5204 108.807 39.9008H109.368C109.342 39.1393 108.688 38.7498 107.981 38.7498C107.174 38.7498 106.583 39.2656 106.583 39.9559C106.583 40.663 107.065 40.9722 107.663 41.1161L108.271 41.2615C108.707 41.3702 108.941 41.5975 108.941 41.9418C108.941 42.3674 108.57 42.6857 107.963 42.6857C107.346 42.6857 107.02 42.323 106.956 41.9694H106.42C106.493 42.776 107.228 43.2023 107.963 43.2023Z" fill="#141731"/>
<path fill-rule="evenodd" clip-rule="evenodd" d="M112.975 38.7495C112.449 38.7495 111.759 39.0127 111.506 39.6196V36.5546H110.926V43.0933H111.506V40.7446C111.524 39.7199 112.24 39.3211 112.921 39.3211C113.6 39.3211 114.117 39.8377 114.117 40.6535V43.0933H114.699V40.626C114.699 39.4566 114.001 38.7495 112.975 38.7495Z" fill="#141731"/>
<path fill-rule="evenodd" clip-rule="evenodd" d="M116.651 37.7062C116.905 37.7062 117.104 37.534 117.104 37.2991C117.104 37.0534 116.905 36.8812 116.651 36.8812C116.416 36.8812 116.207 37.0534 116.207 37.2991C116.207 37.534 116.416 37.7062 116.651 37.7062ZM116.361 43.094H116.941V38.858H116.361V43.094Z" fill="#141731"/>
<path fill-rule="evenodd" clip-rule="evenodd" d="M120.928 38.7494C120.221 38.7494 119.55 39.1121 119.242 39.693V38.8588H118.661V45.1512H119.242V42.2683C119.559 42.8484 120.212 43.2019 120.928 43.2019C122.116 43.2019 123.078 42.2683 123.078 40.9795C123.078 39.693 122.116 38.7494 120.928 38.7494ZM120.882 42.6494C120.039 42.6494 119.242 41.9859 119.242 40.9627C119.242 39.9823 120.003 39.3027 120.882 39.3027C121.781 39.3027 122.507 40.0466 122.507 40.9894C122.507 41.9231 121.781 42.6494 120.882 42.6494Z" fill="#141731"/>
<path fill-rule="evenodd" clip-rule="evenodd" d="M126.78 38.7494C126.073 38.7494 125.401 39.1121 125.093 39.693V38.8588H124.512V45.1512H125.093V42.2683C125.41 42.8484 126.063 43.2019 126.78 43.2019C127.968 43.2019 128.929 42.2683 128.929 40.9795C128.929 39.693 127.968 38.7494 126.78 38.7494ZM126.733 42.6494C125.891 42.6494 125.093 41.9859 125.093 40.9627C125.093 39.9823 125.855 39.3027 126.733 39.3027C127.632 39.3027 128.359 40.0466 128.359 40.9894C128.359 41.9231 127.632 42.6494 126.733 42.6494Z" fill="#141731"/>
<path fill-rule="evenodd" clip-rule="evenodd" d="M130.654 37.7062C130.907 37.7062 131.108 37.534 131.108 37.2991C131.108 37.0534 130.907 36.8812 130.654 36.8812C130.418 36.8812 130.21 37.0534 130.21 37.2991C130.21 37.534 130.418 37.7062 130.654 37.7062ZM130.363 43.094H130.945V38.858H130.363V43.094Z" fill="#141731"/>
<path fill-rule="evenodd" clip-rule="evenodd" d="M134.714 38.7494C134.188 38.7494 133.498 39.0127 133.244 39.6196V38.8588H132.664V43.0933H133.244V40.7445C133.263 39.7198 133.979 39.3211 134.66 39.3211C135.339 39.3211 135.856 39.8377 135.856 40.6535V43.0933H136.436V40.6259C136.436 39.4565 135.739 38.7494 134.714 38.7494Z" fill="#141731"/>
<path fill-rule="evenodd" clip-rule="evenodd" d="M141.646 39.6746C141.329 39.103 140.675 38.7494 139.959 38.7494C138.77 38.7494 137.808 39.6838 137.808 40.9711C137.808 42.2583 138.78 43.2019 139.959 43.2019C140.666 43.2019 141.329 42.8484 141.646 42.2767V42.5491C141.646 44.1815 140.965 44.7065 139.931 44.7065C139.424 44.7065 138.897 44.4532 138.59 43.9458L138.099 44.2183C138.517 44.907 139.215 45.2606 139.931 45.2606C141.31 45.2606 142.226 44.5627 142.226 42.5132V38.8588H141.646V39.6746ZM140.003 42.6486C139.115 42.6486 138.389 41.9047 138.389 40.9627C138.389 40.0282 139.115 39.3027 140.003 39.3027C140.847 39.3027 141.646 39.9647 141.646 40.9887C141.646 41.969 140.883 42.6486 140.003 42.6486Z" fill="#141731"/>
<path fill-rule="evenodd" clip-rule="evenodd" d="M35.579 20.878C35.3494 20.6461 35.1589 20.4158 34.9293 20.1831C34.7762 19.9903 34.5849 19.9137 34.3178 19.9137C33.7821 19.9137 33.2479 19.9528 32.7122 19.9903C31.4509 20.1831 30.2663 20.6079 29.1964 21.3012C28.4318 21.7642 27.7821 22.3428 27.2471 22.9987C27.0175 23.2681 27.0175 23.4609 27.1698 23.7311C27.4767 24.2714 27.7821 24.8109 27.9734 25.3895C28.0117 25.4668 28.0499 25.6199 28.2413 25.6972L28.5466 25.8525L28.891 25.3505C29.2729 24.7719 29.7313 24.3089 30.2662 23.8857C31.0308 23.3071 31.8719 22.9214 32.827 22.7676C32.253 25.2739 30.3053 27.24 27.7438 27.7795H27.7063C27.6673 27.5484 27.629 27.3556 27.5915 27.0472C27.0175 24.1933 25.1073 21.8033 22.4693 20.6079C21.2464 20.0683 19.9094 19.7989 18.5333 19.8372C18.2655 19.8372 18.0749 19.9528 17.9211 20.1066C17.7305 20.3385 17.5009 20.5696 17.2714 20.839C17.0808 21.0318 17.0043 21.2247 17.0425 21.4949V21.7658C17.0808 22.0734 17.0808 22.4201 17.1183 22.7285C17.3104 23.8857 17.6923 24.9648 18.2272 25.929C19.4119 27.9724 21.1323 29.4372 23.3487 30.2086C23.4252 30.2477 23.4634 30.2477 23.5407 30.2477C23.7313 30.2852 23.8453 30.2852 23.9601 30.1696C24.0749 30.0931 24.1507 29.9385 24.1507 29.7846V29.2443V28.9367C24.1507 28.5892 24.1507 28.2808 24.0749 27.9724C24.0359 27.8186 23.9984 27.3938 23.5407 27.2783C22.3545 26.7005 21.3994 25.8127 20.6739 24.6571C20.3295 24.0785 20.0624 23.4227 19.9094 22.7285C19.9851 22.7285 20.0624 22.7676 20.1772 22.7676C22.9668 23.4227 24.9152 25.8127 24.9925 28.7438V29.6691V30.2852V40.3489V41.5444V42.1222L25.03 42.9326H27.7438V42.5469V31.9053V30.5553C28.0499 30.517 28.317 30.4405 28.6614 30.3625C31.8328 29.5528 34.356 27.1627 35.3111 23.9622C35.5407 23.1533 35.6938 22.3428 35.7313 21.4176C35.8086 21.2637 35.7313 21.0318 35.579 20.878Z" fill="#47B7A6"/>
<path fill-rule="evenodd" clip-rule="evenodd" d="M42.6775 14.3954L28.0762 5.88443C27.1387 5.338 25.6165 5.338 24.7188 5.88443L10.1168 14.3954C9.18006 14.9028 8.43848 16.2298 8.43848 17.3242V34.3071C8.43848 35.4 9.18006 36.6872 10.1168 37.2337L24.7188 45.7064C25.6556 46.252 27.1778 46.252 28.0762 45.7064L42.6775 37.2337C43.6142 36.6872 44.3558 35.361 44.3558 34.3071V17.3242C44.3558 16.2298 43.6142 14.9028 42.6775 14.3954ZM40.491 33.9949L26.3972 42.1921L12.304 33.9949V17.5974L26.3972 9.39871L40.491 17.5974V33.9949Z" fill="#3863A0"/>
<path fill-rule="evenodd" clip-rule="evenodd" d="M57.1028 31.4686H57.8169C58.2714 31.4686 58.5745 31.2497 58.7038 30.812L60.8896 23.977L63.0753 30.812C63.2268 31.2497 63.51 31.4686 63.963 31.4686H64.6778C65.1324 31.4686 65.414 31.2934 65.5862 30.8342L68.9413 21.3918C69.1357 20.8224 68.8977 20.4941 68.3138 20.4941H67.6212C67.1666 20.4941 66.8635 20.6702 66.712 21.1293L64.2232 28.4464L61.9939 21.4806C61.8646 21.0413 61.5829 20.801 61.1283 20.801H60.6523C60.2191 20.801 59.9161 21.0413 59.7867 21.4806L57.5796 28.4464L55.0686 21.1293C54.9171 20.6702 54.614 20.4941 54.1595 20.4941H53.4676C52.9036 20.4941 52.6442 20.8224 52.8393 21.3918L56.2151 30.8342C56.3666 31.2712 56.6482 31.4686 57.1028 31.4686Z" fill="#000209"/>
<path fill-rule="evenodd" clip-rule="evenodd" d="M76.0974 31.7092C77.5468 31.7092 78.955 31.2056 79.9721 29.7385V30.6799C79.9721 31.1834 80.2744 31.4689 80.7718 31.4689H81.4216C81.9198 31.4689 82.2007 31.1834 82.2007 30.6799V21.2827C82.2007 20.7783 81.9198 20.4936 81.4216 20.4936H80.7718C80.2744 20.4936 79.9721 20.7783 79.9721 21.2827V22.2248C78.955 20.7569 77.5468 20.2526 76.0974 20.2526C72.8731 20.2526 70.7295 22.8163 70.7295 25.9709C70.7295 29.124 72.8731 31.7092 76.0974 31.7092ZM76.4004 29.7385C74.2147 29.7385 72.9588 28.0288 72.9588 25.9709C72.9588 23.9329 74.2147 22.2026 76.4004 22.2026C78.5425 22.2026 79.9935 23.8013 80.0142 25.9709C79.9935 28.139 78.5425 29.7385 76.4004 29.7385Z" fill="#000209"/>
<path fill-rule="evenodd" clip-rule="evenodd" d="M89.376 31.4686H90.0901C90.5439 31.4686 90.8477 31.2497 90.977 30.812L93.1628 23.977L95.3485 30.812C95.5 31.2497 95.7824 31.4686 96.2362 31.4686H96.951C97.4056 31.4686 97.6865 31.2934 97.8594 30.8342L101.215 21.3918C101.409 20.8224 101.171 20.4941 100.586 20.4941H99.8944C99.4398 20.4941 99.1368 20.6702 98.9852 21.1293L96.4964 28.4464L94.2671 21.4806C94.1378 21.0413 93.8561 20.801 93.4015 20.801H92.9255C92.4924 20.801 92.1893 21.0413 92.06 21.4806L89.852 28.4464L87.3418 21.1293C87.1903 20.6702 86.8865 20.4941 86.4319 20.4941H85.7401C85.1768 20.4941 84.9174 20.8224 85.1125 21.3918L88.4883 30.8342C88.6398 31.2712 88.9207 31.4686 89.376 31.4686Z" fill="#000209"/>
<path fill-rule="evenodd" clip-rule="evenodd" d="M104.921 31.4686H105.571C106.068 31.4686 106.349 31.1839 106.349 30.6803V27.2839C106.349 22.7946 108.297 22.3997 109.077 22.3997C109.272 22.3997 109.466 22.4219 109.661 22.4648C110.028 22.5536 110.245 22.3339 110.245 21.7867V21.1507C110.245 20.713 110.18 20.3403 109.725 20.2752L109.25 20.2531C107.95 20.2531 106.718 21.1959 106.349 22.9477V21.2824C106.349 20.7788 106.068 20.4941 105.571 20.4941H104.921C104.423 20.4941 104.119 20.7788 104.119 21.2824V30.6803C104.119 31.1839 104.423 31.4686 104.921 31.4686Z" fill="#000209"/>
<path fill-rule="evenodd" clip-rule="evenodd" d="M114.814 36.3751H115.333C115.787 36.3751 116.069 36.1998 116.242 35.7621L122.281 21.4141C122.519 20.8447 122.26 20.495 121.675 20.495H120.788C120.334 20.495 120.008 20.6909 119.858 21.1294L117.087 28.5338L114.078 21.1072C113.927 20.6909 113.646 20.495 113.191 20.495H112.326C111.741 20.495 111.482 20.8662 111.719 21.4141L115.875 31.0524L114.208 35.456C113.992 36.0039 114.23 36.3751 114.814 36.3751Z" fill="#000209"/>
<path fill-rule="evenodd" clip-rule="evenodd" d="M130.009 31.7092C131.373 31.7092 132.823 31.3809 134.077 30.3515C134.576 29.9352 134.576 29.4753 134.229 29.1026L134.077 28.9281C133.732 28.5768 133.385 28.5554 132.974 28.8179C132.043 29.4538 131.091 29.7385 130.031 29.7385C127.671 29.7385 126.005 28.2485 126.071 26.2105H134.468C134.987 26.2105 135.289 25.9258 135.225 25.4C134.923 21.8957 132.434 20.2526 129.706 20.2526C126.33 20.2526 123.863 22.8163 123.863 26.0146C123.863 29.1462 126.2 31.7092 130.009 31.7092ZM126.264 24.5467C126.936 22.6847 128.494 22.1804 129.75 22.1804C130.94 22.1804 132.454 22.5967 133.018 24.5467H126.264Z" fill="#000209"/>
<path fill-rule="evenodd" clip-rule="evenodd" d="M138.811 31.4686H139.461C139.957 31.4686 140.238 31.1839 140.238 30.6803V27.2839C140.238 22.7946 142.187 22.3997 142.966 22.3997C143.162 22.3997 143.355 22.4219 143.55 22.4648C143.918 22.5536 144.134 22.3339 144.134 21.7867V21.1507C144.134 20.713 144.069 20.3403 143.615 20.2752L143.139 20.2531C141.84 20.2531 140.607 21.1959 140.238 22.9477V21.2824C140.238 20.7788 139.957 20.4941 139.461 20.4941H138.811C138.313 20.4941 138.009 20.7788 138.009 21.2824V30.6803C138.009 31.1839 138.313 31.4686 138.811 31.4686Z" fill="#000209"/>
</g>
</svg>
